<?xml version="1.0" encoding="utf-8"?>
<!-- Generator: Adobe Illustrator 16.0.0, SVG Export Plug-In . SVG Version: 6.00 Build 0)  -->
<!DOCTYPE svg PUBLIC "-//W3C//DTD SVG 1.1//EN" "http://www.w3.org/Graphics/SVG/1.1/DTD/svg11.dtd">
<svg version="1.1" id="Layer_1" xmlns="http://www.w3.org/2000/svg" xmlns:xlink="http://www.w3.org/1999/xlink" x="0px" y="0px"
	 width="19.5px" height="19.885px" viewBox="0 0 19.5 19.885" enable-background="new 0 0 19.5 19.885" xml:space="preserve">
<g id="Layer_2">
</g>
<g>
	<g>
		<g>
			<path fill="#79FF61" d="M11.192,10.958c0.076-0.047,0.152-0.095,0.228-0.143c-0.178-0.231-0.356-0.462-0.535-0.693
				c-0.956,0.772-1.893,1.559-3.083,1.934c0.113,0.269,0.227,0.538,0.34,0.807c1.934-0.876,4.17-1.009,6.041-1.985
				c0.281-0.146,0.295-0.619,0-0.762c-1.52-0.737-3.054,0.249-4.489,0.773c0.166,0.216,0.332,0.433,0.498,0.648
				c1.122-1.607,2.935-2.451,4.545-3.477c0.339-0.215,0.243-0.874-0.223-0.822c-2.461,0.274-4.521,2.725-6.156,4.371
				c-0.412,0.414,0.189,0.969,0.624,0.624c1.886-1.495,4.735-1.425,6.479-3.076c0.275-0.261,0.071-0.768-0.312-0.753
				c-1.504,0.055-2.486,1.415-3.708,2.12c0.201,0.201,0.402,0.402,0.604,0.604c0.929-1.558,2.73-2.929,4.14-4.041
				c-0.208-0.208-0.416-0.416-0.624-0.624c-1.101,0.882-1.935,2.02-2.995,2.945c-0.43,0.375,0.197,0.997,0.624,0.624
				c1.061-0.925,1.895-2.063,2.995-2.945c0.446-0.357-0.184-0.971-0.624-0.624c-1.487,1.172-3.299,2.576-4.278,4.219
				c-0.229,0.384,0.223,0.823,0.604,0.604c1.012-0.583,2.016-1.954,3.263-1.999c-0.104-0.251-0.208-0.502-0.312-0.753
				c-1.703,1.612-4.6,1.587-6.479,3.076c0.208,0.208,0.416,0.416,0.624,0.624c1.42-1.429,3.403-3.875,5.532-4.112
				C14.44,7.848,14.366,7.574,14.292,7.3c-1.759,1.12-3.639,2.041-4.861,3.793c-0.217,0.31,0.143,0.778,0.498,0.648
				c1.072-0.392,2.642-1.43,3.81-0.863c0-0.254,0-0.508,0-0.762c-1.858,0.969-4.114,1.112-6.041,1.985
				c-0.459,0.208-0.131,0.955,0.34,0.807c1.336-0.421,2.398-1.294,3.472-2.162c0.394-0.318-0.116-0.956-0.535-0.693
				c-0.076,0.047-0.152,0.095-0.228,0.143C10.266,10.498,10.708,11.262,11.192,10.958L11.192,10.958z"/>
		</g>
	</g>
	<g>
		<g>
			<path fill="#79FF61" d="M9.115,5.997c-0.347,0.501-0.703,0.957-1.12,1.402C7.829,7.576,7.664,7.753,7.498,7.93
				c0.538-0.052,0.63-0.093,0.278-0.121C6.894,7.664,6.433,7.247,5.813,6.585c-1.95-2.081-5.064,1.047-3.121,3.121
				c1.526,1.628,3.084,2.308,5.278,2.544c2.156,0.232,3.928-2.539,4.956-4.026C14.549,5.876,10.721,3.673,9.115,5.997L9.115,5.997z"
				/>
		</g>
	</g>
	<g>
		<g>
			<path fill="#79FF61" d="M10.179,9.853c-0.747,0.405-1.466,0.856-2.197,1.288c-0.946,0.558-1.518,2.053-0.792,3.019
				c0.094,0.125,0.169,0.247,0.24,0.386C7,13.694,7.667,15.113,7.583,14.918c0.236,0.543,0.662,0.996,1.156,1.315
				c0.869,0.563,1.912,0.585,2.89,0.807c1.172,0.266,2.385-0.343,2.714-1.542c0.308-1.119-0.368-2.448-1.542-2.714
				c-0.345-0.078-0.693-0.135-1.043-0.192c-0.143-0.023-0.285-0.048-0.427-0.077c-0.089-0.017-0.723-0.238-0.239-0.011
				c0.168,0.106,0.304,0.245,0.409,0.415c-0.249-0.383,0.192,0.496,0.017,0.053c-0.146-0.367-0.281-0.725-0.518-1.04
				c-0.264,1.006-0.527,2.013-0.792,3.019c0.731-0.431,1.451-0.883,2.197-1.288c1.056-0.573,1.385-2.007,0.792-3.019
				C12.577,9.583,11.237,9.279,10.179,9.853L10.179,9.853z"/>
		</g>
	</g>
	<g>
		<g>
			<path fill="#79FF61" d="M14.603,7.653c-0.292-0.535,0.128,0.412-0.058-0.091c-0.067-0.181-0.122-0.366-0.191-0.546
				c-0.24-0.633-0.518-1.1-0.977-1.606c-0.355-0.392-0.838-0.692-1.321-0.902c0.331,0.144-1.265-0.534-0.457-0.189
				c-0.098-0.042-0.193-0.09-0.286-0.144c0.148,0.096,0.261,0.222,0.339,0.38C10.934,3.593,9.76,3.103,8.633,3.763
				C7.684,4.319,7.12,5.816,7.842,6.782c0.4,0.536,0.783,0.957,1.383,1.278c0.254,0.136,0.569,0.251,0.824,0.355
				c0.227,0.094,0.204,0.083-0.068-0.031c0.1,0.045,0.197,0.095,0.292,0.151c-0.448-0.248,0.206,0.273-0.153-0.202
				c0.055,0.081,0.104,0.165,0.145,0.253c-0.128-0.313-0.151-0.357-0.069-0.132c0.168,0.488,0.349,0.972,0.597,1.426
				c0.575,1.055,2.005,1.386,3.019,0.792C14.871,10.052,15.179,8.709,14.603,7.653L14.603,7.653z"/>
		</g>
	</g>
	<g>
		<g>
			<path fill="#79FF61" d="M16.506,6.66c0.271-1.471,0.336-3.097-0.934-4.159c-0.922-0.771-2.214-0.907-3.121,0
				c-0.793,0.793-0.924,2.349,0,3.121c0.377,0.315-0.217-0.423,0.007-0.035c-0.045-0.097-0.09-0.193-0.135-0.29
				c-0.035-0.378-0.046-0.445-0.032-0.202c0.007,0.146-0.058,0.621,0.034-0.036c-0.02,0.143-0.048,0.285-0.075,0.427
				c-0.218,1.182,0.308,2.375,1.542,2.714C14.875,8.5,16.288,7.844,16.506,6.66L16.506,6.66z"/>
		</g>
	</g>
	<g>
		<g>
			<path fill="#79FF61" d="M12.292,8.234c1.585,0.16,3.076-0.321,4.144-1.538c0.792-0.903,0.892-2.229,0-3.121
				c-0.809-0.809-2.327-0.904-3.121,0c-0.135,0.155-0.275,0.298-0.431,0.433c0.271-0.202,0.311-0.242,0.121-0.119
				c-0.389,0.236,0.499-0.166,0.071-0.035c-0.231,0.051-0.158,0.048,0.218-0.01c-0.087,0.009-0.175,0.015-0.263,0.017
				c-0.246,0.011-0.494-0.015-0.738-0.04c-1.199-0.121-2.207,1.095-2.207,2.207C10.085,7.322,11.096,8.114,12.292,8.234
				L12.292,8.234z"/>
		</g>
	</g>
	<g>
		<g>
			<path fill="#79FF61" d="M13.928,12.886c0.285-0.437,0.474-0.924,0.755-1.363c-0.293,0.457,0.141-0.164,0.213-0.25
				c0.193-0.23,0.386-0.46,0.573-0.696C14.239,9.861,13.01,9.145,11.78,8.43c0.044-0.088,0.088-0.175,0.133-0.263
				c-0.525,1.083-0.305,2.377,0.792,3.019c0.977,0.572,2.495,0.291,3.019-0.792c0.125-0.256,0.259-0.51,0.313-0.792
				c0.188-0.983-0.11-1.962-1.014-2.492c-0.781-0.458-2.069-0.421-2.674,0.345c-0.451,0.571-0.94,1.112-1.372,1.699
				c-0.345,0.469-0.542,1.018-0.858,1.504c-0.658,1.009-0.208,2.434,0.792,3.019C11.984,14.308,13.272,13.892,13.928,12.886
				L13.928,12.886z"/>
		</g>
	</g>
	<g>
		<path fill="#79FF61" stroke="#000000" stroke-width="0.2942" stroke-miterlimit="10" d="M3.385,16.864
			C0.158,14.292-0.081,9.43,1.765,5.908c1.668,1.175,2.409,2.886,2.121,4.9c1.862-0.849,3.3-0.544,5.156-0.232"/>
		<path fill="#79FF61" stroke="#000000" stroke-width="0.2942" stroke-miterlimit="10" d="M3.385,16.864
			c2.898,2.938,7.758,2.664,11.066,0.457c-1.344-1.534-3.124-2.092-5.098-1.593c0.648-1.941,0.193-3.339-0.312-5.152"/>
		<path fill="#79FF61" stroke="#000000" stroke-width="0.3168" stroke-miterlimit="10" d="M2.742,6.589
			c1.397-1.994,3.33-3.514,5.672-4.202c0.741,2.518,0.336,5.521-0.489,8.005"/>
		<path fill="#79FF61" stroke="#000000" stroke-width="0.3168" stroke-miterlimit="10" d="M13.774,16.514
			c1.836-1.6,3.144-3.682,3.581-6.083c-2.582-0.472-5.526,0.248-7.909,1.33"/>
		<path fill="#79FF61" stroke="#000000" stroke-width="0.2092" stroke-miterlimit="10" d="M8.762,3.792
			c0.961-1.35,2.354-2.563,3.91-3.066c0.437,1.653,0.382,2.796-0.211,4.458"/>
		<path fill="#79FF61" stroke="#000000" stroke-width="0.2092" stroke-miterlimit="10" d="M15.881,10.196
			c1.24-1.098,2.273-2.635,2.61-4.234c-1.69-0.26-2.827-0.082-4.417,0.683"/>
		<path fill="#79FF61" stroke="#000000" stroke-width="0.2092" stroke-miterlimit="10" d="M12.903,10.5
			c0.904-1.387,1.328-3.948,1.228-5.581c-1.699,0.199-4.069,0.669-5.399,1.829"/>
		<path fill="#79FF61" stroke="#000000" stroke-width="0.2092" stroke-miterlimit="10" d="M16.92,5.853
			c0.904-1.387,1.05-3.458,0.95-5.09c-1.699,0.198-3.599,0.301-4.93,1.461"/>
	</g>
</g>
</svg>
