<?xml version="1.0" encoding="utf-8"?>
<!-- Generator: Adobe Illustrator 16.0.0, SVG Export Plug-In . SVG Version: 6.00 Build 0)  -->
<!DOCTYPE svg PUBLIC "-//W3C//DTD SVG 1.1//EN" "http://www.w3.org/Graphics/SVG/1.1/DTD/svg11.dtd">
<svg version="1.1" id="Layer_1" xmlns="http://www.w3.org/2000/svg" xmlns:xlink="http://www.w3.org/1999/xlink" x="0px" y="0px"
	 width="94.495px" height="95.995px" viewBox="0 0 94.495 95.995" enable-background="new 0 0 94.495 95.995" xml:space="preserve">
<image display="none" overflow="visible" width="450" height="339" xlink:href="8DA654D9.jpg"  transform="matrix(1 0 0 1 -442.5713 -17.5581)">
</image>
<path fill="#FBFF4A" stroke="#000000" stroke-miterlimit="10" d="M79.081,86.977c0,0-34.676,10.334-54.104-14.532
	C5.552,47.58,10.929,30.902,14.505,14.614l0.273-0.244c16.588-1.706,33.77-5.159,56.271,16.961
	c22.504,22.122,8.336,55.438,8.336,55.438L79.081,86.977z"/>
<path opacity="0.2" fill="none" stroke="#000000" stroke-width="4" stroke-miterlimit="10" d="M75.917,85.262
	c0,0-30.66,8.139-48.455-14.479C9.669,48.169,14.931,34.407,16.622,18.756"/>
<path fill="#FFFFFF" d="M33.515,25.628c4.844-1.524,18.443,6.857,18.158,1.387C51.214,18.187,26.673,15.403,33.515,25.628z"/>
</svg>
