<?xml version="1.0" encoding="utf-8"?>
<!-- Generator: Adobe Illustrator 21.0.0, SVG Export Plug-In . SVG Version: 6.00 Build 0)  -->
<svg version="1.1" id="Layer_1" xmlns="http://www.w3.org/2000/svg" xmlns:xlink="http://www.w3.org/1999/xlink" x="0px" y="0px"
	 width="217.5px" height="234.4px" viewBox="0 0 217.5 234.4" style="enable-background:new 0 0 217.5 234.4;" xml:space="preserve"
	>
<style type="text/css">
	.st0{fill:#2D2D2D;}
	.st1{fill:none;stroke:#FFFFFF;stroke-width:2.1988;stroke-miterlimit:10;}
	.st2{fill:#E5E5E5;}
	.st3{fill:#FFFFFF;}
	.st4{fill:none;stroke:#2D2D2D;stroke-width:8;stroke-miterlimit:10;}
</style>
<g>
	<path class="st0" d="M196.3,218.2l-5.6,4.7c-3.1,2.6-7.5,2.6-9.6-0.1L106,127.4c-2-2.6-1.2-6.7,1.8-9.2l0,0c3-2.5,7.2-2.6,9.4-0.2
		l80.8,90.7C200.2,211.3,199.5,215.6,196.3,218.2z"/>
	<path class="st1" d="M115.3,141.9c0.9-2.6,2.9-5.5,5.7-7.8s6-3.8,8.7-4.3"/>
	<ellipse transform="matrix(0.7663 -0.6425 0.6425 0.7663 -28.5427 58.404)" class="st2" cx="66" cy="68.4" rx="52.8" ry="52.8"/>
	<path class="st3" d="M67.9,21.3c0,31.2-22.8,57.1-52.6,61.9c-1.4,0.2-2.9,0.4-4.3,0.5c-5.8-20.9,0.7-44.2,18.4-59
		c1.1-0.9,2.2-1.8,3.4-2.6C43,14.6,55.1,11.1,67.1,11.3c0.2,1.4,0.4,2.9,0.5,4.3C67.8,17.5,67.9,19.4,67.9,21.3z"/>
	<path class="st4" d="M102.7,112.2c-19.5,16.3-46.6,17.5-67,4.6c-5-3.1-9.5-7-13.4-11.7c-5.4-6.5-9.2-13.8-11.3-21.4
		c-5.8-20.9,0.7-44.2,18.4-59c1.1-0.9,2.2-1.8,3.4-2.6C43,14.6,55.1,11.1,67.1,11.3c15.9,0.3,31.6,7.3,42.6,20.4
		C130.1,55.9,126.9,92,102.7,112.2z"/>
</g>
</svg>
