<?xml version="1.0" encoding="utf-8"?>
<!-- Generator: Adobe Illustrator 16.0.0, SVG Export Plug-In . SVG Version: 6.00 Build 0)  -->
<!DOCTYPE svg PUBLIC "-//W3C//DTD SVG 1.1//EN" "http://www.w3.org/Graphics/SVG/1.1/DTD/svg11.dtd">
<svg version="1.1" xmlns="http://www.w3.org/2000/svg" xmlns:xlink="http://www.w3.org/1999/xlink" x="0px" y="0px"
	 width="113.477px" height="201.332px" viewBox="86.139 21.223 113.477 201.332"
	 enable-background="new 86.139 21.223 113.477 201.332" xml:space="preserve">
<g id="Layer_3">
	<g>
		<g>
			<path fill="#FFFFFF" d="M88.343,44.418c-0.023,5.729-0.857,11.535-0.048,17.221c0.518,3.635,4.908,2.267,6.677,0.749
				c2.824-2.423,4.252-6.046,3.733-9.694c-0.251-1.766,0.116-3.755,0.202-5.529c0.143-2.917,0.238-5.829,0.25-8.75
				c0.013-3.253-2.733-4.724-5.511-3.182C90.5,36.979,88.357,40.854,88.343,44.418L88.343,44.418z"/>
		</g>
	</g>
	<g>
		<g>
			<path fill="#FFFFFF" d="M88.687,32.417c-4.248,7.855-10.272,16.726-9.594,26.085c0.406,5.609,5.491,3.84,8.168,0.895
				c3.129-3.443,4.75-6.24,6.121-10.704c1.472-4.792,2.141-8.931,2.025-13.945c-0.074-3.224-2.672-4.758-5.511-3.182
				c-3.083,1.711-5.385,5.65-5.303,9.186c0.06,2.572,0.063,4.589-0.72,7.055c-0.463,1.458-2.606,5.328,0.21,1.382
				c-0.615,0.862-1.613,1.61-2.344,2.414c2.723,0.298,5.446,0.597,8.168,0.895c-0.39-5.383,4.141-11.083,6.573-15.582
				c1.223-2.261,2.867-7.005-0.147-8.745C93.405,26.481,89.909,30.156,88.687,32.417L88.687,32.417z"/>
		</g>
	</g>
	<g>
		<g>
			<path fill="#FFFFFF" d="M98.491,26.082c0-0.111,0-0.222,0-0.333c-3.353,2.889-6.706,5.778-10.059,8.667
				c0.539,0.685,1.07,1.367,1.448,2.156c-0.184-0.397-0.369-0.795-0.553-1.192c0.159,0.38,0.27,0.756,0.345,1.16
				c-0.067-0.49-0.135-0.98-0.202-1.471c0.063,0.481,0.068,0.949,0.041,1.434c-0.073,1.277,0.502,2.826,1.657,3.493
				c1.221,0.705,2.707,0.325,3.854-0.312c3.27-1.815,5.096-5.574,5.303-9.186c0.163-2.83-0.877-5.239-2.589-7.413
				c-1.673-2.125-4.422-1.017-6.124,0.444c-2.326,1.996-3.935,5.133-3.935,8.223c0,0.111,0,0.222,0,0.333
				c0,1.304,0.451,2.797,1.657,3.493c1.221,0.705,2.707,0.325,3.854-0.312C96.324,33.526,98.491,29.641,98.491,26.082L98.491,26.082
				z"/>
		</g>
	</g>
	<g>
		<g>
			<path fill="#FFFFFF" d="M97.521,34.517c0.606-0.372,1.258-0.661,1.885-0.995c1.561-0.832,2.87-1.96,4.022-3.292
				c1.249-1.444,2.145-3.359,2.497-5.232c0.265-1.41,0.266-3.102-0.606-4.33c-2.066-2.911-5.831-0.061-7.413,1.769
				c-0.032,0.038-0.064,0.075-0.097,0.112c0.43-0.441,0.859-0.883,1.289-1.325c-0.154,0.155-0.316,0.29-0.492,0.42
				c0.456-0.321,0.912-0.642,1.368-0.963c-0.839,0.575-1.796,0.936-2.661,1.468c-3.056,1.878-5.365,5.525-5.303,9.186
				c0.022,1.312,0.437,2.789,1.657,3.493C94.848,35.511,96.42,35.194,97.521,34.517L97.521,34.517z"/>
		</g>
	</g>
	<g>
		<g>
			<path fill="#FFFFFF" d="M114.997,16.056c-1.411-0.008-2.496,0.303-3.799,0.704c-1.09,0.335-2.31,0.25-3.427,0.496
				c-3.443,0.76-5.927,4.877-6.529,8.08c-0.519,2.765,0.554,6.167,3.987,5.409c0.885-0.195,1.782-0.26,2.681-0.361
				c0.991-0.112,1.877-0.595,2.865-0.724c-0.436,0.039-0.873,0.079-1.309,0.118c0.124,0,0.248,0.001,0.371,0.002
				c3.531,0.021,6.199-3.4,7.335-6.418C117.938,21.323,118.562,16.077,114.997,16.056L114.997,16.056z"/>
		</g>
	</g>
	<g>
		<g>
			<path fill="#FFFFFF" d="M152.414,17.639c-12.444-0.157-24.779-0.957-37.25-0.667c-5.869,0.137-11.529,13.871-5.16,13.723
				c12.471-0.291,24.806,0.51,37.25,0.667C153.127,31.436,158.886,17.72,152.414,17.639L152.414,17.639z"/>
		</g>
	</g>
	<g>
		<g>
			<path fill="#FFFFFF" d="M188.25,18.421c-4.426-2.251-9.897-2.203-14.729-1.728c-7.84,0.771-15.742-0.218-23.607,0.445
				c-3.583,0.302-6.108,3.161-7.335,6.418c-0.676,1.796-1.419,7.607,2.175,7.304c6.555-0.553,13.1-0.211,19.666-0.167
				c5.198,0.036,11.438-1.771,16.33,0.717C186.321,34.246,193.674,21.181,188.25,18.421L188.25,18.421z"/>
		</g>
	</g>
	<g>
		<g>
			<path fill="#FFFFFF" d="M183.265,32.332c1.847,2.323,2.62,3.563,2.196,6.619c-0.438,3.16-0.252,6.297-0.451,9.468
				c-0.208,3.311,2.866,4.65,5.512,3.182c3.282-1.822,5.075-5.57,5.303-9.186c0.242-3.843,0.495-7.735,0.63-11.583
				c0.14-3.985-1.519-6.853-3.885-9.83C188.35,15.694,179.646,27.779,183.265,32.332L183.265,32.332z"/>
		</g>
	</g>
	<g>
		<g>
			<path fill="#FFFFFF" d="M191.193,45.196c-0.863,0.597-1.668,1.264-2.416,2c2.244,1.295,4.487,2.59,6.73,3.886
				c0.027-0.25,0.056-0.5,0.083-0.75c-3.555,1.446-7.11,2.892-10.665,4.337c-0.002,6.648-0.044,13.286-0.583,19.917
				c-0.271,3.327,2.908,4.627,5.511,3.182c3.325-1.846,5.009-5.556,5.304-9.186c0.539-6.63,0.582-13.268,0.583-19.917
				c0.001-2.369-1.613-4.386-4.136-3.742c-3.271,0.834-6.168,4.815-6.529,8.08c-0.027,0.25-0.056,0.5-0.083,0.75
				c-0.506,4.571,2.823,7.414,6.73,3.886c0.747-0.737,1.553-1.403,2.416-2c2.629-1.989,4.654-6.413,3.732-9.694
				C196.879,42.411,193.321,43.587,191.193,45.196L191.193,45.196z"/>
		</g>
	</g>
	<g>
		<g>
			<path fill="#FFFFFF" d="M185.509,77.169c-0.036,3.709-0.656,7.378-0.833,11.083c-0.174,3.628-1.281,7.103-1.25,10.75
				c0.027,3.24,2.705,4.74,5.512,3.182c3.116-1.73,5.333-5.635,5.303-9.186c-0.025-2.944,0.938-6.114,1.197-9.083
				c0.367-4.212,0.845-8.52,0.886-12.75c0.032-3.26-2.746-4.717-5.511-3.182C187.652,69.737,185.544,73.6,185.509,77.169
				L185.509,77.169z"/>
		</g>
	</g>
	<g>
		<g>
			<path fill="#FFFFFF" d="M199.907,91.665c-0.482-9.38,2.977-20.588-0.952-29.471c-3.173-7.173-12.679,3.815-10.41,8.945
				c1.637,3.701,1.488,7.913,0.947,11.863c-0.667,4.875-0.651,9.764-0.399,14.667c0.164,3.19,2.608,4.793,5.511,3.182
				C197.621,99.176,200.088,95.168,199.907,91.665L199.907,91.665z"/>
		</g>
	</g>
	<g>
		<g>
			<path fill="#FFFFFF" d="M131.389,213.298c-4.163-0.031-8.314-0.391-12.478-0.422c-3.53-0.026-6.201,3.405-7.335,6.418
				c-0.769,2.042-1.389,7.278,2.175,7.305c4.163,0.031,8.314,0.391,12.478,0.422c3.53,0.026,6.201-3.405,7.335-6.418
				C134.333,218.561,134.953,213.324,131.389,213.298L131.389,213.298z"/>
		</g>
	</g>
	<g>
		<g>
			<path fill="#FFFFFF" d="M167.979,213.635c-7.454,0.021-14.898,0.267-22.342,0.675c-2.536,0.14-7.562,1.148-9.625-0.529
				c0.485,0.675,0.97,1.349,1.455,2.022c-0.055-0.123-0.11-0.246-0.165-0.369c-2.159,3.739-4.317,7.478-6.476,11.217
				c4.647-0.942,9.899-0.171,14.626-0.221c4.293-0.045,8.646-1.361,12.899-0.253c5.511,1.437,11.87-11.974,5.16-13.723
				c-4.715-1.229-9.814,0.221-14.586,0.271c-5.128,0.055-10.503-0.587-15.558,0.438c-3.811,0.772-8.178,7.4-6.476,11.217
				c2.033,4.56,7.618,3.932,11.887,3.748c8.018-0.344,16.011-0.747,24.04-0.77C168.692,227.341,174.409,213.617,167.979,213.635
				L167.979,213.635z"/>
		</g>
	</g>
	<g>
		<g>
			<path fill="#FFFFFF" d="M107.344,233.765c11.109-0.437,22.615-0.746,33.7,0.12c9.725,0.76,20.506,4.163,30.167,1.533
				c3.448-0.938,5.902-4.743,6.529-8.079c0.493-2.626-0.551-6.345-3.986-5.409c-3.627,0.987-7.73,0.332-11.489,0.186
				c-5.419-0.21-10.673-1.44-16.061-1.953c-11.016-1.049-22.646-0.555-33.699-0.12c-3.561,0.14-6.153,3.28-7.335,6.418
				C104.448,228.376,103.761,233.905,107.344,233.765L107.344,233.765z"/>
		</g>
	</g>
	<g>
		<g>
			<path fill="#FFFFFF" d="M97.896,13.816C80.07,22.683,73.698,43.426,68.245,61.057c-0.71,2.296-1.437,6.964,2.175,7.304
				c3.33,0.313,6.464-3.604,7.335-6.418c3.906-12.63,7.417-29.327,20.349-35.759c3.13-1.557,5.361-5.764,5.303-9.186
				C103.351,13.651,100.746,12.398,97.896,13.816L97.896,13.816z"/>
		</g>
	</g>
	<g>
		<g>
			<path fill="#FFFFFF" d="M121.58,10.639c-6.639-0.035-13.282-0.355-19.809,1.117c-3.444,0.777-5.925,4.864-6.529,8.08
				c-0.517,2.751,0.554,6.183,3.987,5.409c5.672-1.28,11.42-0.913,17.191-0.883C122.293,24.392,128.032,10.672,121.58,10.639
				L121.58,10.639z"/>
		</g>
	</g>
	<g>
		<g>
			<path fill="#FFFFFF" d="M195.374,53.171c-1.007-0.039-1.855-0.099-2.892,0.08c1.378,1.248,2.757,2.495,4.136,3.742
				c-0.106-1.02-0.216-2.032-0.16-3.059c-0.05,0.555-0.101,1.111-0.15,1.666c0.039-0.42,0.104-0.826,0.199-1.237
				c0.619-2.683-0.634-6.264-3.986-5.409c-3.545,0.904-5.768,4.781-6.529,8.08c-0.457,1.98-0.396,3.965-0.188,5.963
				c-0.014,0.965,0.238,1.853,0.755,2.663c0.834,1.174,2.074,1.305,3.381,1.079c0.065-0.011,0.13-0.022,0.195-0.034
				c-0.437,0.039-0.873,0.078-1.31,0.117c0.466-0.018,0.924,0.053,1.389,0.071c3.506,0.135,6.231-3.487,7.335-6.418
				C198.349,58.351,198.921,53.308,195.374,53.171L195.374,53.171z"/>
		</g>
	</g>
	<g>
		<g>
			<path fill="#FFFFFF" d="M100.152,221.835c-2.333-4.04-5.514-7.665-7.394-11.955c-0.124-1.648-0.494-1.865-1.11-0.651
				c0.289-1.012,0.573-2.024,0.854-3.039c0.625-2.244,0.916-4.577,1.174-6.886c1.032-9.226,0.193-18.486-1.281-27.613
				c-1.705-10.547-4.169-20.728-5.09-31.428c-1.007-11.695-2.211-23.678-0.947-35.384c1.114-10.317,2.874-20.464,2.05-30.881
				c-0.935-11.82,1.022-23.699,1.765-35.475c0.284-4.5,0.199-8.855-0.22-13.333c-0.132-1.412-0.366-2.984-0.215-4.401
				c-3.162,3.318-3.457,4.574-0.883,3.767c1.425-0.254,2.909-0.244,4.347-0.4c11.039-1.205,21.514-4.661,32.719-4.795
				c5.872-0.07,11.563-13.799,5.16-13.723c-11.554,0.138-22.493,3.016-33.82,4.864c-4.974,0.812-8.85,0.599-13.032,3.855
				c-4.277,3.33-5.391,9.155-5.274,14.223c0.109,4.743,0.689,9.298,0.5,14.072c-0.246,6.226-0.955,12.432-1.474,18.638
				c-1.06,12.67,0.481,25.239-1.087,37.872c-3.042,24.499-2.137,50.479,3.707,74.574c2.422,9.984,3.624,20.878,2.2,31.096
				c-0.719,5.162-2.274,8.764-0.454,13.993c1.833,5.264,5.746,9.571,8.5,14.34C94.068,238.74,103.089,226.921,100.152,221.835
				L100.152,221.835z"/>
		</g>
	</g>
	<g>
		<g>
			<path fill="#FFFFFF" d="M197.08,14.639c-1.009-0.15-1.984-0.418-2.928-0.804c-1.975,4.136-3.949,8.272-5.924,12.409
				c1.488-0.444,1.751-0.306,2.786,1.097c1.343,1.822,1.755,4.337,2.194,6.499c1.319,6.489,1.123,13.397,0.971,19.983
				c-0.152,6.581-0.704,13.145-0.954,19.722c-0.487,12.837,0.195,25.675,1.367,38.458c0.817,8.919,11.341-0.263,10.814-6.004
				c-1.288-14.051-1.847-28.094-1.211-42.196c0.298-6.625,0.806-13.223,0.859-19.859c0.066-8.224,0.577-35.626-14.284-31.187
				c-3.462,1.034-9.674,8.849-5.924,12.409c2.187,2.075,4.148,2.581,7.072,3.196C197.553,29.547,203.808,16.055,197.08,14.639
				L197.08,14.639z"/>
		</g>
	</g>
	<g>
		<g>
			<path fill="#FFFFFF" d="M196.242,154.335c-3.329,15.347-5.655,31.54-4.964,47.275c0.213,4.839,0.321,9.68,0.002,14.517
				c-0.09,1.356-0.542,3.97-0.734,4.593c-0.487,1.58,0.382-0.278,0.896-0.767c1.298-1.229,1.972-0.485,0.139-0.814
				c0.439,3.037,0.878,6.074,1.317,9.111c-1.492,2.431,1.527-0.108,2.786-0.705c1.863-0.883,3.62-1.994,5.159-3.369
				c4.212-3.763,5.912-9.191,4.862-14.648c-0.685-3.56-4.8-2.359-6.678-0.748c-2.721,2.334-4.42,6.121-3.732,9.693
				c-0.68-3.536,4.181-5.271,0.181-3.295c-1.152,0.568-2.315,1.097-3.446,1.709c-2.959,1.6-5.186,4.027-6.927,6.863
				c-1.549,2.523-2.912,8.352,1.317,9.111c6.243,1.122,10.936-4.724,13.089-9.85c2.486-5.92,2.752-12.635,2.795-18.968
				c0.035-5.16-0.527-10.319-0.318-15.475c0.505-12.423,2.137-24.757,4.772-36.904c0.581-2.681-0.606-6.271-3.986-5.409
				C199.258,147.152,196.958,151.038,196.242,154.335L196.242,154.335z"/>
		</g>
	</g>
	<g>
		<g>
			<path fill="#FFFFFF" d="M89.159,40.919c-0.199,1.391-0.969,2.683-1.114,4.154c-0.241,2.434,0.497,4.653,0.413,7.095
				c-0.212,6.107-0.394,12.228-0.698,18.333c-0.165,3.299,2.837,4.667,5.511,3.182c3.252-1.805,5.124-5.58,5.303-9.186
				c0.276-5.54,0.098-11.114,0.561-16.641c0.178-2.124,0.456-4.483-0.097-6.58c-0.306-1.633-0.447-1.384-0.422,0.749
				c0.548-1.233,0.868-2.443,1.059-3.778c0.379-2.655-0.465-6.307-3.987-5.409C92.344,33.693,89.628,37.641,89.159,40.919
				L89.159,40.919z"/>
		</g>
	</g>
</g>
<g id="Layer_1">
	<g>
		<g>
			<path fill="#FFFFFF" d="M92.543,58.707c0,5.064,0,10.127,0,15.191c0,1.11,1.821,1.424,1.989,0.269
				c0.806-5.52-0.732-11.153,1.013-16.543c-0.663-0.089-1.326-0.179-1.989-0.269c-0.61,15.31,0.622,30.606,0.676,45.915
				c0.004,1.306,2.03,1.307,2.025,0c-0.054-15.309-1.286-30.605-0.676-45.915c0.047-1.183-1.648-1.324-1.989-0.269
				c-1.762,5.442-0.202,10.989-1.013,16.543c0.663,0.089,1.326,0.179,1.989,0.269c0-5.064,0-10.127,0-15.191
				C94.568,57.401,92.543,57.401,92.543,58.707L92.543,58.707z"/>
		</g>
	</g>
	<g>
		<g>
			<path fill="#FFFFFF" d="M95.279,56.412c-1.511,5.562-1.147,11.227-1.388,16.931c-0.307,7.262-1.634,14.536-2.023,21.826
				c0.663-0.09,1.326-0.18,1.989-0.269c-0.508-3.633-0.345-7.222-0.302-10.872c0.012-1.001-1.395-1.392-1.887-0.511
				c-3.252,5.816-1.611,13.788-1.152,20.092c0.067,0.924,1.406,1.485,1.887,0.511c1.809-3.658,2.718-7.521,2.128-11.584
				c-0.112-0.775-1.209-0.943-1.693-0.447c-7.743,7.942-1.397,23.615,3.894,31.274c0.433,0.626,1.72,0.716,1.851-0.242
				c0.501-3.657,0.037-7.061-0.626-10.667c-0.882-4.797-0.413-9.825-1.737-14.517c-0.202-0.716-1.163-1.01-1.693-0.447
				c-4.64,4.927-4.677,12.933-4.348,19.285c0.052,0.999,1.345,1.392,1.887,0.511c2.607-4.231,1.575-9.629,1.827-14.353
				c-0.675,0-1.35,0-2.025,0c-0.15,3.836,0.833,6.887,2.501,10.302c0.573,1.174,2.32,0.146,1.749-1.022
				c-1.528-3.128-2.362-5.766-2.225-9.28c0.051-1.31-1.957-1.297-2.025,0c-0.23,4.315,0.822,9.481-1.55,13.331
				c0.629,0.17,1.258,0.341,1.887,0.511c-0.298-5.775-0.477-13.359,3.755-17.852c-0.564-0.149-1.129-0.298-1.693-0.447
				c0.99,3.506,0.783,7.261,1.144,10.872c0.449,4.494,1.846,8.656,1.219,13.235c0.617-0.081,1.234-0.162,1.851-0.242
				c-4.7-6.805-11.153-21.698-4.21-28.819c-0.564-0.149-1.129-0.298-1.693-0.447c0.508,3.501-0.381,6.903-1.924,10.023
				c0.629,0.17,1.258,0.341,1.887,0.511c-0.426-5.859-2.13-13.695,0.875-19.07c-0.629-0.17-1.258-0.341-1.887-0.511
				c-0.045,3.839-0.159,7.6,0.374,11.41c0.166,1.184,1.932,0.81,1.989-0.269c0.333-6.235,0.894-12.376,1.688-18.568
				c0.841-6.562-0.101-13.201,1.651-19.65C97.576,55.688,95.621,55.152,95.279,56.412L95.279,56.412z"/>
		</g>
	</g>
	<g>
		<g>
			<path fill="#FFFFFF" d="M68.843,145.898c2.295,1.612,4.667,3.107,6.997,4.67c3.625,2.432-1.77-1.685,1.479,1.16
				c0.224,0.195,2.71,3.403,1.324,1.347c1.974,2.928-0.229-1.472,0.957,2.118c0.502,1.521,0.762,3.123,1.043,4.692
				c-0.387-2.165,0.262,3.144,0.23,2.775c0.14,1.621,0.252,3.245,0.384,4.866c0.591,7.262,2.397,14.99,3.066,21.74
				c0.741,7.485,0.308,14.902,2.987,22.092c2.697,7.234,9.492,12.09,17.442,9.902c6.956-1.912,12.605-10.191,9.903-17.441
				c-1.386-3.721-1.473-4.305-1.644-7.604c-0.25-4.821-0.541-9.524-1.241-14.313c-1.121-7.657-2.077-14.82-2.845-22.529
				c-0.909-9.128-3.03-17.339-8.797-24.643c-4.51-5.711-11.109-9.198-16.972-13.319c-6.334-4.453-15.741-1.161-19.4,5.087
				C59.603,133.589,62.534,141.464,68.843,145.898L68.843,145.898z"/>
		</g>
	</g>
	<g>
		<g>
			<path fill="#FFFFFF" d="M103.009,135.343c-0.215-8.713-2.485-17.074-3.959-25.609c-0.4-2.315-0.06-7.154,0.01-10.345
				c0.102-4.735-0.35-9.423-1.284-14.067c-1.524-7.581-10.392-11.843-17.442-9.903c-7.837,2.156-11.426,9.872-9.903,17.442
				c0.972,4.834-0.165,12.707,0.506,18.851c0.872,7.978,3.523,15.888,3.714,23.632c0.19,7.727,6.306,14.18,14.18,14.18
				C96.415,149.521,103.199,143.072,103.009,135.343L103.009,135.343z"/>
		</g>
	</g>
	<g>
		<g>
			<path fill="#FFFFFF" d="M97.438,85.659c0.607,3.761,0.204-2.286,0.248-3.313c0.089-2.11,0.227-4.211,0.242-6.324
				c0.039-5.518-1.173-11.4-4.282-16.032c-4.299-6.404-12.418-9.177-19.4-5.087c-6.354,3.722-9.4,12.975-5.087,19.4
				c0.821,1.373,0.86,1.242,0.118-0.394c0.372,1.581,0.429,1.468,0.174-0.337c0.259,2.056,0.107,4.18,0.01,6.24
				c-0.215,4.618-0.112,8.778,0.632,13.386c1.232,7.641,10.611,11.783,17.442,9.903C95.585,100.887,98.668,93.283,97.438,85.659
				L97.438,85.659z"/>
		</g>
	</g>
	<g>
		<g>
			<path fill="#FFFFFF" d="M192.576,117.89c-9.584,7.459-15.301,18.266-17.524,30.083c-1.176,6.245-1.512,12.073-2.487,18.041
				c-1.282,7.85-2.596,15.715-2.709,23.685c-0.11,7.729,6.533,14.18,14.18,14.18c7.813,0,14.068-6.452,14.18-14.18
				c0.084-5.884,0.758-10.476,1.696-16.146c0.601-3.63,1.146-7.27,1.597-10.921c0.161-1.216,0.303-2.436,0.422-3.654
				c0.004-0.052,0.663-4.936,0.235-2.074c0.338-2.258,0.839-4.481,1.424-6.687c0.235-0.841,0.496-1.673,0.783-2.497
				c1.297-3.923-1.229,2.34,0.603-1.328c0.398-0.76,0.827-1.502,1.286-2.228c2.101-3.47-1.751,1.823,0.987-1.347
				c1.586-1.838,3.475-3.391,5.382-4.875c6.111-4.756,4.956-15.096,0-20.052C206.66,111.921,198.67,113.147,192.576,117.89
				L192.576,117.89z"/>
		</g>
	</g>
	<g>
		<g>
			<path fill="#FFFFFF" d="M170.529,190.035c0.103,4.347,0.701-1.588-0.084,2.646c-0.531,2.861-1.094,5.646-1.42,8.553
				c-0.475,4.214,0.344,8.232,0.49,12.435c0.271,7.724,6.246,14.181,14.18,14.181c7.525,0,14.451-6.451,14.181-14.181
				c-0.127-3.623-0.835-7.17-0.675-10.804c-0.124,1.066-0.036,0.713,0.265-1.063c0.228-1.052,0.435-2.107,0.619-3.167
				c0.526-2.84,0.871-5.715,0.804-8.601c-0.182-7.727-6.313-14.18-14.18-14.18C177.117,175.855,170.348,182.307,170.529,190.035
				L170.529,190.035z"/>
		</g>
	</g>
	<g>
		<g>
			<path fill="#FFFFFF" d="M195.762,104.891c-2.361,3.5,1.781-1.941-0.947,1.276c-0.842,0.991-1.746,1.932-2.635,2.88
				c-1.736,1.853-3.457,3.696-5.025,5.697c-4.977,6.35-8.268,13.334-7.846,21.611c0.322,6.346,4.092,11.937,10.409,13.674
				c7.323,2.015,15.558-2.41,17.442-9.903c2.224-8.838,2.43-18.112,5.738-26.671c-9.283-1.256-18.567-2.513-27.853-3.77
				c-0.08-1.284-0.249-0.964-0.507,0.957c9.284,1.256,18.568,2.513,27.854,3.77c0-0.675,0-1.35,0-2.025
				c0-6.306-4.328-12-10.41-13.673c-7.965-2.191-14.728,2.675-17.442,9.903c1.056-2.806-1.494,3.791-1.688,4.389
				c9.285,1.256,18.568,2.513,27.854,3.77c-0.301-2.892,0.434-5.859,0.675-9.115c1.001-13.527-20.907-20.182-26.423-7.157
				c-1.915,4.522-3.212,8.438-1.43,13.29c2.662,7.248,9.519,12.083,17.441,9.903c6.981-1.92,12.571-10.181,9.903-17.442
				c-0.165-0.428-0.315-0.861-0.45-1.3c-0.477,3.642-0.953,7.284-1.429,10.926c0.149-0.354,0.3-0.709,0.448-1.063
				c-8.808-2.386-17.614-4.771-26.422-7.157c-0.185,2.48-0.988,6.09-0.676,9.115c0.66,6.37,3.852,11.869,10.41,13.673
				c7.698,2.117,15.069-2.555,17.441-9.903c-0.752,2.33,1.447-3.75,1.688-4.389c-9.284-1.256-18.567-2.513-27.853-3.77
				c0,0.675,0,1.35,0,2.025c0,15.889,23.98,19.479,27.853,3.77c0.696-2.825,1.146-5.603,1.521-8.496
				c0.795-6.145-4.917-12.162-10.41-13.673c-8.021-2.206-14.657,2.701-17.442,9.903c-3.31,8.559-3.516,17.833-5.738,26.671
				c9.283,1.257,18.567,2.513,27.853,3.771c-0.086-0.897-0.094-1.795-0.022-2.694c-0.127,3.483,1.308-1.765-0.188,1.325
				c0.378-0.713,0.796-1.401,1.254-2.066c-1.666,2.575,0.584-0.645,0.899-1.002c3.689-4.18,7.498-8.058,10.639-12.713
				c4.328-6.417,1.257-15.684-5.087-19.4C208.168,95.708,200.072,98.497,195.762,104.891L195.762,104.891z"/>
		</g>
	</g>
	<g>
		<g>
			<path fill="#FFFFFF" d="M194.641,111.542c-0.807,0.728-1.611,1.458-2.414,2.189c-0.412,0.375-0.824,0.749-1.236,1.123
				c-0.2,0.182-0.4,0.363-0.602,0.544c2.491-2.048,5.566-2.193,9.227-0.437c1.211,1.211,2.423,2.422,3.634,3.633
				c-0.535-0.759-0.39-0.351,0.438,1.225c-0.11-0.41-0.201-0.824-0.271-1.242c-1.6-8.237-14.966-10.324-18.512-2.419
				c-0.258,0.573-0.545,1.088-0.885,1.616c0.655-1.018,1.736-2.239,3.011-2.496c4.153,4.153,8.306,8.306,12.459,12.458
				c0.659-2.229,1.157-4.167,1.46-6.511c0.094-0.729,0.14-1.376,0.107-2.108c-0.115-2.661,0.676-0.497-0.929,2.131
				c-6.17-2.602-12.341-5.203-18.512-7.804c-0.158,0.955-0.312,1.911-0.452,2.869c-0.805,5.457,1.27,10.862,7.074,12.458
				c4.824,1.328,11.652-1.603,12.459-7.073c0.141-0.958,0.294-1.914,0.451-2.869c0.754-4.551-0.432-8.964-4.653-11.438
				c-4.83-2.829-10.988-1.071-13.856,3.634c-1.5,2.459-2.018,5.249-1.839,8.092c0.044,0.695-0.36,2.284,0.085,0.205
				c-0.221,1.026-0.632,2.026-0.93,3.031c-1.021,3.446,0.089,7.338,2.604,9.854c2.689,2.689,6.241,3.334,9.854,2.605
				c4.315-0.873,8.206-4.477,9.979-8.43c-6.17-0.806-12.342-1.613-18.513-2.419c1.048,5.394,5.601,10.665,11.575,10.117
				c5.82-0.532,9.409-4.519,13.507-8.214c4.101-3.699,3.751-10.572,0-14.323C204.912,107.489,198.736,107.847,194.641,111.542
				L194.641,111.542z"/>
		</g>
	</g>
	<g>
		<g>
			<path fill="#FFFFFF" d="M177.994,129.751c-0.178,1.174-0.557,2.302-0.756,3.472c6.633,0.897,13.265,1.795,19.896,2.692
				c0.03-1.923,0.423-3.813,0.453-5.737c0.087-5.521-4.673-10.128-10.128-10.128c-5.587,0-10.041,4.608-10.128,10.128
				c-0.03,1.924-0.423,3.814-0.453,5.737c-0.071,4.493,3.144,8.586,7.437,9.767c2.613,0.719,5.465,0.35,7.805-1.021
				c2.074-1.216,4.234-3.588,4.654-6.054c0.197-1.17,0.576-2.297,0.754-3.471c0.427-2.82,0.479-5.244-1.021-7.805
				c-1.325-2.264-3.521-3.958-6.053-4.655c-2.614-0.719-5.465-0.349-7.806,1.021C180.607,124.894,178.363,127.301,177.994,129.751
				L177.994,129.751z"/>
		</g>
	</g>
	<g>
		<g>
			<path fill="#FFFFFF" d="M177.729,133.736c-0.394,0.505-0.869,0.949-1.357,1.358c-0.527,0.685-1.057,1.367-1.583,2.05
				c-0.916,1.58-1.377,3.285-1.384,5.112c0,2.677,1.076,5.271,2.967,7.162c1.893,1.892,4.486,2.966,7.162,2.966
				c0.896-0.119,1.795-0.24,2.691-0.361c1.717-0.48,3.207-1.35,4.471-2.604c0.488-0.411,0.965-0.855,1.357-1.359
				c0.527-0.684,1.057-1.367,1.584-2.05c0.916-1.579,1.377-3.284,1.383-5.112c0-2.676-1.076-5.271-2.967-7.162
				c-1.892-1.891-4.486-2.965-7.162-2.965c-0.896,0.119-1.795,0.24-2.691,0.36C180.482,131.613,178.993,132.48,177.729,133.736
				L177.729,133.736z"/>
		</g>
	</g>
	<g>
		<g>
			<path fill="#FFFFFF" d="M173.104,151.77c0,0.201,0,0.403,0,0.604c6.752,0,13.504,0,20.256,0c-0.051-0.604-0.101-1.208-0.15-1.813
				c-0.456-5.5-4.262-10.127-10.128-10.127c-5.252,0-10.483,4.611-10.128,10.127c0.098,1.521,0.251,2.56-0.243,3.951
				c6.632,0.897,13.265,1.795,19.896,2.692c-0.129-1.054-0.18-2.11-0.15-3.171c-0.148-13.065-20.049-13.057-20.256,0
				c-0.028,1.76-0.178,2.915-0.696,4.556c6.632,0.897,13.265,1.795,19.896,2.692c0.004,0.229-0.002-3.686-0.211-2.141
				c-6.511,0-13.021,0-19.533,0c-0.268-1.787-0.205,2.547-0.191,2.268c-0.063,1.283-0.369,2.425-0.714,3.673
				c6.632,0.897,13.265,1.795,19.896,2.692c-0.252-2.366-0.557-4.728-0.965-7.071c-1.822-10.433-16.8-8.892-19.533,0
				c-1.398,4.547-1.306,9.313-1.269,14.019c0.103,13.057,20.358,13.065,20.256,0c-0.022-2.906-0.313-5.846,0.546-8.634
				c-6.512,0-13.022,0-19.533,0c0.229,0.524,0.31,1.088,0.242,1.687c0.483,4.551,2.74,8.477,7.436,9.768
				c5.324,1.464,10.99-1.756,12.459-7.074c1.525-5.525,1.752-11.076,0.906-16.709c-1.451-9.654-18.211-9.771-19.533,0
				c-0.346,2.559-0.553,4.954-0.514,7.524c0.183,11.614,16.463,13.556,19.896,2.692c1.015-3.213,1.366-6.582,1.419-9.94
				c-6.752,0-13.504,0-20.256,0c-0.029,1.062,0.021,2.118,0.15,3.171c0.985,11.465,15.987,13.697,19.895,2.691
				c1.059-2.983,1.168-6.199,0.966-9.336c-6.752,0-13.504,0-20.256,0c0.05,0.604,0.101,1.209,0.149,1.813
				c1.064,12.832,20.256,13.235,20.256,0c0-0.201,0-0.403,0-0.604C193.357,138.707,173.104,138.707,173.104,151.77L173.104,151.77z"
				/>
		</g>
	</g>
	<g>
		<g>
			<path fill="#FFFFFF" d="M209.052,90.755c-6.321-0.107-12.631,0.8-18.848,1.871c-5.446,0.938-8.429,7.536-7.074,12.459
				c1.57,5.708,7.022,8.011,12.459,7.074c4.134-0.712,8.45-1.232,13.463-1.147c5.521,0.094,10.128-4.678,10.128-10.128
				C219.18,95.292,214.57,90.849,209.052,90.755L209.052,90.755z"/>
		</g>
	</g>
	<g>
		<g>
			<path fill="#FFFFFF" d="M184.289,174.253c0.688-0.496,1.283-0.329,1.788,0.5c0.868,1.49,1.735,2.979,2.604,4.47
				c0.25,0.889,0.351,0.596,0.299-0.882c-6.752,0-13.504,0-20.256,0c-0.094,5.3-0.813,10.556-0.904,15.854
				c-0.109,6.201,0.93,12.357,0.755,18.57c-0.367,13.07,19.89,13.034,20.256,0c0.157-5.591-0.49-11.135-0.726-16.714
				c-0.25-5.913,0.771-11.805,0.875-17.712c0.099-5.521-4.681-10.128-10.127-10.128c-5.932,0-9.588,4.636-10.129,10.128
				c-0.988,10.041,6.563,15.023,15.563,16.168c5.491,0.699,10.128-5.136,10.128-10.128
				C194.417,178.333,189.766,174.949,184.289,174.253L184.289,174.253z"/>
		</g>
	</g>
	<g>
		<g>
			<path fill="#FFFFFF" d="M183.939,222.758c-0.682-2.063-1.127-4.184-1.963-6.191c-3.256,4.273-6.512,8.548-9.768,12.82
				c8.977-0.431,15.023-8.555,14.96-17.224c-0.04-5.521-4.576-10.128-10.128-10.128c-5.49,0-10.169,4.605-10.128,10.128
				c-0.019,1.032,0.06,0.676,0.229-1.071c-0.107,0.686-0.916,2.532,0.226-0.04c-0.185,0.384-0.396,0.75-0.638,1.101
				c1.24-1.967,2.992-2.901,5.479-3.021c-5.874,0.281-12.441,6.402-9.768,12.82c0.838,2.008,1.283,4.13,1.963,6.19
				c1.729,5.238,6.936,8.594,12.459,7.074C181.984,233.809,185.67,228.002,183.939,222.758L183.939,222.758z"/>
		</g>
	</g>
	<g>
		<g>
			<path fill="#FFFFFF" d="M105.446,229.779c2.81-1.127,4.674-2.223,6.942-4.288c1.065-0.972,2.011-2.062,3.148-2.953
				c-0.683,0.526-1.367,1.056-2.05,1.583c0.089-0.064,0.178-0.129,0.267-0.193c2.22-1.607,3.902-3.318,4.655-6.053
				c0.482-1.795,0.482-3.59,0-5.385c-0.481-1.717-1.35-3.206-2.605-4.471c-1.901-1.474-3.177-2.371-5.527-3.058
				c-5.298-1.547-11.013,1.815-12.459,7.074c-1.481,5.384,1.778,10.912,7.074,12.459c0.195,0.058,0.39,0.112,0.585,0.169
				c-0.807-0.34-1.613-0.682-2.419-1.021c0.081,0.035,0.162,0.07,0.243,0.106c-0.683-0.528-1.366-1.056-2.05-1.584
				c0.076,0.06,0.153,0.118,0.229,0.178c0.683-5.303,1.367-10.604,2.05-15.907c-1.371,0.994-2.687,2.008-3.892,3.187
				c-0.78,0.763-1.531,1.547-2.375,2.239c0.683-0.526,1.367-1.055,2.05-1.582c-0.44,0.338-0.885,0.631-1.385,0.873
				c0.807-0.34,1.613-0.682,2.419-1.021c-0.095,0.038-0.191,0.076-0.286,0.114c-2.563,1.026-4.605,2.183-6.053,4.653
				c-1.37,2.341-1.74,5.19-1.021,7.806c0.697,2.532,2.391,4.728,4.655,6.053C99.766,230.004,103.059,230.736,105.446,229.779
				L105.446,229.779z"/>
		</g>
	</g>
	<g>
		<g>
			<path fill="#FFFFFF" d="M117.05,212.037c-0.905-3.171-0.437-6.568-0.696-9.84c-0.349-4.401-0.992-8.705-1.056-13.137
				c-0.186-13.055-20.198-13.069-20.256,0c-0.006,1.316-0.048,2.611-0.151,3.926c-0.35,4.44,3.349,8.643,7.436,9.767
				c5.748,1.581,10.444-1.938,12.459-7.073c1.922-4.9,1.136-9.691,0.452-14.746c-0.742-5.482-7.683-8.389-12.459-7.074
				c-5.851,1.608-7.814,6.992-7.074,12.459c0.229,1.693,0.159,2.421-0.452,3.977c6.632,0.896,13.263,1.795,19.895,2.691
				c0.104-1.313,0.146-2.607,0.151-3.926c-6.752,0-13.504,0-20.256,0c0.07,4.933,0.787,9.746,1.175,14.647
				c0.369,4.653-0.005,9.144,1.299,13.714C101.096,229.961,120.643,224.625,117.05,212.037L117.05,212.037z"/>
		</g>
	</g>
	<g>
		<g>
			<path fill="#FFFFFF" d="M110.519,190.182c1.551-1.627,2.762-3.375,3.393-5.563c0.313-1.087,0.368-2.21,0.722-3.286
				c-6.632-0.897-13.263-1.795-19.895-2.692c0.05,0.604,0.101,1.209,0.151,1.813c0.459,5.5,4.259,10.128,10.128,10.128
				c5.228,0,10.516-4.614,10.128-10.128c-0.13-1.861-0.171-3.726-0.302-5.587c-0.111-1.59-0.417-3.119-0.798-4.655
				c-0.693-2.793-0.276,1.573-0.108-1.233c-6.752,0-13.504,0-20.256,0c0.179,1.646,0.033,3.141,0.462,4.818
				c0.979,3.83,3.706,6.602,7.427,7.817c2.988,0.977,6.309,0.61,9.031-0.983c3.668-2.148,5.016-5.813,5.45-9.84
				c0.463-4.298-3.418-8.816-7.436-9.768c-0.248-0.064-0.5-0.114-0.754-0.15c-5.433-0.948-10.891,1.375-12.459,7.074
				c-1.356,4.933,1.63,11.508,7.074,12.459c0.254,0.035,0.505,0.086,0.754,0.15c-2.479-3.256-4.957-6.511-7.436-9.767
				c-0.023,0.211-0.046,0.421-0.068,0.632c0.989-2.387,1.978-4.773,2.966-7.162c-0.122,0.154-0.244,0.309-0.365,0.463
				c1.49-0.867,2.979-1.736,4.469-2.604c-0.188,0.061-0.376,0.119-0.563,0.179c1.795,0,3.59,0,5.385,0
				c-0.221-0.071-0.442-0.146-0.663-0.217c1.49,0.868,2.979,1.735,4.469,2.604c-0.078-0.093-0.155-0.185-0.233-0.275
				c0.868,1.49,1.736,2.979,2.604,4.47c0.794,3.104,0.25,1.085,0.142,0.099c-0.599-5.485-4.154-10.127-10.128-10.127
				c-5.771,0-9.797,4.619-10.128,10.127c-0.155,2.574,0.458,5.115,1.075,7.601c-0.512-2.062-0.033,0.735-0.018,1.082
				c0.039,0.933,0.085,1.862,0.151,2.794c6.752,0,13.504,0,20.256,0c-0.05-0.604-0.101-1.208-0.151-1.813
				c-0.379-4.545-2.816-8.496-7.436-9.768c-5.521-1.52-10.735,1.835-12.459,7.074c-0.166,0.41-0.274,0.837-0.325,1.277
				c-0.46,2.479-0.646,0.801,1.42-1.369c-3.805,3.996-3.973,10.352,0,14.324C100.027,194.012,106.712,194.18,110.519,190.182
				L110.519,190.182z"/>
		</g>
	</g>
	<g>
		<g>
			<path fill="#FFFFFF" d="M111.197,170.768c2.835-4.431,2.75-9.213,1.34-14.109c-0.786-2.73-0.642-7.733-1.225-11.359
				c-0.879-5.458-7.581-8.416-12.459-7.074c-5.752,1.582-7.951,7.015-7.074,12.459c0.277,1.723,0.159,4.438,0.395,6.519
				c0.188,1.668,0.407,3.233,0.831,4.842c0.659,2.499,0.205-0.724,0.702-1.499c-2.979,4.655-0.982,11.153,3.634,13.857
				C102.248,177.275,108.227,175.408,111.197,170.768L111.197,170.768z"/>
		</g>
	</g>
	<g>
		<g>
			<path fill="#FFFFFF" d="M108.443,139.409c-0.302-0.974-0.648-1.921-1.003-2.876c-0.896-2.41-0.383,1.299-0.297-1.379
				c-6.752,0-13.504,0-20.256,0c0,0.906,0,1.813,0,2.72c6.291-1.704,12.582-3.408,18.874-5.112c0.42,0.719,0.434,0.489,0.042-0.689
				c0.121,0.837,0.106,0.619-0.047-0.652c-0.209-1.984-0.457-3.966-0.938-5.902c-6.511,1.795-13.022,3.59-19.533,5.385
				c0.051,0.201,0.101,0.402,0.151,0.604c1.091,4.355,5.342,7.436,9.767,7.436c5.729,0,9.853-4.615,10.128-10.127
				c0.166-3.312-0.52-6.515-2.289-9.34c-2.923-4.671-8.986-6.487-13.857-3.634c-4.652,2.726-6.564,9.174-3.634,13.857
				c-0.323-0.518-0.352-3.383-0.476-0.883c6.631-0.897,13.263-1.795,19.895-2.692c-0.051-0.202-0.101-0.403-0.151-0.604
				c-1.341-5.354-7.232-8.512-12.459-7.074c-5.42,1.491-8.403,7.105-7.074,12.458c0.241,1.209,0.313,1.382,0.215,0.519
				c0.204,1.647,0.364,3.284,0.607,4.931c0.353,2.396,1.182,4.408,2.162,6.635c1.802,4.091,7.441,5.755,11.438,4.654
				c4.345-1.195,7.436-5.263,7.436-9.767c0-0.906,0-1.813,0-2.72c0-5.521-4.607-10.127-10.128-10.127
				c-5.656,0-9.95,4.611-10.128,10.127c-0.112,3.473,1.024,6.414,2.022,9.64c1.632,5.271,7.01,8.573,12.459,7.074
				C106.563,150.439,110.076,144.684,108.443,139.409L108.443,139.409z"/>
		</g>
	</g>
	<g>
		<g>
			<path fill="#FFFFFF" d="M78.919,70.065c5.898,2.733,11.144,2.967,16.35-1.433c-5.302-4.091-10.604-8.182-15.907-12.273
				c-1.632,3.31-2.658,6.66-2.289,10.396c0.361,3.658,1.703,6.805,5.016,8.746c3.731,2.186,9.304,1.808,12.273-1.584
				c0.264-0.339,0.566-0.642,0.906-0.906c-5.763-2.387-11.526-4.774-17.29-7.162c0.231,3.93-0.109,7.847-0.15,11.777
				c-0.058,5.521,4.651,10.128,10.128,10.128c5.565,0,10.07-4.608,10.128-10.128c0.042-3.931,0.382-7.847,0.15-11.777
				c-0.53-9.001-10.541-13.163-17.29-7.162c-0.34,0.264-0.642,0.566-0.906,0.906c5.763,2.387,11.526,4.774,17.29,7.162
				c-0.188-1.906-0.109-0.917-0.476-0.172c5.199-10.542-7.063-19.747-15.907-12.273c-0.178,0.15-0.355,0.3-0.533,0.45
				c1.49-0.868,2.979-1.736,4.469-2.604c1.54-0.448,2.96-0.308,4.261,0.419c-5.009-2.321-10.873-1.461-13.857,3.634
				C72.697,60.626,73.91,67.743,78.919,70.065L78.919,70.065z"/>
		</g>
	</g>
	<g>
		<g>
			<path fill="#FFFFFF" d="M78.735,77.928c-0.033,3.282-0.434,6.54-0.604,9.814C77.842,93.26,82.956,97.87,88.259,97.87
				c5.739,0,9.84-4.617,10.128-10.128c0.171-3.275,0.572-6.533,0.604-9.814C99.047,72.407,94.342,67.8,88.863,67.8
				C83.3,67.799,78.791,72.408,78.735,77.928L78.735,77.928z"/>
		</g>
	</g>
	<g>
		<g>
			<path fill="#FFFFFF" d="M80.455,103.873c-0.273-1.93-0.122,1.732-0.121,1.692c-0.01,1.158-0.052,2.315-0.059,3.474
				c-0.016,2.71,0.334,5.562,1.235,8.122c3.202,9.091,16.819,10.206,19.533,0c0.929-3.495,0.807-6.561,0-10.065
				c-1.006-4.365-5.407-7.436-9.767-7.436c-5.749,0-9.828,4.618-10.128,10.128c-0.125,2.285-0.025,4.64,0.823,6.792
				c0.34,0.807,0.681,1.613,1.021,2.419c-0.296-0.866-0.254-0.696,0.127,0.509c0.573,1.901,1.301,3.698,2.13,5.508
				c2.301,5.02,9.454,6.213,13.857,3.633c5.11-2.994,5.934-8.837,3.634-13.856c0.444,0.97-0.643-2.329-0.792-2.713
				c-1.084-2.695-1.331-3.238-0.738-1.628c0.812,2.059,0.12,0.682,0.193-0.663c-6.631,0.897-13.263,1.795-19.895,2.692
				c0.047-0.235,0.047-0.469,0-0.704c6.511,0,13.022,0,19.533,0c-0.763-2.166-0.542-2.24-0.48-5.055
				c0.062-2.811-0.18-5.437-0.575-8.232c-0.775-5.477-7.658-8.396-12.459-7.074C81.703,93.017,79.682,98.411,80.455,103.873
				L80.455,103.873z"/>
		</g>
	</g>
	<g>
		<g>
			<path fill="#FFFFFF" d="M191.883,111.035c-1.277,0.044-2.572,0.224-3.813,0.544c-0.453,0.117-0.896,0.245-1.361,0.309
				c0.896-0.12,1.795-0.241,2.691-0.361c-0.215,0.019-0.422,0.023-0.639,0.016c-5.521-0.206-10.129,4.763-10.129,10.128
				c0,2.675,1.075,5.271,2.967,7.162c1.948,1.949,4.441,2.865,7.162,2.966c1.316,0.049,2.646-0.203,3.932-0.484
				c0.507-0.111,0.992-0.279,1.507-0.358c-0.897,0.121-1.796,0.241-2.693,0.362c0.125-0.018,0.251-0.025,0.377-0.025
				c2.718-0.095,5.218-1.021,7.162-2.966c1.892-1.892,2.966-4.486,2.966-7.162C202.011,115.788,197.402,110.842,191.883,111.035
				L191.883,111.035z"/>
		</g>
	</g>
	<path fill="#040000" fill-opacity="0.1" stroke="#000000" stroke-width="2.0256" stroke-miterlimit="10" d="M108.477,136.453
		c3.599,13.924,6.706,25.947,7.568,44.542c0.229,5.198,0.345,18.294,0.377,25.192c0,4.571,2.489,6.619,4.959,6.619h41.133
		c2.483,0,4.986-2.048,4.986-6.601c0.077-16.063,0.248-22.565,0.378-25.204c0.863-18.632,3.974-30.675,7.575-44.618
		c2.703-10.467,5.768-22.329,8.201-38.604c1.867-12.624,1.609-49.834,1.486-60.893c0-1.172-0.33-2.328-0.897-3.255
		c-1.147-1.988-3.216-3.174-5.532-3.174h-73.5c-3.55,0-6.385,2.789-6.456,6.429c0,0.376,0.001,0.821-0.028,1.461
		c-0.128,13.926-0.234,47.598,1.541,59.436C102.697,114.088,105.768,125.971,108.477,136.453z"/>
	<path fill="#8E8E8E" d="M140.82,212.807"/>
	<path fill="#8E8E8E" d="M139.609,93.479"/>
	<path fill="none" stroke="#FFFFFF" stroke-width="5.4017" stroke-miterlimit="10" d="M155.052,207.92
		c0.077-16.063,0.247-22.564,0.378-25.204c0.863-18.632,3.973-30.675,7.574-44.618c2.704-10.467,5.768-22.329,8.202-38.603
		c1.868-12.625,1.608-37.005,1.485-48.063"/>
	<path fill="none" stroke="#FFFFFF" stroke-width="2.0256" stroke-miterlimit="10" d="M123.101,204.916
		c0.123-11.059,0.383-35.438-1.485-48.063c-2.436-16.273-5.499-28.137-8.202-38.604c-3.602-13.943-6.712-25.986-7.575-44.618
		c-0.13-2.64-0.301-9.142-0.377-25.204"/>
	<path fill="#FFFFFF" stroke="#000000" stroke-width="2.0256" stroke-miterlimit="10" d="M185.195,59.157
		c0.086-11.701-0.019-18.879-0.055-22.269c0-1.172-0.33-2.328-0.897-3.255c-1.147-1.988-3.216-3.174-5.532-3.174h-73.5
		c-3.55,0-6.385,2.789-6.456,6.429c0,0.376,0.001,0.821-0.028,1.461c-0.047,5.089-0.09,12.813-0.041,21.145"/>
	<line fill="none" stroke="#000000" stroke-width="2" stroke-miterlimit="10" x1="99" y1="60" x2="185" y2="60"/>
</g>
<g id="Layer_2">
</g>
</svg>
