<?xml version="1.0" encoding="utf-8"?>
<!-- Generator: Adobe Illustrator 16.0.0, SVG Export Plug-In . SVG Version: 6.00 Build 0)  -->
<!DOCTYPE svg PUBLIC "-//W3C//DTD SVG 1.1//EN" "http://www.w3.org/Graphics/SVG/1.1/DTD/svg11.dtd">
<svg version="1.1" id="Layer_1" xmlns="http://www.w3.org/2000/svg" xmlns:xlink="http://www.w3.org/1999/xlink" x="0px" y="0px"
	 width="222px" height="104px" viewBox="0 0 222 104" enable-background="new 0 0 222 104" xml:space="preserve">
<g>
	<path d="M38.816,11.747l-6.787,5.989c-2.383-3.316-4.809-4.975-7.279-4.975c-1.202,0-2.186,0.322-2.95,0.966
		c-0.766,0.644-1.147,1.369-1.147,2.176c0,0.808,0.272,1.571,0.819,2.291c0.743,0.961,2.983,3.022,6.721,6.187
		c3.497,2.924,5.617,4.768,6.36,5.53c1.857,1.877,3.175,3.672,3.951,5.385c0.775,1.713,1.164,3.583,1.164,5.612
		c0,3.95-1.366,7.212-4.096,9.786c-2.73,2.575-6.291,3.862-10.682,3.862c-3.429,0-6.416-0.841-8.961-2.521
		c-2.544-1.68-4.724-4.32-6.536-7.92l7.703-4.647c2.316,4.255,4.982,6.382,7.998,6.382c1.573,0,2.896-0.458,3.966-1.375
		c1.071-0.916,1.606-1.974,1.606-3.175c0-1.09-0.404-2.181-1.213-3.272c-0.809-1.091-2.59-2.76-5.344-5.008
		c-5.246-4.276-8.634-7.576-10.164-9.9c-1.53-2.323-2.295-4.642-2.295-6.955c0-3.338,1.272-6.201,3.817-8.591
		S21.154,3.99,24.89,3.99c2.403,0,4.691,0.557,6.865,1.669C33.929,6.772,36.282,8.802,38.816,11.747z"/>
	<path d="M82.28,24.937l-7.438,4.092c-1.398-1.462-2.78-2.477-4.146-3.044s-2.966-0.852-4.801-0.852
		c-3.342,0-6.046,0.997-8.109,2.99c-2.064,1.993-3.097,4.548-3.097,7.663c0,3.028,0.993,5.501,2.981,7.418s4.599,2.876,7.832,2.876
		c3.998,0,7.11-1.364,9.339-4.092l7.045,4.824c-3.818,4.967-9.208,7.449-16.168,7.449c-6.263,0-11.166-1.854-14.711-5.563
		c-3.547-3.709-5.319-8.052-5.319-13.026c0-3.447,0.862-6.622,2.586-9.524c1.724-2.901,4.129-5.182,7.217-6.84
		c3.087-1.658,6.54-2.487,10.358-2.487c3.535,0,6.71,0.703,9.524,2.11C78.189,20.339,80.491,22.341,82.28,24.937z"/>
	<path d="M107.057,16.82c3.359,0,6.518,0.84,9.475,2.52c2.956,1.681,5.264,3.961,6.922,6.841s2.487,5.989,2.487,9.327
		c0,3.36-0.834,6.503-2.504,9.427c-1.669,2.924-3.943,5.209-6.823,6.856c-2.881,1.647-6.055,2.471-9.524,2.471
		c-5.105,0-9.464-1.816-13.075-5.449s-5.417-8.046-5.417-13.239c0-5.563,2.04-10.199,6.121-13.909
		C98.296,18.435,102.409,16.82,107.057,16.82z M107.203,25.231c-2.775,0-5.087,0.966-6.934,2.896s-2.771,4.402-2.771,7.413
		c0,3.099,0.913,5.607,2.738,7.527c1.824,1.921,4.136,2.881,6.934,2.881c2.797,0,5.125-0.971,6.982-2.913s2.787-4.44,2.787-7.495
		s-0.913-5.536-2.737-7.446C112.378,26.187,110.045,25.231,107.203,25.231z"/>
	<path d="M149.964,16.82c3.36,0,6.519,0.84,9.475,2.52c2.957,1.681,5.264,3.961,6.923,6.841c1.657,2.88,2.487,5.989,2.487,9.327
		c0,3.36-0.835,6.503-2.504,9.427s-3.944,5.209-6.824,6.856s-6.055,2.471-9.523,2.471c-5.106,0-9.465-1.816-13.075-5.449
		c-3.612-3.633-5.417-8.046-5.417-13.239c0-5.563,2.04-10.199,6.12-13.909C141.203,18.435,145.316,16.82,149.964,16.82z
		 M150.111,25.231c-2.776,0-5.088,0.966-6.934,2.896c-1.848,1.931-2.771,4.402-2.771,7.413c0,3.099,0.912,5.607,2.737,7.527
		c1.824,1.921,4.136,2.881,6.934,2.881s5.125-0.971,6.983-2.913c1.857-1.942,2.786-4.44,2.786-7.495s-0.912-5.536-2.737-7.446
		C155.285,26.187,152.952,25.231,150.111,25.231z"/>
	<path d="M185.017,17.736v3.928c1.614-1.614,3.359-2.825,5.236-3.633c1.876-0.808,3.884-1.211,6.022-1.211
		c4.647,0,8.596,1.757,11.848,5.27c3.251,3.513,4.876,8.019,4.876,13.517c0,5.302-1.68,9.736-5.04,13.305
		c-3.36,3.567-7.343,5.351-11.946,5.351c-2.051,0-3.96-0.365-5.728-1.097c-1.767-0.73-3.523-1.925-5.269-3.583v16.789h-8.87V17.736
		H185.017z M194.409,25.067c-2.814,0-5.149,0.961-7.004,2.881s-2.782,4.43-2.782,7.527c0,3.164,0.928,5.723,2.782,7.675
		c1.854,1.953,4.189,2.93,7.004,2.93c2.728,0,5.024-0.993,6.89-2.979s2.798-4.517,2.798-7.594c0-3.054-0.916-5.558-2.749-7.511
		C199.515,26.045,197.202,25.067,194.409,25.067z"/>
</g>
<g>
	<path d="M9.786,94.646V78.795h1.471v6.381c0.616-0.758,1.306-1.322,2.069-1.697c0.763-0.375,1.599-0.563,2.509-0.563
		c1.617,0,2.998,0.586,4.142,1.76c1.145,1.174,1.717,2.598,1.717,4.273c0,1.653-0.578,3.064-1.733,4.235
		c-1.155,1.171-2.544,1.755-4.168,1.755c-0.931,0-1.774-0.199-2.53-0.599c-0.756-0.399-1.425-0.999-2.006-1.798v2.103H9.786z
		 M15.672,93.521c0.818,0,1.573-0.202,2.265-0.605c0.692-0.402,1.243-0.969,1.651-1.697c0.409-0.729,0.614-1.499,0.614-2.313
		c0-0.813-0.207-1.587-0.619-2.322c-0.413-0.736-0.966-1.309-1.662-1.719s-1.438-0.615-2.229-0.615
		c-0.804,0-1.567,0.205-2.291,0.615s-1.279,0.962-1.667,1.655c-0.388,0.694-0.582,1.476-0.582,2.345c0,1.324,0.435,2.432,1.306,3.32
		C13.328,93.076,14.399,93.521,15.672,93.521z"/>
	<path d="M34.003,90.852l1.24,0.651c-0.407,0.799-0.877,1.443-1.41,1.935c-0.533,0.49-1.133,0.863-1.799,1.119
		s-1.42,0.383-2.262,0.383c-1.866,0-3.324-0.611-4.376-1.834s-1.578-2.604-1.578-4.146c0-1.45,0.445-2.743,1.336-3.879
		c1.129-1.443,2.641-2.164,4.534-2.164c1.95,0,3.507,0.738,4.671,2.217c0.828,1.045,1.249,2.348,1.263,3.91h-10.29
		c0.028,1.328,0.453,2.418,1.273,3.268c0.821,0.849,1.834,1.273,3.041,1.273c0.583,0,1.149-0.102,1.7-0.304
		c0.55-0.202,1.019-0.472,1.405-0.806C33.136,92.139,33.554,91.598,34.003,90.852z M34.003,87.771
		c-0.197-0.785-0.482-1.412-0.858-1.881c-0.375-0.47-0.872-0.848-1.489-1.136c-0.617-0.287-1.266-0.431-1.947-0.431
		c-1.123,0-2.087,0.361-2.894,1.082c-0.589,0.525-1.035,1.314-1.336,2.365H34.003z"/>
	<path d="M47.993,90.852l1.24,0.651c-0.407,0.799-0.877,1.443-1.41,1.935c-0.533,0.49-1.133,0.863-1.799,1.119
		s-1.42,0.383-2.262,0.383c-1.866,0-3.324-0.611-4.376-1.834s-1.578-2.604-1.578-4.146c0-1.45,0.445-2.743,1.336-3.879
		c1.129-1.443,2.641-2.164,4.534-2.164c1.95,0,3.507,0.738,4.671,2.217c0.828,1.045,1.249,2.348,1.263,3.91h-10.29
		c0.028,1.328,0.453,2.418,1.273,3.268c0.821,0.849,1.834,1.273,3.041,1.273c0.583,0,1.149-0.102,1.7-0.304
		c0.55-0.202,1.019-0.472,1.405-0.806C47.126,92.139,47.543,91.598,47.993,90.852z M47.993,87.771
		c-0.197-0.785-0.482-1.412-0.858-1.881c-0.375-0.47-0.872-0.848-1.489-1.136c-0.617-0.287-1.266-0.431-1.947-0.431
		c-1.123,0-2.087,0.361-2.894,1.082c-0.589,0.525-1.035,1.314-1.336,2.365H47.993z"/>
	<path d="M51.797,83.21H53.3v1.671c0.449-0.658,0.921-1.15,1.419-1.477s1.016-0.488,1.556-0.488c0.406,0,0.841,0.129,1.303,0.389
		l-0.767,1.24c-0.309-0.133-0.567-0.199-0.778-0.199c-0.491,0-0.963,0.201-1.419,0.604c-0.456,0.403-0.802,1.029-1.041,1.877
		c-0.182,0.65-0.273,1.969-0.273,3.951v3.868h-1.503V83.21z"/>
	<path d="M70.538,84.461l-0.946,0.977c-0.787-0.764-1.556-1.145-2.308-1.145c-0.478,0-0.887,0.157-1.228,0.473
		c-0.341,0.314-0.511,0.684-0.511,1.104c0,0.371,0.14,0.725,0.421,1.062c0.281,0.343,0.871,0.746,1.77,1.208
		c1.095,0.568,1.839,1.115,2.233,1.641c0.386,0.532,0.579,1.131,0.579,1.797c0,0.939-0.33,1.734-0.99,2.387
		c-0.66,0.65-1.484,0.977-2.474,0.977c-0.66,0-1.29-0.144-1.89-0.431s-1.096-0.683-1.489-1.188l0.925-1.052
		c0.751,0.849,1.549,1.272,2.392,1.272c0.59,0,1.092-0.189,1.506-0.567c0.415-0.379,0.622-0.824,0.622-1.335
		c0-0.421-0.137-0.796-0.411-1.125c-0.274-0.322-0.892-0.729-1.854-1.22c-1.032-0.531-1.734-1.057-2.106-1.576
		c-0.372-0.518-0.558-1.11-0.558-1.775c0-0.869,0.296-1.592,0.89-2.166c0.593-0.574,1.342-0.861,2.248-0.861
		C68.411,82.916,69.471,83.431,70.538,84.461z"/>
	<path d="M82.772,90.852l1.24,0.651c-0.407,0.799-0.877,1.443-1.41,1.935c-0.533,0.49-1.133,0.863-1.799,1.119
		s-1.42,0.383-2.262,0.383c-1.866,0-3.324-0.611-4.376-1.834s-1.578-2.604-1.578-4.146c0-1.45,0.445-2.743,1.336-3.879
		c1.129-1.443,2.641-2.164,4.534-2.164c1.95,0,3.507,0.738,4.671,2.217c0.828,1.045,1.249,2.348,1.263,3.91h-10.29
		c0.028,1.328,0.453,2.418,1.273,3.268c0.821,0.849,1.834,1.273,3.041,1.273c0.583,0,1.149-0.102,1.7-0.304
		c0.55-0.202,1.019-0.472,1.405-0.806C81.906,92.139,82.323,91.598,82.772,90.852z M82.772,87.771
		c-0.197-0.785-0.482-1.412-0.858-1.881c-0.375-0.47-0.872-0.848-1.489-1.136c-0.617-0.287-1.266-0.431-1.947-0.431
		c-1.123,0-2.087,0.361-2.894,1.082c-0.589,0.525-1.035,1.314-1.336,2.365H82.772z"/>
	<path d="M98.528,83.21v11.436h-1.45V92.68c-0.617,0.75-1.309,1.314-2.076,1.692c-0.767,0.378-1.606,0.567-2.517,0.567
		c-1.619,0-3.001-0.586-4.146-1.76c-1.146-1.174-1.719-2.602-1.719-4.283c0-1.646,0.578-3.055,1.734-4.226
		c1.156-1.17,2.547-1.755,4.173-1.755c0.939,0,1.789,0.199,2.549,0.599s1.428,0.999,2.002,1.798V83.21H98.528z M92.647,84.334
		c-0.819,0-1.575,0.201-2.268,0.604c-0.693,0.402-1.244,0.968-1.653,1.695c-0.41,0.728-0.614,1.498-0.614,2.31
		c0,0.805,0.207,1.575,0.619,2.311c0.413,0.734,0.968,1.307,1.664,1.716s1.444,0.614,2.242,0.614c0.805,0,1.568-0.203,2.289-0.609
		s1.275-0.955,1.664-1.648c0.388-0.692,0.583-1.473,0.583-2.341c0-1.323-0.436-2.429-1.307-3.317
		C94.994,84.779,93.921,84.334,92.647,84.334z"/>
	<path d="M101.281,83.21h1.503v1.671c0.449-0.658,0.921-1.15,1.419-1.477s1.016-0.488,1.556-0.488c0.406,0,0.841,0.129,1.303,0.389
		l-0.767,1.24c-0.309-0.133-0.567-0.199-0.778-0.199c-0.491,0-0.963,0.201-1.419,0.604c-0.456,0.403-0.802,1.029-1.041,1.877
		c-0.182,0.65-0.273,1.969-0.273,3.951v3.868h-1.503V83.21z"/>
	<path d="M119.412,85.586l-1.167,0.725c-1.008-1.338-2.383-2.008-4.126-2.008c-1.393,0-2.549,0.448-3.47,1.344
		c-0.92,0.896-1.38,1.984-1.38,3.266c0,0.833,0.211,1.617,0.635,2.352c0.423,0.734,1.004,1.305,1.743,1.711s1.566,0.609,2.483,0.609
		c1.68,0,3.051-0.669,4.115-2.008l1.167,0.768c-0.546,0.823-1.28,1.461-2.202,1.916c-0.922,0.453-1.971,0.68-3.148,0.68
		c-1.808,0-3.308-0.574-4.499-1.724c-1.191-1.149-1.787-2.547-1.787-4.193c0-1.107,0.279-2.136,0.836-3.085
		c0.557-0.949,1.322-1.69,2.296-2.223c0.974-0.533,2.063-0.799,3.269-0.799c0.757,0,1.487,0.115,2.192,0.346
		c0.704,0.232,1.301,0.533,1.792,0.904C118.652,84.538,119.069,85.011,119.412,85.586z"/>
	<path d="M122.24,78.795h1.472v6.465c0.595-0.785,1.25-1.372,1.965-1.761c0.715-0.39,1.489-0.583,2.323-0.583
		c0.854,0,1.613,0.217,2.275,0.651s1.15,1.018,1.466,1.75s0.474,1.88,0.474,3.442v5.886h-1.473V89.19
		c0-1.317-0.052-2.196-0.156-2.638c-0.184-0.758-0.514-1.326-0.994-1.709c-0.48-0.381-1.109-0.572-1.887-0.572
		c-0.89,0-1.687,0.295-2.391,0.883c-0.704,0.589-1.168,1.317-1.393,2.187c-0.14,0.561-0.21,1.597-0.21,3.11v4.194h-1.472V78.795z"/>
	<path d="M150.955,90.852l1.24,0.651c-0.406,0.799-0.877,1.443-1.41,1.935c-0.533,0.49-1.133,0.863-1.799,1.119
		s-1.42,0.383-2.262,0.383c-1.865,0-3.324-0.611-4.377-1.834c-1.052-1.223-1.578-2.604-1.578-4.146c0-1.45,0.445-2.743,1.336-3.879
		c1.13-1.443,2.641-2.164,4.535-2.164c1.949,0,3.506,0.738,4.67,2.217c0.828,1.045,1.249,2.348,1.264,3.91h-10.291
		c0.028,1.328,0.453,2.418,1.273,3.268c0.821,0.849,1.835,1.273,3.041,1.273c0.583,0,1.149-0.102,1.7-0.304
		c0.55-0.202,1.019-0.472,1.405-0.806C150.088,92.139,150.506,91.598,150.955,90.852z M150.955,87.771
		c-0.197-0.785-0.482-1.412-0.857-1.881c-0.376-0.47-0.872-0.848-1.49-1.136c-0.617-0.287-1.266-0.431-1.946-0.431
		c-1.122,0-2.087,0.361-2.894,1.082c-0.59,0.525-1.035,1.314-1.337,2.365H150.955z"/>
	<path d="M155.316,83.21h1.473v2.05c0.588-0.785,1.24-1.372,1.954-1.761c0.715-0.39,1.493-0.583,2.333-0.583
		c0.855,0,1.613,0.217,2.276,0.651c0.662,0.435,1.151,1.02,1.466,1.755c0.315,0.736,0.473,1.882,0.473,3.438v5.886h-1.471V89.19
		c0-1.317-0.055-2.196-0.164-2.638c-0.17-0.758-0.498-1.326-0.98-1.709c-0.484-0.381-1.115-0.572-1.893-0.572
		c-0.891,0-1.688,0.295-2.392,0.883c-0.704,0.589-1.169,1.317-1.394,2.187c-0.14,0.567-0.209,1.604-0.209,3.11v4.194h-1.473V83.21z"
		/>
	<path d="M178.304,83.21h1.472v9.112c0,1.605-0.141,2.779-0.42,3.521c-0.386,1.051-1.055,1.86-2.008,2.428
		c-0.953,0.568-2.1,0.852-3.438,0.852c-0.98,0-1.861-0.139-2.643-0.416c-0.782-0.277-1.418-0.65-1.908-1.117
		c-0.49-0.469-0.942-1.151-1.355-2.051h1.598c0.435,0.757,0.996,1.316,1.684,1.682c0.688,0.364,1.539,0.547,2.557,0.547
		c1.004,0,1.851-0.188,2.541-0.561c0.691-0.374,1.185-0.844,1.479-1.409c0.295-0.565,0.442-1.479,0.442-2.739V92.47
		c-0.554,0.7-1.231,1.239-2.03,1.613c-0.8,0.375-1.648,0.563-2.547,0.563c-1.052,0-2.041-0.261-2.967-0.783
		s-1.641-1.224-2.146-2.107c-0.504-0.883-0.757-1.853-0.757-2.911s0.263-2.045,0.789-2.959s1.253-1.638,2.183-2.17
		c0.93-0.533,1.91-0.799,2.941-0.799c0.855,0,1.653,0.177,2.393,0.53c0.74,0.354,1.454,0.938,2.142,1.75V83.21z M173.963,84.334
		c-0.834,0-1.607,0.202-2.322,0.605c-0.715,0.402-1.275,0.959-1.682,1.67c-0.407,0.712-0.61,1.48-0.61,2.308
		c0,1.255,0.421,2.292,1.261,3.111c0.842,0.819,1.932,1.229,3.27,1.229c1.352,0,2.439-0.406,3.264-1.219
		c0.823-0.813,1.234-1.882,1.234-3.206c0-0.862-0.188-1.631-0.566-2.308c-0.379-0.676-0.915-1.21-1.609-1.602
		C175.508,84.531,174.762,84.334,173.963,84.334z"/>
	<path d="M183.438,78.501c0.336,0,0.621,0.119,0.858,0.357s0.356,0.525,0.356,0.862c0,0.329-0.119,0.613-0.356,0.852
		s-0.522,0.357-0.858,0.357c-0.328,0-0.609-0.119-0.848-0.357c-0.236-0.238-0.355-0.522-0.355-0.852
		c0-0.337,0.119-0.624,0.355-0.862C182.828,78.62,183.109,78.501,183.438,78.501z M182.707,83.21h1.473v11.436h-1.473V83.21z"/>
	<path d="M187.238,83.21h1.471v2.05c0.589-0.785,1.24-1.372,1.955-1.761c0.715-0.39,1.492-0.583,2.334-0.583
		c0.854,0,1.613,0.217,2.275,0.651s1.15,1.02,1.466,1.755c0.315,0.736,0.474,1.882,0.474,3.438v5.886h-1.473V89.19
		c0-1.317-0.055-2.196-0.163-2.638c-0.171-0.758-0.497-1.326-0.981-1.709c-0.482-0.381-1.113-0.572-1.892-0.572
		c-0.89,0-1.688,0.295-2.392,0.883c-0.705,0.589-1.169,1.317-1.393,2.187c-0.141,0.567-0.211,1.604-0.211,3.11v4.194h-1.471V83.21z"
		/>
	<path d="M209.994,90.852l1.24,0.651c-0.407,0.799-0.877,1.443-1.41,1.935c-0.533,0.49-1.133,0.863-1.799,1.119
		c-0.667,0.256-1.421,0.383-2.262,0.383c-1.866,0-3.324-0.611-4.377-1.834s-1.578-2.604-1.578-4.146c0-1.45,0.445-2.743,1.336-3.879
		c1.129-1.443,2.641-2.164,4.534-2.164c1.95,0,3.507,0.738,4.671,2.217c0.828,1.045,1.248,2.348,1.263,3.91h-10.29
		c0.027,1.328,0.453,2.418,1.273,3.268c0.82,0.849,1.834,1.273,3.041,1.273c0.582,0,1.148-0.102,1.699-0.304s1.02-0.472,1.405-0.806
		C209.127,92.139,209.545,91.598,209.994,90.852z M209.994,87.771c-0.197-0.785-0.482-1.412-0.858-1.881
		c-0.376-0.47-0.872-0.848-1.489-1.136c-0.617-0.287-1.266-0.431-1.947-0.431c-1.122,0-2.086,0.361-2.894,1.082
		c-0.589,0.525-1.034,1.314-1.337,2.365H209.994z"/>
</g>
</svg>
