<?xml version="1.0" encoding="utf-8"?>
<!-- Generator: Adobe Illustrator 21.0.0, SVG Export Plug-In . SVG Version: 6.00 Build 0)  -->
<svg version="1.0" id="Layer_1" xmlns="http://www.w3.org/2000/svg" xmlns:xlink="http://www.w3.org/1999/xlink" x="0px" y="0px"
	 viewBox="0 0 935.6 596.3" style="enable-background:new 0 0 935.6 596.3;" xml:space="preserve">
<style type="text/css">
	.st0{fill:#FFFFFF;}
	.st1{fill:#2D2D2D;}
	.st2{opacity:0.12;enable-background:new    ;}
	.st3{fill:#161616;}
	.st4{fill:none;stroke:#2D2D2D;stroke-width:4.3704;stroke-miterlimit:10;}
	.st5{opacity:0.12;}
	.st6{fill:#020202;}
</style>
<g>
	<g>
		<g>
			<path class="st0" d="M828.2,582.1H104c-52.4,0-94.9-42.5-94.9-94.9v-382c0-52.4,42.5-94.9,94.9-94.9h724.2
				c52.4,0,94.9,42.5,94.9,94.9v382C923.1,539.6,880.6,582.1,828.2,582.1z"/>
		</g>
	</g>
	<g>
		<g>
			<path class="st1" d="M828.2,582.5H104c-52.6,0-95.4-42.8-95.4-95.4v-382C8.6,52.6,51.4,9.8,104,9.8h724.2
				c52.6,0,95.4,42.8,95.4,95.4v382C923.6,539.8,880.8,582.5,828.2,582.5z M104,10.8c-52.1,0-94.4,42.3-94.4,94.4v382
				c0,52.1,42.3,94.4,94.4,94.4h724.2c52.1,0,94.4-42.3,94.4-94.4v-382c0-52.1-42.3-94.4-94.4-94.4H104z"/>
		</g>
	</g>
</g>
<g>
	<g>
		<g>
			<path d="M187.6,170.3c1,7,2.9,12.3,5.9,15.7c5.3,6.3,14.4,9.5,27.4,9.5c7.7,0,14-0.8,18.8-2.5c9.2-3.2,13.7-9.1,13.7-17.8
				c0-5.1-2.2-9-6.7-11.8c-4.5-2.7-11.6-5.1-21.3-7.2l-16.6-3.6c-16.4-3.6-27.6-7.5-33.7-11.8c-10.4-7.1-15.5-18.2-15.5-33.3
				c0-13.8,5.1-25.2,15.2-34.3c10.1-9.1,25-13.7,44.6-13.7c16.4,0,30.4,4.3,41.9,12.9c11.6,8.6,17.6,21,18.2,37.4h-30.9
				c-0.6-9.2-4.7-15.8-12.4-19.7c-5.1-2.6-11.5-3.9-19.1-3.9c-8.5,0-15.2,1.7-20.3,5c-5.1,3.3-7.6,8-7.6,14c0,5.5,2.5,9.6,7.5,12.3
				c3.2,1.8,10,3.9,20.4,6.4l27,6.4c11.8,2.8,20.7,6.5,26.6,11.2c9.2,7.2,13.7,17.7,13.7,31.4c0,14-5.4,25.7-16.3,35
				s-26.2,13.9-46,13.9c-20.2,0-36.1-4.6-47.7-13.7c-11.6-9.1-17.4-21.7-17.4-37.7H187.6z"/>
		</g>
	</g>
	<g>
		<g>
			<path d="M372.5,144.9c-0.6-4.2-2-8.1-4.3-11.5c-3.3-4.6-8.5-6.9-15.6-6.9c-10,0-16.9,5-20.6,14.9c-2,5.3-2.9,12.3-2.9,21
				c0,8.3,1,15,2.9,20.1c3.6,9.5,10.2,14.2,20.1,14.2c7,0,11.9-1.9,14.8-5.6s4.7-8.6,5.3-14.6h30.3c-0.7,9-4,17.6-9.8,25.6
				c-9.3,13-23.1,19.5-41.4,19.5c-18.3,0-31.8-5.4-40.4-16.3c-8.6-10.8-12.9-24.9-12.9-42.2c0-19.5,4.8-34.7,14.3-45.5
				c9.5-10.8,22.7-16.3,39.4-16.3c14.3,0,25.9,3.2,35,9.6c9.1,6.4,14.5,17.7,16.1,33.9H372.5z"/>
		</g>
	</g>
	<g>
		<g>
			<path d="M518,203.9c-9.6,11.8-24.2,17.8-43.7,17.8c-19.5,0-34.1-5.9-43.7-17.8c-9.6-11.8-14.4-26.1-14.4-42.8
				c0-16.4,4.8-30.6,14.4-42.6c9.6-12,24.1-18,43.7-18c19.5,0,34.1,6,43.7,18c9.6,12,14.4,26.2,14.4,42.6
				C532.4,177.8,527.6,192,518,203.9z M494.2,187.4c4.7-6.2,7-15,7-26.3c0-11.4-2.3-20.1-7-26.3c-4.7-6.1-11.3-9.2-20-9.2
				c-8.7,0-15.4,3.1-20.1,9.2c-4.7,6.1-7,14.9-7,26.3c0,11.4,2.3,20.2,7,26.3c4.7,6.2,11.4,9.3,20.1,9.3
				C482.9,196.7,489.6,193.6,494.2,187.4z"/>
		</g>
	</g>
	<g>
		<g>
			<path d="M648.4,203.9c-9.6,11.8-24.2,17.8-43.7,17.8c-19.5,0-34.1-5.9-43.7-17.8c-9.6-11.8-14.4-26.1-14.4-42.8
				c0-16.4,4.8-30.6,14.4-42.6c9.6-12,24.1-18,43.7-18c19.5,0,34.1,6,43.7,18s14.4,26.2,14.4,42.6C662.8,177.8,658,192,648.4,203.9z
				 M624.6,187.4c4.7-6.2,7-15,7-26.3c0-11.4-2.3-20.1-7-26.3c-4.7-6.1-11.3-9.2-20-9.2s-15.4,3.1-20.1,9.2c-4.7,6.1-7,14.9-7,26.3
				c0,11.4,2.3,20.2,7,26.3c4.7,6.2,11.4,9.3,20.1,9.3S620,193.6,624.6,187.4z"/>
		</g>
	</g>
	<g>
		<g>
			<path d="M779.6,116.3c9.3,9.8,13.9,24.2,13.9,43.2c0,20-4.5,35.3-13.6,45.8c-9.1,10.5-20.7,15.7-35,15.7
				c-9.1,0-16.6-2.3-22.7-6.8c-3.3-2.5-6.5-6.2-9.7-10.9v59.2h-29.4V104.1h28.5v16.8c3.2-4.9,6.6-8.8,10.3-11.7
				c6.6-5.1,14.5-7.6,23.7-7.6C759,101.6,770.3,106.5,779.6,116.3z M756.8,137.7c-4-6.7-10.6-10.1-19.6-10.1
				c-10.9,0-18.4,5.1-22.4,15.3c-2.1,5.4-3.2,12.3-3.2,20.6c0,13.2,3.5,22.5,10.6,27.8c4.2,3.1,9.2,4.7,15,4.7
				c8.4,0,14.7-3.2,19.1-9.6c4.4-6.4,6.6-14.9,6.6-25.5C762.9,152.2,760.8,144.4,756.8,137.7z"/>
		</g>
	</g>
</g>
<g>
	<g>
		<g>
			<path d="M150.5,532.7l9-22.9h2.4l8.8,22.9h-2.2l-2.6-7.2h-10.4l-2.7,7.2H150.5z M156.2,523.6h9l-4.5-12L156.2,523.6z"/>
		</g>
	</g>
	<g>
		<g>
			<path d="M183.5,527.5c0.3,1.4,0.8,2.4,1.6,3c0.8,0.6,1.9,0.9,3.3,0.9c0.7,0,1.3-0.1,1.8-0.3c0.5-0.2,0.9-0.4,1.3-0.7
				c0.3-0.3,0.6-0.6,0.7-1c0.2-0.4,0.3-0.7,0.3-1.1c0-0.8-0.3-1.4-0.8-1.8c-0.5-0.4-1.2-0.7-2-0.9c-0.8-0.2-1.6-0.4-2.5-0.6
				c-0.9-0.2-1.8-0.4-2.5-0.7c-0.8-0.3-1.4-0.8-2-1.4c-0.5-0.6-0.8-1.4-0.8-2.5c0-1.4,0.5-2.5,1.5-3.4c1-0.9,2.4-1.3,4.3-1.3
				c1.8,0,3.2,0.4,4.3,1.2c1.1,0.8,1.8,2.1,2,4h-1.9c-0.2-1.3-0.7-2.2-1.4-2.7c-0.8-0.5-1.8-0.8-3-0.8c-1.2,0-2.1,0.3-2.8,0.8
				c-0.6,0.5-1,1.2-1,2c0,0.7,0.3,1.3,0.8,1.7c0.5,0.4,1.2,0.7,2,1c0.8,0.2,1.6,0.5,2.5,0.7c0.9,0.2,1.8,0.5,2.5,0.8
				c0.8,0.3,1.4,0.8,2,1.4c0.5,0.6,0.8,1.4,0.8,2.5c0,0.8-0.2,1.5-0.5,2.1s-0.8,1.1-1.4,1.5s-1.3,0.7-2.1,0.9
				c-0.8,0.2-1.7,0.3-2.7,0.3c-1,0-1.8-0.1-2.6-0.4c-0.8-0.3-1.4-0.7-1.9-1.2c-0.5-0.5-0.9-1.1-1.2-1.8c-0.3-0.7-0.5-1.4-0.5-2.2
				H183.5z"/>
		</g>
	</g>
	<g>
		<g>
			<path d="M199.5,524.9c0,0.9,0.1,1.7,0.3,2.5c0.2,0.8,0.6,1.5,1,2.1c0.5,0.6,1,1,1.7,1.4c0.7,0.3,1.5,0.5,2.4,0.5
				c1.2,0,2.3-0.3,3.2-1c0.9-0.7,1.5-1.6,1.8-2.8h2.1c-0.2,0.8-0.5,1.5-0.9,2.2c-0.4,0.7-0.9,1.2-1.4,1.7c-0.6,0.5-1.3,0.9-2,1.2
				c-0.8,0.3-1.7,0.4-2.7,0.4c-1.3,0-2.4-0.2-3.4-0.7c-1-0.4-1.7-1.1-2.4-1.8c-0.6-0.8-1.1-1.7-1.4-2.7c-0.3-1-0.4-2.2-0.4-3.4
				s0.2-2.3,0.5-3.4s0.8-2,1.5-2.8c0.6-0.8,1.4-1.4,2.4-1.9c0.9-0.5,2-0.7,3.2-0.7c2.3,0,4,0.8,5.3,2.3c1.3,1.6,1.9,3.8,1.9,6.8
				H199.5z M210.2,523.3c0-0.8-0.1-1.6-0.3-2.3c-0.2-0.7-0.6-1.3-1-1.8c-0.4-0.5-1-0.9-1.6-1.2c-0.7-0.3-1.4-0.5-2.3-0.5
				c-0.8,0-1.6,0.2-2.2,0.5c-0.6,0.3-1.2,0.7-1.7,1.3c-0.5,0.5-0.8,1.1-1.1,1.8s-0.5,1.4-0.5,2.2H210.2z"/>
		</g>
	</g>
	<g>
		<g>
			<path d="M217.6,532.7h-1.9v-16.5h1.9v2.5h0.1c0.5-1,1.2-1.7,2.1-2.2c0.9-0.5,1.9-0.7,3-0.7c0.8,0,1.4,0.1,1.9,0.3
				c0.5,0.2,1,0.4,1.4,0.7s0.7,0.6,0.9,1c0.2,0.4,0.4,0.8,0.6,1.2c0.6-1.1,1.3-1.9,2.2-2.4c0.9-0.5,2-0.8,3.2-0.8
				c1.1,0,2,0.2,2.7,0.6c0.7,0.4,1.2,0.9,1.5,1.5c0.4,0.6,0.6,1.3,0.7,2.1c0.1,0.8,0.2,1.6,0.2,2.4v10.4h-1.9v-11.4
				c0-1.2-0.2-2.1-0.7-2.8c-0.5-0.7-1.4-1-2.8-1c-0.7,0-1.4,0.2-2,0.5c-0.6,0.3-1.2,0.8-1.7,1.4c-0.2,0.3-0.4,0.6-0.5,1
				c-0.1,0.4-0.2,0.8-0.3,1.2c-0.1,0.4-0.1,0.8-0.2,1.2c0,0.4,0,0.8,0,1.1v8.9h-1.9v-11.4c0-1.2-0.2-2.1-0.7-2.8
				c-0.5-0.7-1.4-1-2.8-1c-0.7,0-1.4,0.2-2,0.5c-0.6,0.3-1.2,0.8-1.7,1.4c-0.2,0.3-0.4,0.6-0.5,1c-0.1,0.4-0.2,0.8-0.3,1.2
				c-0.1,0.4-0.1,0.8-0.2,1.2s0,0.8,0,1.1V532.7z"/>
		</g>
	</g>
	<g>
		<g>
			<path d="M250,523.1c0.4,0,0.8-0.1,1.3-0.2c0.5-0.1,0.9-0.2,1.2-0.3c0.3-0.1,0.5-0.4,0.6-0.7c0.1-0.3,0.1-0.7,0.1-1
				c0-1-0.3-1.8-0.9-2.4c-0.6-0.6-1.7-0.9-3.2-0.9c-0.7,0-1.3,0.1-1.8,0.2c-0.6,0.1-1,0.3-1.4,0.6c-0.4,0.3-0.8,0.7-1,1.1
				c-0.3,0.5-0.4,1.1-0.5,1.8h-1.9c0.1-1,0.3-1.8,0.7-2.5s0.9-1.2,1.5-1.7s1.3-0.8,2.1-1c0.8-0.2,1.6-0.3,2.5-0.3
				c0.8,0,1.6,0.1,2.3,0.3s1.4,0.5,1.9,0.9c0.5,0.4,1,0.9,1.3,1.6c0.3,0.7,0.5,1.5,0.5,2.4v9c0,0.7,0.1,1.2,0.4,1.4
				c0.3,0.2,0.8,0.2,1.6-0.1v1.5c-0.1,0-0.4,0.1-0.7,0.2c-0.3,0.1-0.6,0.1-0.8,0.1c-0.3,0-0.6,0-0.9-0.1c-0.3,0-0.6-0.1-0.8-0.3
				c-0.2-0.2-0.3-0.3-0.5-0.6c-0.1-0.2-0.2-0.5-0.2-0.7c0-0.3-0.1-0.5-0.1-0.8c-0.8,0.9-1.7,1.6-2.8,2c-1,0.5-2.2,0.7-3.4,0.7
				c-0.7,0-1.4-0.1-2.1-0.3c-0.7-0.2-1.3-0.5-1.8-0.9c-0.5-0.4-0.9-0.9-1.2-1.5c-0.3-0.6-0.4-1.3-0.4-2.1c0-2.8,1.9-4.4,5.8-5
				L250,523.1z M253.2,524c-0.8,0.3-1.6,0.6-2.4,0.7c-0.8,0.1-1.7,0.2-2.5,0.3c-1.5,0.1-2.6,0.4-3.4,1c-0.8,0.6-1.2,1.4-1.2,2.5
				c0,0.5,0.1,0.9,0.3,1.3c0.2,0.4,0.5,0.7,0.8,0.9c0.3,0.2,0.7,0.4,1.1,0.5c0.4,0.1,0.9,0.2,1.3,0.2c0.8,0,1.5-0.1,2.2-0.3
				c0.7-0.2,1.4-0.5,1.9-0.9c0.6-0.4,1-0.9,1.4-1.5c0.3-0.6,0.5-1.3,0.5-2.1V524z"/>
		</g>
	</g>
	<g>
		<g>
			<path d="M262,532.7h-1.9v-16.5h1.9v2.3c0.8-0.8,1.6-1.5,2.4-2c0.8-0.5,1.8-0.8,2.9-0.8c1,0,2,0.2,2.8,0.5c0.9,0.3,1.6,1,2.2,1.8
				c0.4,0.6,0.6,1.2,0.7,1.8s0.1,1.3,0.1,2v10.8h-1.9v-10.7c0-1.5-0.3-2.6-1-3.3c-0.7-0.7-1.7-1.1-3.3-1.1c-0.6,0-1.1,0.1-1.6,0.3
				c-0.5,0.2-0.9,0.4-1.3,0.7c-0.4,0.3-0.7,0.6-1,1c-0.3,0.4-0.5,0.8-0.6,1.2c-0.2,0.5-0.3,1-0.3,1.5c0,0.5-0.1,1-0.1,1.6V532.7z"/>
		</g>
	</g>
	<g>
		<g>
			<path d="M283.6,532.7c-0.2,0-0.5,0.1-0.9,0.2c-0.4,0.1-0.8,0.2-1.3,0.2c-1,0-1.7-0.2-2.2-0.7c-0.5-0.5-0.7-1.3-0.7-2.6v-12h-2.3
				v-1.6h2.3v-4.6h1.9v4.6h3.1v1.6h-3.1v11.3c0,0.4,0,0.8,0,1c0,0.3,0.1,0.5,0.2,0.7s0.3,0.3,0.5,0.4c0.2,0.1,0.5,0.1,0.9,0.1
				c0.3,0,0.5,0,0.8-0.1c0.3,0,0.5-0.1,0.8-0.2V532.7z"/>
		</g>
	</g>
	<g>
		<g>
			<path d="M286.8,512.6v-2.8h2.1v2.8H286.8z M286.9,532.7v-16.5h1.9v16.5H286.9z"/>
		</g>
	</g>
	<g>
		<g>
			<path d="M305.3,521.4c-0.3-1.2-0.9-2.2-1.7-2.9c-0.8-0.7-1.9-1-3.1-1c-1,0-1.8,0.2-2.5,0.6s-1.3,0.9-1.7,1.6
				c-0.4,0.7-0.8,1.4-1,2.3c-0.2,0.8-0.3,1.7-0.3,2.5c0,0.9,0.1,1.7,0.3,2.5c0.2,0.8,0.5,1.6,1,2.2c0.4,0.7,1,1.2,1.7,1.6
				c0.7,0.4,1.5,0.6,2.5,0.6c1.4,0,2.6-0.4,3.4-1.2c0.9-0.8,1.4-1.9,1.6-3.2h2c-0.2,0.9-0.4,1.7-0.8,2.5c-0.4,0.8-0.8,1.4-1.4,1.9
				c-0.6,0.5-1.3,1-2.1,1.3s-1.7,0.4-2.8,0.4c-1.3,0-2.4-0.2-3.4-0.7c-1-0.4-1.7-1.1-2.4-1.8c-0.6-0.8-1.1-1.7-1.4-2.7
				s-0.4-2.2-0.4-3.4c0-1.1,0.2-2.2,0.5-3.3c0.3-1,0.8-2,1.4-2.8c0.6-0.8,1.4-1.4,2.4-1.9c0.9-0.5,2-0.7,3.3-0.7
				c1.9,0,3.4,0.5,4.6,1.4s1.9,2.3,2.2,4.3H305.3z"/>
		</g>
	</g>
	<g>
		<g>
			<path d="M318.9,523.1c0.4,0,0.8-0.1,1.3-0.2c0.5-0.1,0.9-0.2,1.2-0.3c0.3-0.1,0.5-0.4,0.6-0.7c0.1-0.3,0.1-0.7,0.1-1
				c0-1-0.3-1.8-0.9-2.4c-0.6-0.6-1.7-0.9-3.2-0.9c-0.7,0-1.3,0.1-1.8,0.2c-0.6,0.1-1,0.3-1.4,0.6c-0.4,0.3-0.8,0.7-1,1.1
				c-0.3,0.5-0.4,1.1-0.5,1.8h-1.9c0.1-1,0.3-1.8,0.7-2.5s0.9-1.2,1.5-1.7s1.3-0.8,2.1-1c0.8-0.2,1.6-0.3,2.5-0.3
				c0.8,0,1.6,0.1,2.3,0.3s1.4,0.5,1.9,0.9c0.5,0.4,1,0.9,1.3,1.6c0.3,0.7,0.5,1.5,0.5,2.4v9c0,0.7,0.1,1.2,0.4,1.4
				c0.3,0.2,0.8,0.2,1.6-0.1v1.5c-0.1,0-0.4,0.1-0.7,0.2c-0.3,0.1-0.6,0.1-0.8,0.1c-0.3,0-0.6,0-0.9-0.1c-0.3,0-0.6-0.1-0.8-0.3
				c-0.2-0.2-0.3-0.3-0.5-0.6c-0.1-0.2-0.2-0.5-0.2-0.7c0-0.3-0.1-0.5-0.1-0.8c-0.8,0.9-1.7,1.6-2.8,2c-1,0.5-2.2,0.7-3.4,0.7
				c-0.7,0-1.4-0.1-2.1-0.3c-0.7-0.2-1.3-0.5-1.8-0.9c-0.5-0.4-0.9-0.9-1.2-1.5c-0.3-0.6-0.4-1.3-0.4-2.1c0-2.8,1.9-4.4,5.8-5
				L318.9,523.1z M322.1,524c-0.8,0.3-1.6,0.6-2.4,0.7c-0.8,0.1-1.7,0.2-2.5,0.3c-1.5,0.1-2.6,0.4-3.4,1c-0.8,0.6-1.2,1.4-1.2,2.5
				c0,0.5,0.1,0.9,0.3,1.3c0.2,0.4,0.5,0.7,0.8,0.9c0.3,0.2,0.7,0.4,1.1,0.5c0.4,0.1,0.9,0.2,1.3,0.2c0.8,0,1.5-0.1,2.2-0.3
				c0.7-0.2,1.4-0.5,1.9-0.9c0.6-0.4,1-0.9,1.4-1.5c0.3-0.6,0.5-1.3,0.5-2.1V524z"/>
		</g>
	</g>
	<g>
		<g>
			<path d="M329.3,532.7v-22.9h1.9v22.9H329.3z"/>
		</g>
	</g>
	<g>
		<g>
			<path d="M336.3,532.7v-22.9h1.9v22.9H336.3z"/>
		</g>
	</g>
	<g>
		<g>
			<path d="M343,537.1c0.3,0,0.5,0.1,0.8,0.1c0.3,0,0.5,0.1,0.8,0.1c0.5,0,1-0.2,1.3-0.5c0.3-0.3,0.6-0.7,0.8-1.2
				c0.2-0.5,0.4-1,0.6-1.5c0.1-0.5,0.3-1,0.5-1.3l-6.4-16.6h2.1l5.3,14.1l5.3-14.1h2.1l-6.1,16.2c-0.4,1-0.7,2-1.1,2.8
				s-0.7,1.5-1.1,2.1s-0.8,1-1.3,1.3c-0.5,0.3-1,0.5-1.7,0.5c-0.3,0-0.7,0-1-0.1c-0.3,0-0.6-0.1-0.8-0.2V537.1z"/>
		</g>
	</g>
	<g>
		<g>
			<path d="M366,523.4v2h-8v-2H366z"/>
		</g>
	</g>
	<g>
		<g>
			<path d="M382.3,516.2h1.9v14.9c0,1.1-0.1,2.2-0.3,3.2c-0.2,1-0.6,1.9-1.2,2.7c-0.6,0.8-1.4,1.4-2.4,1.8c-1,0.5-2.3,0.7-3.8,0.7
				c-1.2,0-2.2-0.2-3.1-0.5c-0.9-0.3-1.6-0.7-2.1-1.2c-0.6-0.5-1-1-1.3-1.5s-0.4-1.1-0.5-1.6h2c0.1,0.6,0.4,1.1,0.7,1.5
				c0.3,0.4,0.7,0.7,1.1,0.9c0.4,0.2,0.9,0.4,1.4,0.5c0.5,0.1,1.1,0.1,1.7,0.1c1.3,0,2.3-0.2,3.1-0.7c0.8-0.4,1.4-1,1.8-1.7
				c0.4-0.7,0.7-1.5,0.8-2.4c0.1-0.9,0.2-1.8,0.1-2.8c-0.6,1-1.5,1.8-2.5,2.3c-1.1,0.5-2.2,0.8-3.4,0.8c-1.3,0-2.3-0.2-3.3-0.7
				c-0.9-0.5-1.7-1.1-2.3-1.9c-0.6-0.8-1.1-1.7-1.4-2.8c-0.3-1.1-0.4-2.2-0.4-3.3c0-1.2,0.1-2.3,0.4-3.4s0.7-2,1.3-2.7
				c0.6-0.8,1.4-1.4,2.3-1.8c0.9-0.4,2.1-0.7,3.4-0.7c0.5,0,1.1,0.1,1.6,0.2c0.6,0.1,1.1,0.4,1.6,0.6c0.5,0.3,1,0.6,1.4,1
				c0.4,0.4,0.8,0.9,1.1,1.4h0.1V516.2z M382.3,524.5c0-1-0.1-1.9-0.4-2.8c-0.2-0.9-0.6-1.6-1.1-2.2c-0.5-0.6-1-1.1-1.7-1.5
				s-1.5-0.5-2.4-0.5c-0.8,0-1.5,0.1-2.2,0.4s-1.3,0.7-1.8,1.3c-0.5,0.6-0.9,1.2-1.2,2c-0.3,0.8-0.4,1.7-0.4,2.7c0,1,0,2,0.3,2.9
				s0.6,1.7,1,2.4c0.5,0.7,1.1,1.2,1.8,1.6c0.7,0.4,1.6,0.6,2.6,0.6c0.9,0,1.6-0.2,2.3-0.6c0.7-0.4,1.3-0.9,1.7-1.5
				c0.5-0.6,0.8-1.4,1.1-2.2C382.2,526.3,382.3,525.4,382.3,524.5z"/>
		</g>
	</g>
	<g>
		<g>
			<path d="M390.2,524.9c0,0.9,0.1,1.7,0.3,2.5c0.2,0.8,0.6,1.5,1,2.1c0.5,0.6,1,1,1.7,1.4c0.7,0.3,1.5,0.5,2.4,0.5
				c1.2,0,2.3-0.3,3.2-1c0.9-0.7,1.5-1.6,1.8-2.8h2.1c-0.2,0.8-0.5,1.5-0.9,2.2c-0.4,0.7-0.9,1.2-1.4,1.7c-0.6,0.5-1.3,0.9-2,1.2
				c-0.8,0.3-1.7,0.4-2.7,0.4c-1.3,0-2.4-0.2-3.4-0.7c-1-0.4-1.7-1.1-2.4-1.8c-0.6-0.8-1.1-1.7-1.4-2.7c-0.3-1-0.4-2.2-0.4-3.4
				s0.2-2.3,0.5-3.4s0.8-2,1.5-2.8c0.6-0.8,1.4-1.4,2.4-1.9c0.9-0.5,2-0.7,3.2-0.7c2.3,0,4,0.8,5.3,2.3c1.3,1.6,1.9,3.8,1.9,6.8
				H390.2z M400.9,523.3c0-0.8-0.1-1.6-0.3-2.3c-0.2-0.7-0.6-1.3-1-1.8c-0.4-0.5-1-0.9-1.6-1.2c-0.7-0.3-1.4-0.5-2.3-0.5
				c-0.8,0-1.6,0.2-2.2,0.5c-0.6,0.3-1.2,0.7-1.7,1.3c-0.5,0.5-0.8,1.1-1.1,1.8s-0.5,1.4-0.5,2.2H400.9z"/>
		</g>
	</g>
	<g>
		<g>
			<path d="M408.6,532.7h-1.9v-16.5h1.9v2.3c0.8-0.8,1.6-1.5,2.4-2c0.8-0.5,1.8-0.8,2.9-0.8c1,0,2,0.2,2.8,0.5
				c0.9,0.3,1.6,1,2.2,1.8c0.4,0.6,0.6,1.2,0.7,1.8s0.1,1.3,0.1,2v10.8h-1.9v-10.7c0-1.5-0.3-2.6-1-3.3c-0.7-0.7-1.7-1.1-3.3-1.1
				c-0.6,0-1.1,0.1-1.6,0.3c-0.5,0.2-0.9,0.4-1.3,0.7c-0.4,0.3-0.7,0.6-1,1c-0.3,0.4-0.5,0.8-0.6,1.2c-0.2,0.5-0.3,1-0.3,1.5
				c0,0.5-0.1,1-0.1,1.6V532.7z"/>
		</g>
	</g>
	<g>
		<g>
			<path d="M425.5,524.9c0,0.9,0.1,1.7,0.3,2.5c0.2,0.8,0.6,1.5,1,2.1c0.5,0.6,1,1,1.7,1.4c0.7,0.3,1.5,0.5,2.4,0.5
				c1.2,0,2.3-0.3,3.2-1c0.9-0.7,1.5-1.6,1.8-2.8h2.1c-0.2,0.8-0.5,1.5-0.9,2.2c-0.4,0.7-0.9,1.2-1.4,1.7c-0.6,0.5-1.3,0.9-2,1.2
				c-0.8,0.3-1.7,0.4-2.7,0.4c-1.3,0-2.4-0.2-3.4-0.7c-1-0.4-1.7-1.1-2.4-1.8c-0.6-0.8-1.1-1.7-1.4-2.7c-0.3-1-0.4-2.2-0.4-3.4
				s0.2-2.3,0.5-3.4s0.8-2,1.5-2.8c0.6-0.8,1.4-1.4,2.4-1.9c0.9-0.5,2-0.7,3.2-0.7c2.3,0,4,0.8,5.3,2.3c1.3,1.6,1.9,3.8,1.9,6.8
				H425.5z M436.3,523.3c0-0.8-0.1-1.6-0.3-2.3c-0.2-0.7-0.6-1.3-1-1.8c-0.4-0.5-1-0.9-1.6-1.2c-0.7-0.3-1.4-0.5-2.3-0.5
				c-0.8,0-1.6,0.2-2.2,0.5c-0.6,0.3-1.2,0.7-1.7,1.3c-0.5,0.5-0.8,1.1-1.1,1.8s-0.5,1.4-0.5,2.2H436.3z"/>
		</g>
	</g>
	<g>
		<g>
			<path d="M444,532.7h-1.9v-16.5h1.9v3.1h0.1c0.5-1.3,1.2-2.2,2-2.7c0.8-0.5,1.9-0.8,3.3-0.8v2.1c-1.1,0-2,0.1-2.7,0.5
				c-0.7,0.4-1.3,0.8-1.7,1.5c-0.4,0.6-0.7,1.3-0.9,2.2s-0.2,1.7-0.2,2.6V532.7z"/>
		</g>
	</g>
	<g>
		<g>
			<path d="M460.2,523.1c0.4,0,0.8-0.1,1.3-0.2c0.5-0.1,0.9-0.2,1.2-0.3c0.3-0.1,0.5-0.4,0.6-0.7s0.1-0.7,0.1-1c0-1-0.3-1.8-0.9-2.4
				s-1.7-0.9-3.2-0.9c-0.7,0-1.3,0.1-1.8,0.2c-0.6,0.1-1,0.3-1.4,0.6s-0.8,0.7-1,1.1c-0.3,0.5-0.4,1.1-0.5,1.8h-1.9
				c0.1-1,0.3-1.8,0.7-2.5c0.4-0.7,0.9-1.2,1.5-1.7s1.3-0.8,2.1-1c0.8-0.2,1.6-0.3,2.5-0.3c0.8,0,1.6,0.1,2.3,0.3
				c0.7,0.2,1.4,0.5,1.9,0.9c0.5,0.4,1,0.9,1.3,1.6c0.3,0.7,0.5,1.5,0.5,2.4v9c0,0.7,0.1,1.2,0.4,1.4s0.8,0.2,1.6-0.1v1.5
				c-0.1,0-0.4,0.1-0.7,0.2s-0.6,0.1-0.8,0.1c-0.3,0-0.6,0-0.9-0.1c-0.3,0-0.6-0.1-0.8-0.3c-0.2-0.2-0.3-0.3-0.5-0.6
				c-0.1-0.2-0.2-0.5-0.2-0.7c0-0.3-0.1-0.5-0.1-0.8c-0.8,0.9-1.7,1.6-2.8,2s-2.2,0.7-3.4,0.7c-0.7,0-1.4-0.1-2.1-0.3
				c-0.7-0.2-1.3-0.5-1.8-0.9c-0.5-0.4-0.9-0.9-1.2-1.5c-0.3-0.6-0.4-1.3-0.4-2.1c0-2.8,1.9-4.4,5.8-5L460.2,523.1z M463.4,524
				c-0.8,0.3-1.6,0.6-2.4,0.7c-0.8,0.1-1.7,0.2-2.5,0.3c-1.5,0.1-2.6,0.4-3.4,1c-0.8,0.6-1.2,1.4-1.2,2.5c0,0.5,0.1,0.9,0.3,1.3
				c0.2,0.4,0.5,0.7,0.8,0.9c0.3,0.2,0.7,0.4,1.1,0.5c0.4,0.1,0.9,0.2,1.3,0.2c0.8,0,1.5-0.1,2.2-0.3c0.7-0.2,1.4-0.5,1.9-0.9
				c0.6-0.4,1-0.9,1.4-1.5c0.3-0.6,0.5-1.3,0.5-2.1V524z"/>
		</g>
	</g>
	<g>
		<g>
			<path d="M476.1,532.7c-0.2,0-0.5,0.1-0.9,0.2c-0.4,0.1-0.8,0.2-1.3,0.2c-1,0-1.7-0.2-2.2-0.7c-0.5-0.5-0.7-1.3-0.7-2.6v-12h-2.3
				v-1.6h2.3v-4.6h1.9v4.6h3.1v1.6h-3.1v11.3c0,0.4,0,0.8,0,1c0,0.3,0.1,0.5,0.2,0.7c0.1,0.2,0.3,0.3,0.5,0.4
				c0.2,0.1,0.5,0.1,0.9,0.1c0.3,0,0.5,0,0.8-0.1c0.3,0,0.5-0.1,0.8-0.2V532.7z"/>
		</g>
	</g>
	<g>
		<g>
			<path d="M480.3,524.9c0,0.9,0.1,1.7,0.3,2.5c0.2,0.8,0.6,1.5,1,2.1c0.5,0.6,1,1,1.7,1.4s1.5,0.5,2.4,0.5c1.2,0,2.3-0.3,3.2-1
				c0.9-0.7,1.5-1.6,1.8-2.8h2.1c-0.2,0.8-0.5,1.5-0.9,2.2c-0.4,0.7-0.9,1.2-1.4,1.7s-1.3,0.9-2,1.2c-0.8,0.3-1.7,0.4-2.7,0.4
				c-1.3,0-2.4-0.2-3.4-0.7c-1-0.4-1.7-1.1-2.4-1.8c-0.6-0.8-1.1-1.7-1.4-2.7s-0.4-2.2-0.4-3.4s0.2-2.3,0.5-3.4
				c0.3-1.1,0.8-2,1.5-2.8s1.4-1.4,2.4-1.9c0.9-0.5,2-0.7,3.2-0.7c2.3,0,4,0.8,5.3,2.3c1.3,1.6,1.9,3.8,1.9,6.8H480.3z M491,523.3
				c0-0.8-0.1-1.6-0.3-2.3c-0.2-0.7-0.6-1.3-1-1.8c-0.4-0.5-1-0.9-1.6-1.2c-0.7-0.3-1.4-0.5-2.3-0.5s-1.6,0.2-2.2,0.5
				c-0.6,0.3-1.2,0.7-1.7,1.3c-0.5,0.5-0.8,1.1-1.1,1.8c-0.3,0.7-0.5,1.4-0.5,2.2H491z"/>
		</g>
	</g>
	<g>
		<g>
			<path d="M509.5,509.8h1.9v22.9h-1.9v-2.9h-0.1c-0.3,0.6-0.6,1-1.1,1.4c-0.4,0.4-0.9,0.8-1.4,1s-1.1,0.5-1.6,0.6
				c-0.6,0.1-1.1,0.2-1.6,0.2c-1.3,0-2.5-0.2-3.4-0.7c-0.9-0.4-1.7-1.1-2.3-1.8c-0.6-0.8-1-1.7-1.3-2.7c-0.3-1.1-0.4-2.2-0.4-3.4
				c0-1.1,0.1-2.2,0.4-3.3s0.7-2,1.4-2.8c0.6-0.8,1.4-1.4,2.3-1.9c0.9-0.5,2-0.7,3.3-0.7c1.2,0,2.3,0.3,3.4,0.8
				c1.1,0.5,1.9,1.3,2.5,2.3V509.8z M509.5,524.4c0-0.9-0.1-1.8-0.4-2.7c-0.3-0.8-0.6-1.6-1.1-2.2s-1.1-1.1-1.7-1.5
				c-0.7-0.4-1.5-0.6-2.3-0.6c-1,0-1.9,0.2-2.6,0.6c-0.7,0.4-1.3,0.9-1.8,1.6c-0.5,0.7-0.8,1.5-1,2.4c-0.2,0.9-0.3,1.9-0.3,2.9
				c0,1,0.1,2,0.4,2.7c0.3,0.8,0.7,1.5,1.2,2c0.5,0.6,1.1,1,1.8,1.3c0.7,0.3,1.4,0.4,2.2,0.4c0.9,0,1.7-0.2,2.4-0.5s1.3-0.9,1.7-1.5
				c0.5-0.6,0.8-1.4,1.1-2.2C509.4,526.3,509.5,525.4,509.5,524.4z"/>
		</g>
	</g>
	<g>
		<g>
			<path d="M527.2,532.7h-1.9v-22.9h1.9v9.1c0.6-1,1.5-1.8,2.5-2.3c1.1-0.5,2.2-0.8,3.4-0.8c1.2,0,2.3,0.2,3.3,0.7
				c0.9,0.5,1.7,1.1,2.3,1.9c0.6,0.8,1.1,1.7,1.4,2.8c0.3,1.1,0.4,2.2,0.4,3.3c0,1.2-0.1,2.3-0.4,3.4s-0.7,2-1.3,2.7
				c-0.6,0.8-1.4,1.4-2.3,1.8c-0.9,0.4-2.1,0.7-3.4,0.7c-0.5,0-1.1-0.1-1.6-0.2c-0.6-0.1-1.1-0.4-1.6-0.6c-0.5-0.3-1-0.6-1.4-1
				c-0.4-0.4-0.8-0.9-1.1-1.4h-0.1V532.7z M527.2,524.4c0,1,0.1,1.9,0.4,2.8c0.2,0.9,0.6,1.6,1.1,2.2s1,1.1,1.7,1.5s1.5,0.5,2.4,0.5
				c0.8,0,1.5-0.1,2.2-0.4s1.3-0.7,1.8-1.3c0.5-0.6,0.9-1.2,1.2-2c0.3-0.8,0.4-1.7,0.4-2.7c0-1,0-2-0.3-2.9s-0.6-1.7-1-2.4
				c-0.5-0.7-1.1-1.2-1.8-1.6c-0.7-0.4-1.6-0.6-2.6-0.6c-0.9,0-1.6,0.2-2.3,0.6c-0.7,0.4-1.3,0.9-1.7,1.5s-0.8,1.4-1.1,2.2
				C527.3,522.5,527.2,523.4,527.2,524.4z"/>
		</g>
	</g>
	<g>
		<g>
			<path d="M545.6,524.9c0,0.9,0.1,1.7,0.3,2.5c0.2,0.8,0.6,1.5,1,2.1c0.5,0.6,1,1,1.7,1.4s1.5,0.5,2.4,0.5c1.2,0,2.3-0.3,3.2-1
				c0.9-0.7,1.5-1.6,1.8-2.8h2.1c-0.2,0.8-0.5,1.5-0.9,2.2c-0.4,0.7-0.9,1.2-1.4,1.7s-1.3,0.9-2,1.2c-0.8,0.3-1.7,0.4-2.7,0.4
				c-1.3,0-2.4-0.2-3.4-0.7c-1-0.4-1.7-1.1-2.4-1.8c-0.6-0.8-1.1-1.7-1.4-2.7s-0.4-2.2-0.4-3.4s0.2-2.3,0.5-3.4
				c0.3-1.1,0.8-2,1.5-2.8s1.4-1.4,2.4-1.9c0.9-0.5,2-0.7,3.2-0.7c2.3,0,4,0.8,5.3,2.3c1.3,1.6,1.9,3.8,1.9,6.8H545.6z M556.4,523.3
				c0-0.8-0.1-1.6-0.3-2.3c-0.2-0.7-0.6-1.3-1-1.8c-0.4-0.5-1-0.9-1.6-1.2c-0.7-0.3-1.4-0.5-2.3-0.5s-1.6,0.2-2.2,0.5
				c-0.6,0.3-1.2,0.7-1.7,1.3c-0.5,0.5-0.8,1.1-1.1,1.8c-0.3,0.7-0.5,1.4-0.5,2.2H556.4z"/>
		</g>
	</g>
	<g>
		<g>
			<path d="M563.3,524.9c0,0.9,0.1,1.7,0.3,2.5c0.2,0.8,0.6,1.5,1,2.1c0.5,0.6,1,1,1.7,1.4s1.5,0.5,2.4,0.5c1.2,0,2.3-0.3,3.2-1
				c0.9-0.7,1.5-1.6,1.8-2.8h2.1c-0.2,0.8-0.5,1.5-0.9,2.2c-0.4,0.7-0.9,1.2-1.4,1.7s-1.3,0.9-2,1.2c-0.8,0.3-1.7,0.4-2.7,0.4
				c-1.3,0-2.4-0.2-3.4-0.7c-1-0.4-1.7-1.1-2.4-1.8c-0.6-0.8-1.1-1.7-1.4-2.7s-0.4-2.2-0.4-3.4s0.2-2.3,0.5-3.4
				c0.3-1.1,0.8-2,1.5-2.8s1.4-1.4,2.4-1.9c0.9-0.5,2-0.7,3.2-0.7c2.3,0,4,0.8,5.3,2.3c1.3,1.6,1.9,3.8,1.9,6.8H563.3z M574,523.3
				c0-0.8-0.1-1.6-0.3-2.3c-0.2-0.7-0.6-1.3-1-1.8c-0.4-0.5-1-0.9-1.6-1.2c-0.7-0.3-1.4-0.5-2.3-0.5s-1.6,0.2-2.2,0.5
				c-0.6,0.3-1.2,0.7-1.7,1.3c-0.5,0.5-0.8,1.1-1.1,1.8c-0.3,0.7-0.5,1.4-0.5,2.2H574z"/>
		</g>
	</g>
	<g>
		<g>
			<path d="M581.8,532.7h-1.9v-16.5h1.9v3.1h0.1c0.5-1.3,1.2-2.2,2-2.7c0.8-0.5,1.9-0.8,3.3-0.8v2.1c-1.1,0-2,0.1-2.7,0.5
				c-0.7,0.4-1.3,0.8-1.7,1.5c-0.4,0.6-0.7,1.3-0.9,2.2c-0.2,0.8-0.2,1.7-0.2,2.6V532.7z"/>
		</g>
	</g>
	<g>
		<g>
			<path d="M600.3,527.5c0.3,1.4,0.8,2.4,1.6,3c0.8,0.6,1.9,0.9,3.3,0.9c0.7,0,1.3-0.1,1.8-0.3c0.5-0.2,0.9-0.4,1.3-0.7
				s0.6-0.6,0.7-1c0.2-0.4,0.3-0.7,0.3-1.1c0-0.8-0.3-1.4-0.8-1.8c-0.5-0.4-1.2-0.7-2-0.9c-0.8-0.2-1.6-0.4-2.5-0.6
				c-0.9-0.2-1.8-0.4-2.5-0.7c-0.8-0.3-1.4-0.8-2-1.4c-0.5-0.6-0.8-1.4-0.8-2.5c0-1.4,0.5-2.5,1.5-3.4c1-0.9,2.4-1.3,4.3-1.3
				c1.8,0,3.2,0.4,4.3,1.2c1.1,0.8,1.8,2.1,2,4H609c-0.2-1.3-0.7-2.2-1.4-2.7c-0.8-0.5-1.8-0.8-3-0.8s-2.1,0.3-2.8,0.8
				c-0.6,0.5-1,1.2-1,2c0,0.7,0.3,1.3,0.8,1.7c0.5,0.4,1.2,0.7,2,1c0.8,0.2,1.6,0.5,2.5,0.7c0.9,0.2,1.8,0.5,2.5,0.8
				c0.8,0.3,1.4,0.8,2,1.4c0.5,0.6,0.8,1.4,0.8,2.5c0,0.8-0.2,1.5-0.5,2.1c-0.3,0.6-0.8,1.1-1.4,1.5c-0.6,0.4-1.3,0.7-2.1,0.9
				c-0.8,0.2-1.7,0.3-2.7,0.3s-1.8-0.1-2.6-0.4s-1.4-0.7-1.9-1.2c-0.5-0.5-0.9-1.1-1.2-1.8c-0.3-0.7-0.5-1.4-0.5-2.2H600.3z"/>
		</g>
	</g>
	<g>
		<g>
			<path d="M616.3,524.9c0,0.9,0.1,1.7,0.3,2.5c0.2,0.8,0.6,1.5,1,2.1c0.5,0.6,1,1,1.7,1.4s1.5,0.5,2.4,0.5c1.2,0,2.3-0.3,3.2-1
				c0.9-0.7,1.5-1.6,1.8-2.8h2.1c-0.2,0.8-0.5,1.5-0.9,2.2c-0.4,0.7-0.9,1.2-1.4,1.7s-1.3,0.9-2,1.2c-0.8,0.3-1.7,0.4-2.7,0.4
				c-1.3,0-2.4-0.2-3.4-0.7c-1-0.4-1.7-1.1-2.4-1.8c-0.6-0.8-1.1-1.7-1.4-2.7s-0.4-2.2-0.4-3.4s0.2-2.3,0.5-3.4
				c0.3-1.1,0.8-2,1.5-2.8s1.4-1.4,2.4-1.9c0.9-0.5,2-0.7,3.2-0.7c2.3,0,4,0.8,5.3,2.3c1.3,1.6,1.9,3.8,1.9,6.8H616.3z M627,523.3
				c0-0.8-0.1-1.6-0.3-2.3c-0.2-0.7-0.6-1.3-1-1.8c-0.4-0.5-1-0.9-1.6-1.2c-0.7-0.3-1.4-0.5-2.3-0.5s-1.6,0.2-2.2,0.5
				c-0.6,0.3-1.2,0.7-1.7,1.3c-0.5,0.5-0.8,1.1-1.1,1.8c-0.3,0.7-0.5,1.4-0.5,2.2H627z"/>
		</g>
	</g>
	<g>
		<g>
			<path d="M640.3,523.1c0.4,0,0.8-0.1,1.3-0.2c0.5-0.1,0.9-0.2,1.2-0.3c0.3-0.1,0.5-0.4,0.6-0.7s0.1-0.7,0.1-1c0-1-0.3-1.8-0.9-2.4
				s-1.7-0.9-3.2-0.9c-0.7,0-1.3,0.1-1.8,0.2c-0.6,0.1-1,0.3-1.4,0.6s-0.8,0.7-1,1.1c-0.3,0.5-0.4,1.1-0.5,1.8h-1.9
				c0.1-1,0.3-1.8,0.7-2.5c0.4-0.7,0.9-1.2,1.5-1.7s1.3-0.8,2.1-1c0.8-0.2,1.6-0.3,2.5-0.3c0.8,0,1.6,0.1,2.3,0.3
				c0.7,0.2,1.4,0.5,1.9,0.9c0.5,0.4,1,0.9,1.3,1.6c0.3,0.7,0.5,1.5,0.5,2.4v9c0,0.7,0.1,1.2,0.4,1.4s0.8,0.2,1.6-0.1v1.5
				c-0.1,0-0.4,0.1-0.7,0.2s-0.6,0.1-0.8,0.1c-0.3,0-0.6,0-0.9-0.1c-0.3,0-0.6-0.1-0.8-0.3c-0.2-0.2-0.3-0.3-0.5-0.6
				c-0.1-0.2-0.2-0.5-0.2-0.7c0-0.3-0.1-0.5-0.1-0.8c-0.8,0.9-1.7,1.6-2.8,2s-2.2,0.7-3.4,0.7c-0.7,0-1.4-0.1-2.1-0.3
				c-0.7-0.2-1.3-0.5-1.8-0.9c-0.5-0.4-0.9-0.9-1.2-1.5c-0.3-0.6-0.4-1.3-0.4-2.1c0-2.8,1.9-4.4,5.8-5L640.3,523.1z M643.5,524
				c-0.8,0.3-1.6,0.6-2.4,0.7c-0.8,0.1-1.7,0.2-2.5,0.3c-1.5,0.1-2.6,0.4-3.4,1c-0.8,0.6-1.2,1.4-1.2,2.5c0,0.5,0.1,0.9,0.3,1.3
				c0.2,0.4,0.5,0.7,0.8,0.9c0.3,0.2,0.7,0.4,1.1,0.5c0.4,0.1,0.9,0.2,1.3,0.2c0.8,0,1.5-0.1,2.2-0.3c0.7-0.2,1.4-0.5,1.9-0.9
				c0.6-0.4,1-0.9,1.4-1.5c0.3-0.6,0.5-1.3,0.5-2.1V524z"/>
		</g>
	</g>
	<g>
		<g>
			<path d="M652.4,532.7h-1.9v-16.5h1.9v3.1h0.1c0.5-1.3,1.2-2.2,2-2.7c0.8-0.5,1.9-0.8,3.3-0.8v2.1c-1.1,0-2,0.1-2.7,0.5
				c-0.7,0.4-1.3,0.8-1.7,1.5c-0.4,0.6-0.7,1.3-0.9,2.2c-0.2,0.8-0.2,1.7-0.2,2.6V532.7z"/>
		</g>
	</g>
	<g>
		<g>
			<path d="M672.7,521.4c-0.3-1.2-0.9-2.2-1.7-2.9c-0.8-0.7-1.9-1-3.1-1c-1,0-1.8,0.2-2.5,0.6s-1.3,0.9-1.7,1.6
				c-0.4,0.7-0.8,1.4-1,2.3s-0.3,1.7-0.3,2.5c0,0.9,0.1,1.7,0.3,2.5c0.2,0.8,0.5,1.6,1,2.2c0.4,0.7,1,1.2,1.7,1.6
				c0.7,0.4,1.5,0.6,2.5,0.6c1.4,0,2.6-0.4,3.4-1.2c0.9-0.8,1.4-1.9,1.6-3.2h2c-0.2,0.9-0.4,1.7-0.8,2.5c-0.4,0.8-0.8,1.4-1.4,1.9
				c-0.6,0.5-1.3,1-2.1,1.3c-0.8,0.3-1.7,0.4-2.8,0.4c-1.3,0-2.4-0.2-3.4-0.7c-1-0.4-1.7-1.1-2.4-1.8c-0.6-0.8-1.1-1.7-1.4-2.7
				s-0.4-2.2-0.4-3.4c0-1.1,0.2-2.2,0.5-3.3c0.3-1,0.8-2,1.4-2.8c0.6-0.8,1.4-1.4,2.4-1.9c0.9-0.5,2-0.7,3.3-0.7
				c1.9,0,3.4,0.5,4.6,1.4c1.2,0.9,1.9,2.3,2.2,4.3H672.7z"/>
		</g>
	</g>
	<g>
		<g>
			<path d="M678.7,532.7v-22.9h1.9v8.7c0.8-0.8,1.6-1.5,2.4-2c0.8-0.5,1.8-0.8,2.9-0.8c1,0,2,0.2,2.8,0.5s1.6,1,2.2,1.8
				c0.4,0.6,0.6,1.2,0.7,1.8s0.1,1.3,0.1,2v10.8h-1.9v-10.7c0-1.5-0.3-2.6-1-3.3c-0.7-0.7-1.7-1.1-3.3-1.1c-0.6,0-1.1,0.1-1.6,0.3
				c-0.5,0.2-0.9,0.4-1.3,0.7c-0.4,0.3-0.7,0.6-1,1c-0.3,0.4-0.5,0.8-0.6,1.2c-0.2,0.5-0.3,1-0.3,1.5c0,0.5-0.1,1-0.1,1.6v8.9H678.7
				z"/>
		</g>
	</g>
	<g>
		<g>
			<path d="M706.4,524.9c0,0.9,0.1,1.7,0.3,2.5c0.2,0.8,0.6,1.5,1,2.1c0.5,0.6,1,1,1.7,1.4s1.5,0.5,2.4,0.5c1.2,0,2.3-0.3,3.2-1
				c0.9-0.7,1.5-1.6,1.8-2.8h2.1c-0.2,0.8-0.5,1.5-0.9,2.2c-0.4,0.7-0.9,1.2-1.4,1.7s-1.3,0.9-2,1.2c-0.8,0.3-1.7,0.4-2.7,0.4
				c-1.3,0-2.4-0.2-3.4-0.7c-1-0.4-1.7-1.1-2.4-1.8c-0.6-0.8-1.1-1.7-1.4-2.7s-0.4-2.2-0.4-3.4s0.2-2.3,0.5-3.4
				c0.3-1.1,0.8-2,1.5-2.8s1.4-1.4,2.4-1.9c0.9-0.5,2-0.7,3.2-0.7c2.3,0,4,0.8,5.3,2.3c1.3,1.6,1.9,3.8,1.9,6.8H706.4z M717.1,523.3
				c0-0.8-0.1-1.6-0.3-2.3c-0.2-0.7-0.6-1.3-1-1.8c-0.4-0.5-1-0.9-1.6-1.2c-0.7-0.3-1.4-0.5-2.3-0.5s-1.6,0.2-2.2,0.5
				c-0.6,0.3-1.2,0.7-1.7,1.3c-0.5,0.5-0.8,1.1-1.1,1.8c-0.3,0.7-0.5,1.4-0.5,2.2H717.1z"/>
		</g>
	</g>
	<g>
		<g>
			<path d="M724.8,532.7h-1.9v-16.5h1.9v2.3c0.8-0.8,1.6-1.5,2.4-2c0.8-0.5,1.8-0.8,2.9-0.8c1,0,2,0.2,2.8,0.5s1.6,1,2.2,1.8
				c0.4,0.6,0.6,1.2,0.7,1.8s0.1,1.3,0.1,2v10.8H734v-10.7c0-1.5-0.3-2.6-1-3.3c-0.7-0.7-1.7-1.1-3.3-1.1c-0.6,0-1.1,0.1-1.6,0.3
				c-0.5,0.2-0.9,0.4-1.3,0.7c-0.4,0.3-0.7,0.6-1,1c-0.3,0.4-0.5,0.8-0.6,1.2c-0.2,0.5-0.3,1-0.3,1.5c0,0.5-0.1,1-0.1,1.6V532.7z"/>
		</g>
	</g>
	<g>
		<g>
			<path d="M753.3,516.2h1.9v14.9c0,1.1-0.1,2.2-0.3,3.2c-0.2,1-0.6,1.9-1.2,2.7c-0.6,0.8-1.4,1.4-2.4,1.8c-1,0.5-2.3,0.7-3.8,0.7
				c-1.2,0-2.2-0.2-3.1-0.5c-0.9-0.3-1.6-0.7-2.1-1.2c-0.6-0.5-1-1-1.3-1.5s-0.4-1.1-0.5-1.6h2c0.1,0.6,0.4,1.1,0.7,1.5
				c0.3,0.4,0.7,0.7,1.1,0.9s0.9,0.4,1.4,0.5c0.5,0.1,1.1,0.1,1.7,0.1c1.3,0,2.3-0.2,3.1-0.7c0.8-0.4,1.4-1,1.8-1.7
				c0.4-0.7,0.7-1.5,0.8-2.4c0.1-0.9,0.2-1.8,0.1-2.8c-0.6,1-1.5,1.8-2.5,2.3c-1.1,0.5-2.2,0.8-3.4,0.8c-1.2,0-2.3-0.2-3.3-0.7
				c-0.9-0.5-1.7-1.1-2.3-1.9c-0.6-0.8-1.1-1.7-1.4-2.8s-0.4-2.2-0.4-3.3c0-1.2,0.1-2.3,0.4-3.4c0.3-1.1,0.7-2,1.3-2.7
				c0.6-0.8,1.4-1.4,2.3-1.8c0.9-0.4,2.1-0.7,3.4-0.7c0.5,0,1.1,0.1,1.6,0.2c0.6,0.1,1.1,0.4,1.6,0.6s1,0.6,1.4,1
				c0.4,0.4,0.8,0.9,1.1,1.4h0.1V516.2z M753.3,524.5c0-1-0.1-1.9-0.4-2.8c-0.2-0.9-0.6-1.6-1.1-2.2c-0.5-0.6-1-1.1-1.7-1.5
				s-1.5-0.5-2.4-0.5c-0.8,0-1.5,0.1-2.2,0.4c-0.7,0.3-1.3,0.7-1.8,1.3c-0.5,0.6-0.9,1.2-1.2,2s-0.4,1.7-0.4,2.7c0,1,0,2,0.3,2.9
				c0.2,0.9,0.6,1.7,1,2.4s1.1,1.2,1.8,1.6c0.7,0.4,1.6,0.6,2.6,0.6c0.9,0,1.6-0.2,2.3-0.6s1.3-0.9,1.7-1.5s0.8-1.4,1.1-2.2
				C753.1,526.3,753.3,525.4,753.3,524.5z"/>
		</g>
	</g>
	<g>
		<g>
			<path d="M760.2,512.6v-2.8h2.1v2.8H760.2z M760.2,532.7v-16.5h1.9v16.5H760.2z"/>
		</g>
	</g>
	<g>
		<g>
			<path d="M768.9,532.7H767v-16.5h1.9v2.3c0.8-0.8,1.6-1.5,2.4-2c0.8-0.5,1.8-0.8,2.9-0.8c1,0,2,0.2,2.8,0.5s1.6,1,2.2,1.8
				c0.4,0.6,0.6,1.2,0.7,1.8s0.1,1.3,0.1,2v10.8h-1.9v-10.7c0-1.5-0.3-2.6-1-3.3c-0.7-0.7-1.7-1.1-3.3-1.1c-0.6,0-1.1,0.1-1.6,0.3
				c-0.5,0.2-0.9,0.4-1.3,0.7c-0.4,0.3-0.7,0.6-1,1c-0.3,0.4-0.5,0.8-0.6,1.2c-0.2,0.5-0.3,1-0.3,1.5c0,0.5-0.1,1-0.1,1.6V532.7z"/>
		</g>
	</g>
	<g>
		<g>
			<path d="M785.9,524.9c0,0.9,0.1,1.7,0.3,2.5c0.2,0.8,0.6,1.5,1,2.1c0.5,0.6,1,1,1.7,1.4s1.5,0.5,2.4,0.5c1.2,0,2.3-0.3,3.2-1
				c0.9-0.7,1.5-1.6,1.8-2.8h2.1c-0.2,0.8-0.5,1.5-0.9,2.2c-0.4,0.7-0.9,1.2-1.4,1.7s-1.3,0.9-2,1.2c-0.8,0.3-1.7,0.4-2.7,0.4
				c-1.3,0-2.4-0.2-3.4-0.7c-1-0.4-1.7-1.1-2.4-1.8c-0.6-0.8-1.1-1.7-1.4-2.7s-0.4-2.2-0.4-3.4s0.2-2.3,0.5-3.4
				c0.3-1.1,0.8-2,1.5-2.8s1.4-1.4,2.4-1.9c0.9-0.5,2-0.7,3.2-0.7c2.3,0,4,0.8,5.3,2.3c1.3,1.6,1.9,3.8,1.9,6.8H785.9z M796.6,523.3
				c0-0.8-0.1-1.6-0.3-2.3c-0.2-0.7-0.6-1.3-1-1.8c-0.4-0.5-1-0.9-1.6-1.2c-0.7-0.3-1.4-0.5-2.3-0.5s-1.6,0.2-2.2,0.5
				c-0.6,0.3-1.2,0.7-1.7,1.3c-0.5,0.5-0.8,1.1-1.1,1.8c-0.3,0.7-0.5,1.4-0.5,2.2H796.6z"/>
		</g>
	</g>
</g>
<g>
	<g>
		<g>
			<path class="st1" d="M792.7,434c0,0-58.1,17.3-90.6-24.3c-32.5-41.6-23.5-69.6-17.5-96.8l0.5-0.4c27.8-2.9,56.6-8.6,94.2,28.4
				c37.7,37,14,92.8,14,92.8L792.7,434z"/>
		</g>
	</g>
</g>
<g class="st2">
	<g>
		<g>
			<path d="M765.9,436.9c-2.6,0-5.3-0.1-8.1-0.3c-22.6-1.8-41.3-11.4-54.1-27.6c-26.6-33.8-23.4-56.8-20.2-79.1
				c0.5-3.4,1-7,1.4-10.5l6.7,0.7c-0.4,3.6-0.9,7.2-1.4,10.7c-3.1,21.8-6,42.4,18.8,74c28,35.7,77.2,23.2,77.7,23.1l1.7,6.5
				C787.8,434.5,778.7,436.9,765.9,436.9z"/>
		</g>
	</g>
</g>
<g>
	<g>
		<g>
			<path class="st0" d="M716.4,331.3c8.1-2.6,30.9,11.5,30.4,2.3C746.1,318.8,705,314.2,716.4,331.3z"/>
		</g>
	</g>
</g>
<g>
	<g>
		<g>
			<g>
				<g>
					<path d="M563.1,381.7c0.5-0.3,1.1-0.7,1.6-1c-1.3-1.6-2.5-3.3-3.8-4.9c-6.8,5.5-13.5,11.1-22,13.8c0.8,1.9,1.6,3.8,2.4,5.8
						c13.8-6.2,29.7-7.2,43.1-14.2c2-1,2.1-4.4,0-5.4c-10.8-5.3-21.8,1.8-32,5.5c1.2,1.5,2.4,3.1,3.6,4.6
						c8-11.5,20.9-17.5,32.4-24.8c2.4-1.5,1.7-6.2-1.6-5.9c-17.6,2-32.2,19.4-43.9,31.2c-2.9,3,1.3,6.9,4.5,4.5
						c13.5-10.7,33.8-10.2,46.2-21.9c2-1.9,0.5-5.5-2.2-5.4c-10.7,0.4-17.7,10.1-26.4,15.1c1.4,1.4,2.9,2.9,4.3,4.3
						c6.6-11.1,19.5-20.9,29.5-28.8c-1.5-1.5-3-3-4.5-4.5c-7.9,6.3-13.8,14.4-21.4,21c-3.1,2.7,1.4,7.1,4.5,4.5
						c7.6-6.6,13.5-14.7,21.4-21c3.2-2.5-1.3-6.9-4.5-4.5c-10.6,8.4-23.5,18.4-30.5,30.1c-1.6,2.7,1.6,5.9,4.3,4.3
						c7.2-4.2,14.4-13.9,23.3-14.3c-0.7-1.8-1.5-3.6-2.2-5.4c-12.1,11.5-32.8,11.3-46.2,21.9c1.5,1.5,3,3,4.5,4.5
						c10.1-10.2,24.3-27.6,39.5-29.3c-0.5-2-1.1-3.9-1.6-5.9c-12.5,8-26,14.6-34.7,27.1c-1.5,2.2,1,5.5,3.6,4.6
						c7.6-2.8,18.8-10.2,27.2-6.2c0-1.8,0-3.6,0-5.4c-13.3,6.9-29.3,7.9-43.1,14.2c-3.3,1.5-0.9,6.8,2.4,5.8
						c9.5-3,17.1-9.2,24.8-15.4c2.8-2.3-0.8-6.8-3.8-4.9c-0.5,0.3-1.1,0.7-1.6,1C556.5,378.4,559.6,383.9,563.1,381.7L563.1,381.7z"
						/>
				</g>
			</g>
			<g>
				<g>
					<path class="st0" d="M539.7,396.2c-1.5,0-2.8-1.1-3.3-2.5c-0.6-1.5-0.3-3.4,1.6-4.2c0.1-0.1,0.2-0.1,0.4-0.2l0,0l0.4-0.1
						c0.9-0.4,1.9-0.8,2.8-1.2c0.1-0.5,0.3-1.1,0.8-1.6l0,0l0.3-0.2c0,0,0,0,0,0c1.4-1.4,2.9-3,4.5-4.6c10.8-11.1,24.2-25,39.7-26.7
						c0.1,0,0.3,0,0.4,0c2-1.7,4.1-3.2,6-4.8l1.1-0.9l0,0c1.8-1.2,4-0.5,5.2,1c0.9,1.1,1.1,2.8-0.1,4.1l0,0l-0.4,0.3
						c-3.3,2.7-6.3,5.7-9.2,8.8c0.5-0.1,1-0.1,1.6-0.1c1.4-0.1,2.7,0.8,3.3,2.2c0.6,1.4,0.3,3-0.7,3.9c-2.7,2.6-5.8,4.6-9.1,6.2
						c1,0.6,1.6,1.6,1.7,2.9c0,1.4-0.7,2.6-1.8,3.2c-7.2,3.7-15.2,5.8-22.9,7.8c-4.9,1.2-9.9,2.5-14.7,4.2c-2,1-4.1,1.8-6.2,2.5
						C540.4,396.1,540,396.2,539.7,396.2z M538.7,390.1c-0.1,0-0.2,0.1-0.3,0.1c-1.5,0.7-1.5,2.1-1.1,3.1c0.5,1.3,1.7,2.3,3.2,1.8
						c0.1,0,0.2-0.1,0.3-0.1L538.7,390.1z M539.5,389.8l2.1,4.9c1.7-0.7,3.3-1.4,5.1-2c3.2-1.6,6.3-3.5,9.2-5.7
						c-0.6,0.2-1.1,0.4-1.6,0.6c-0.5,0.2-1.1,0.2-1.6,0.1c-1.7,1-3.4,2-4.9,3.2c0,0,0,0,0,0l-0.3,0.3l-0.1-0.1
						c-1.8,1.2-3.8,0.6-4.9-0.7c-0.4-0.5-0.7-1-0.8-1.6C540.9,389.3,540.2,389.6,539.5,389.8z M559.4,385.5c-2.7,2-5.4,4-8.3,5.7
						c3.5-1,7-1.9,10.4-2.8c7.7-2,15.7-4,22.7-7.7c0.8-0.4,1.3-1.4,1.3-2.4c0-1-0.5-1.9-1.3-2.2c-0.2-0.1-0.3-0.2-0.5-0.2
						c-0.7,0.3-1.4,0.6-2.1,0.9v5l-0.6-0.3c-2.3-1.1-4.8-1.3-7.4-1c-1.8,1.5-3.6,2.9-5.4,3.9c-1.6,0.9-3.4,0.4-4.3-0.6
						c-0.1-0.1-0.1-0.1-0.2-0.2c-1.3,0.5-2.5,1.1-3.8,1.7C559.8,385.3,559.6,385.4,559.4,385.5z M542.3,388.7c0.1,0.5,0.3,1,0.7,1.4
						c0.8,0.9,2.3,1.4,3.7,0.6l-2.7-2.7c0,0-0.1,0-0.1,0C543.4,388.3,542.9,388.5,542.3,388.7z M544.9,387.7l2.5,2.5
						c1.1-1.1,2.2-2.3,3.4-3.5c-0.1-0.1-0.2-0.2-0.3-0.3c-0.1-0.1-0.2-0.2-0.3-0.4C548.4,386.5,546.6,387.1,544.9,387.7z
						 M551.3,387.3c-0.2,0.2-0.4,0.4-0.6,0.6c0.3-0.2,0.5-0.3,0.8-0.5C551.5,387.4,551.4,387.3,551.3,387.3z M542.9,387
						c-0.2,0.2-0.3,0.4-0.4,0.6c0.3-0.1,0.5-0.2,0.8-0.3L542.9,387z M543.5,386.4l0.6,0.6c1.9-0.9,3.8-2,5.5-3.2
						c0.1-0.5,0.2-0.9,0.5-1.3c0-0.1,0.1-0.1,0.1-0.2C547.9,383.4,545.6,384.8,543.5,386.4z M552,386.6c0.2,0.1,0.3,0.2,0.5,0.2
						c0.9-0.5,1.8-0.9,2.7-1.4c-0.2-0.2-0.4-0.5-0.5-0.7c-0.4,0.1-0.9,0.2-1.3,0.3c-0.3,0.3-0.5,0.6-0.8,0.8
						C552.4,386.2,552.2,386.4,552,386.6z M551.1,385.8C551.1,385.8,551.1,385.8,551.1,385.8c0.1,0.2,0.2,0.2,0.2,0.3
						c0.2-0.2,0.3-0.3,0.5-0.5C551.5,385.7,551.3,385.7,551.1,385.8z M557.6,385.4c-0.3,0.1-0.6,0.3-0.9,0.4
						C556.9,385.6,557.2,385.5,557.6,385.4z M549.7,384.8c-0.5,0.3-1,0.7-1.6,1c0.6-0.2,1.1-0.3,1.7-0.5
						C549.8,385.1,549.7,384.9,549.7,384.8z M555.6,384.6c0.1,0.2,0.3,0.3,0.4,0.5c0.2-0.3,0.4-0.5,0.6-0.8
						C556.2,384.4,555.9,384.5,555.6,384.6z M550.5,384.2c0,0.3,0.1,0.5,0.2,0.8c0.7-0.2,1.5-0.4,2.2-0.6c0.3-0.3,0.5-0.5,0.8-0.8
						c-0.1-0.2-0.3-0.4-0.4-0.5l-0.4-0.5C552.1,383.1,551.3,383.7,550.5,384.2z M557.9,384c-0.1,0.2-0.2,0.3-0.4,0.5
						c0.9-0.4,1.7-0.7,2.6-1c-0.5,0.1-1,0.3-1.5,0.4C558.3,383.9,558.1,383.9,557.9,384z M564.6,383.2c0.7,0.7,2,1.2,3.3,0.5
						c0.3-0.2,0.6-0.4,0.9-0.6l-1.1-1.1C566.6,382.4,565.6,382.8,564.6,383.2z M554.8,383.6c0.1,0.1,0.1,0.1,0.2,0.2
						c0.8-0.2,1.6-0.4,2.4-0.6c0.5-0.6,1-1.2,1.6-1.8c-0.3-0.4-0.6-0.8-0.7-1.3C557.1,381.3,555.9,382.5,554.8,383.6z M583.5,356.1
						c-13.9,3.1-26,15.7-35.9,25.9c-0.4,0.5-0.9,0.9-1.3,1.4c1.6-1,3.3-1.9,5.1-2.7c7.1-9.3,17.1-15.4,26.7-21.3
						C579.9,358.4,581.7,357.3,583.5,356.1z M553.6,382l0.4,0.5c0.1,0.1,0.2,0.3,0.3,0.4c1-1.1,2.1-2.2,3.2-3.3
						c-0.5,0.2-1.1,0.5-1.6,0.7C555.1,380.9,554.4,381.5,553.6,382z M552,381.4c-0.4,0.5-0.7,1-1.1,1.5c0,0,0,0,0,0
						c0.5-0.4,1-0.7,1.5-1.1L552,381.4C552,381.4,552,381.4,552,381.4z M559.6,382c-0.3,0.3-0.5,0.6-0.8,0.9
						c0.5-0.1,1.1-0.3,1.6-0.4c-0.1-0.1-0.3-0.1-0.4-0.2C559.9,382.2,559.7,382.1,559.6,382z M568.6,381.7l0.5,0.5
						c0.2-0.3,0.4-0.6,0.5-0.9C569.3,381.5,568.9,381.6,568.6,381.7z M570.9,381c-0.3,0.4-0.5,0.8-0.7,1.1c0.6-0.4,1.2-0.9,1.8-1.4
						C571.6,380.8,571.3,380.9,570.9,381z M560.2,381.3c0.1,0.1,0.2,0.1,0.3,0.2c0.5,0.3,1.4,0.5,2.4-0.2l0,0c0,0,0,0,0,0
						c0-0.6,0.1-1.2,0.5-1.7c-0.2-0.3-0.4-0.5-0.6-0.8C561.8,379.6,561,380.4,560.2,381.3z M565.1,380.9c-0.2,0.1-0.3,0.3-0.5,0.4
						c0.6-0.2,1.2-0.3,1.9-0.5l-0.6-0.6c-0.1,0.1-0.2,0.2-0.3,0.3l-0.3,0.2l0,0L565.1,380.9z M563.9,380.3c-0.1,0.1-0.1,0.3-0.1,0.4
						c0.1-0.1,0.2-0.1,0.3-0.2C564,380.5,564,380.4,563.9,380.3z M558.9,379.4c0.1,0.5,0.3,0.9,0.6,1.3c0.9-0.9,1.7-1.8,2.7-2.6
						c-0.1-0.1-0.2-0.2-0.3-0.3c-0.8,0.3-1.6,0.6-2.3,1C559.4,379,559.2,379.2,558.9,379.4z M566.5,379.6l1,1
						c1.2-0.3,2.3-0.7,3.5-1.1c0.8-1.2,1.8-2.4,2.7-3.5c-0.6-0.3-1.2-0.8-1.6-1.4c-0.3,0.1-0.7,0.1-1,0.2c-1.4,1.1-2.8,2.2-4.3,3.1
						C566.8,378.5,566.7,379,566.5,379.6z M575.8,379.5c1.7,0,3.4,0.3,5.1,1v-3.3c-1.9,0.8-3.8,1.5-5.7,2.1
						c-0.1,0.1-0.2,0.2-0.3,0.3C575.2,379.5,575.5,379.5,575.8,379.5z M564.4,379.5c0.1,0.2,0.3,0.4,0.4,0.6l0.3-0.2
						c0.1-0.1,0.2-0.1,0.2-0.2l-0.6-0.6C564.6,379.2,564.5,379.3,564.4,379.5z M584.9,356.3c-2.1,1.3-4.3,2.7-6.4,3.9
						C569,366,560,371.5,553.1,380c1.2-0.5,2.4-1,3.6-1.5c0.6-0.5,1.2-0.9,1.7-1.4c0.3-0.5,0.7-0.9,1.3-1.3l0.1-0.1
						c0.5-0.3,1-0.6,1.5-0.9c0.5-0.3,1.1-0.5,1.6-0.5c3.9-3.6,8.1-6.9,12.4-9.4c3.1-3,6.4-5.8,9.6-8.5c0,0,0,0,0,0L584.9,356.3z
						 M574.5,376.3c-0.8,0.9-1.5,1.8-2.2,2.7c1.1-0.4,2.1-0.8,3.2-1.2c1.3-1.1,2.7-2.2,4-3.3c-0.3,0-0.5-0.1-0.8-0.1
						c-0.4,0.3-0.7,0.7-1.1,1C576.7,376.2,575.6,376.5,574.5,376.3z M565.6,378.7l0.2,0.2c0.1-0.1,0.1-0.3,0.1-0.4
						C565.8,378.5,565.7,378.6,565.6,378.7z M563.4,378.2c0.1,0.2,0.3,0.4,0.4,0.6c0.5-0.7,0.9-1.5,1.4-2.2
						C564.6,377.1,564,377.6,563.4,378.2z M565.8,377.3c-0.1,0.1-0.2,0.2-0.2,0.4c0.1-0.1,0.2-0.1,0.3-0.2
						C565.8,377.4,565.8,377.4,565.8,377.3z M560.8,376.4l-0.6,0.5c-0.3,0.3-0.7,0.5-1,0.8c0.1,0,0.3-0.1,0.4-0.1
						C560,377.1,560.4,376.7,560.8,376.4z M562.8,377.4C562.8,377.5,562.8,377.5,562.8,377.4c0.1,0,0.2,0,0.3-0.1
						C563,377.3,562.9,377.4,562.8,377.4z M566.4,376.5c0.1,0.2,0.2,0.3,0.2,0.5c0.8-0.5,1.6-1.1,2.4-1.7c-0.8,0.3-1.5,0.5-2.3,0.8
						C566.6,376.2,566.5,376.4,566.4,376.5z M580.7,374.8c-0.8,0.6-1.6,1.2-2.4,1.9c1-0.4,1.9-0.9,2.8-1.4l0.5-0.3
						C581.3,374.9,581,374.8,580.7,374.8z M562,376.4c0.1,0.1,0.1,0.2,0.2,0.2c0.5-0.2,1-0.3,1.5-0.5c0.3-0.1,0.6-0.2,0.9-0.4
						c-0.4-0.3-0.9-0.5-1.4-0.6C562.8,375.6,562.4,376,562,376.4z M581.7,375.1v0.8c0.3-0.1,0.7-0.3,1-0.4
						C582.3,375.3,582,375.2,581.7,375.1z M575.2,375.5c0.5,0,1.2-0.1,1.9-0.7c0.2-0.2,0.4-0.3,0.5-0.5c-0.4,0-0.9,0-1.3-0.1
						C575.9,374.6,575.6,375.1,575.2,375.5z M564,374.5c0.5,0.2,1,0.4,1.4,0.8c0.6-0.5,1.2-0.9,1.7-1.3c1.7-2.2,3.6-4.3,5.6-6.4
						C569.7,369.6,566.8,372,564,374.5z M573,374.4c0.3,0.4,0.7,0.6,1.2,0.8c0.3-0.3,0.6-0.7,0.9-1
						C574.4,374.3,573.7,374.4,573,374.4z M581.6,374.1c0.7,0.2,1.4,0.5,2.2,0.8c2.7-1.3,5.3-2.8,7.6-4.7
						C587.9,370.3,584.6,371.9,581.6,374.1z M567.8,374.6c0,0.1-0.1,0.1-0.1,0.2c0.5-0.2,1.1-0.3,1.6-0.5c0.6-0.2,1.2-0.4,1.8-0.6
						c0.2-0.1,0.3-0.2,0.5-0.4c0,0,0,0,0-0.1c-0.1-0.5-0.1-0.9,0-1.4C570.3,372.8,569,373.7,567.8,374.6z M579.6,373.7
						c0.3,0.1,0.6,0.1,0.9,0.2c3.2-2.3,6.5-4.2,10.2-4.5l-1.8-4.2c-1.2,1.1-2.5,2.1-3.9,3C583.3,370,581.5,371.9,579.6,373.7z
						 M577.1,373.4c0.5,0,0.9,0.1,1.4,0.1c1.3-1.2,2.5-2.4,3.7-3.6c-1.1,0.6-2.2,1.2-3.4,1.7C578.2,372.2,577.6,372.8,577.1,373.4z
						 M576.8,372.5c-0.8,0.3-1.6,0.7-2.4,1c0.5,0,1.1-0.1,1.6-0.1C576.2,373.1,576.5,372.8,576.8,372.5z M583.5,365.9
						c-3.6,1.7-6.8,4.3-10,6.9c1.6-0.6,3.2-1.3,4.8-2C580,369.2,581.7,367.5,583.5,365.9z M573.6,370.5c-0.2,0.1-0.3,0.3-0.5,0.4
						c-0.7,0.6-0.9,1.2-0.9,1.8c0.2-0.2,0.4-0.3,0.6-0.5c4-3.2,8-6.4,12.7-8.1c3.8-3.3,7.7-6.3,11.3-9.1l1.2-1l-3.8-3.8
						c-1.9,1.5-3.7,3.2-5.5,4.9c0.6,0.4,1,0.9,1.3,1.7c0.5,1.5,0.2,3.6-1.4,4.6c-2.4,1.5-4.8,3-7.2,4.4
						C578.8,367.3,576.2,368.9,573.6,370.5z M575.9,365.7c-2.1,2.1-4.2,4.2-6,6.4c1.1-0.7,2.1-1.5,3.2-2.2c2.1-1.8,4-3.8,5.9-5.8
						C578,364.6,576.9,365.1,575.9,365.7z M589.4,364.1l2.4,5.7c0.5-0.4,1-0.8,1.4-1.3c0.8-0.7,1-1.9,0.5-3
						c-0.4-0.8-1.2-1.7-2.4-1.7C590.7,363.9,590.1,364,589.4,364.1z M586,364.9c-1.8,1.5-3.5,3.1-5.2,4.7c1.3-0.7,2.5-1.4,3.7-2.2
						c0.8-0.8,1.5-1.6,2.2-2.4c0.2-0.2,0.4-0.4,0.5-0.6C586.8,364.6,586.4,364.8,586,364.9z M581,363.3c-1.3,1.4-2.7,2.8-4.1,4.2
						c1.4-0.8,2.7-1.6,4.1-2.5c1.7-1,3.4-2,5-3C584.3,362.2,582.6,362.7,581,363.3z M585.2,357.4c-2.4,2-4.8,4-7.1,6.2
						c0.8-0.4,1.6-0.7,2.3-1c0.6-0.6,1.2-1.3,1.8-1.9C583.3,359.6,584.3,358.5,585.2,357.4C585.3,357.4,585.3,357.4,585.2,357.4z
						 M590.4,361.2c-0.9,0.8-1.9,1.5-2.8,2.3c0.2-0.1,0.5-0.1,0.7-0.2C589,362.7,589.7,362,590.4,361.2z M585.5,358.4
						c-0.9,0.9-1.8,1.9-2.6,2.8c-0.2,0.2-0.4,0.5-0.7,0.7c1.3-0.4,2.7-0.7,4-0.9C586,360.2,585.8,359.3,585.5,358.4z M586.2,357.7
						c0.3,1.2,0.6,2.4,1,3.5c0.3-0.2,0.6-0.4,1-0.6c1.2-0.8,1.5-2.4,1.1-3.6c-0.1-0.3-0.4-1-1.1-1.3
						C587.5,356.4,586.9,357.1,586.2,357.7z M585.7,355.7l0,0.1c0.1-0.1,0.1-0.1,0.2-0.2C585.9,355.7,585.8,355.7,585.7,355.7z
						 M594.9,349.7l3.8,3.8c1-1,0.7-2.1,0.1-2.9C597.9,349.5,596.3,348.9,594.9,349.7z"/>
				</g>
			</g>
		</g>
	</g>
</g>
<g>
	<g>
		<g>
			<g>
				<g>
					<path class="st3" d="M548.3,346.3c-2.5,3.6-5,6.8-8,10c-1.2,1.3-2.4,2.5-3.5,3.8c3.8-0.4,4.5-0.7,2-0.9c-6.3-1-9.6-4-14-8.7
						c-13.9-14.8-36.1,7.5-22.3,22.3c10.9,11.6,22,16.5,37.6,18.1c15.4,1.7,28-18.1,35.4-28.7C587,345.4,559.7,329.7,548.3,346.3
						L548.3,346.3z"/>
				</g>
			</g>
			<g>
				<g>
					<path class="st3" d="M541.9,391.4c-0.6,0-1.2,0-1.9-0.1c-16.4-1.8-27.4-7.1-37.9-18.3c-7.3-7.8-4.9-17.6,1.2-23.3
						c5.5-5.1,14.6-7.2,21.7,0.4c4,4.2,7,7.2,12.5,8.4l2.4-2.6c2.8-2.9,5.3-6.1,7.9-10c3.5-5.1,8.8-7.7,14.9-7.2
						c6.3,0.5,12.1,4.3,14.6,9.5c2.1,4.5,1.5,9.4-1.6,14l-1.2,1.8C567.5,374.5,555.9,391.4,541.9,391.4z M514,346
						c-3.3,0-6.8,1.3-10.1,4.4c-5.8,5.4-8,14.7-1.1,22.1c10.4,11.1,21.2,16.3,37.4,18c14.3,1.5,26.5-16.2,33.7-26.8l1.2-1.8
						c3-4.3,3.5-9,1.6-13.1c-2.3-4.9-7.9-8.6-13.9-9.1c-5.7-0.5-10.8,1.9-14.1,6.8v0c-2.7,3.9-5.2,7.1-8,10.1l-2,2.2
						c0.1,0,0.1,0,0.2,0c1.3,0.1,1.8,0.2,1.9,0.7c0,0.5-0.2,0.7-3.9,1l-1.1,0.1l1.3-1.3c-5.4-1.3-8.5-4.3-12.5-8.5
						C521.7,347.9,518,346,514,346z M537.9,359.5L537.9,359.5C537.9,359.5,537.9,359.5,537.9,359.5
						C537.9,359.5,537.9,359.5,537.9,359.5z"/>
				</g>
			</g>
		</g>
	</g>
</g>
<g>
	<g>
		<g>
			<g>
				<g>
					<path class="st3" d="M555.9,373.8c-5.3,2.9-10.5,6.1-15.7,9.2c-6.7,4-10.8,14.6-5.6,21.5c0.7,0.9,1.2,1.8,1.7,2.8
						c-3.1-6.1,1.7,4,1.1,2.7c1.7,3.9,4.7,7.1,8.2,9.4c6.2,4,13.6,4.2,20.6,5.8c8.4,1.9,17-2.4,19.4-11c2.2-8-2.6-17.5-11-19.4
						c-2.5-0.6-4.9-1-7.4-1.4c-1-0.2-2-0.3-3-0.5c-0.6-0.1-5.2-1.7-1.7-0.1c1.2,0.8,2.2,1.7,2.9,3c-1.8-2.7,1.4,3.5,0.1,0.4
						c-1-2.6-2-5.2-3.7-7.4c-1.9,7.2-3.8,14.4-5.6,21.5c5.2-3.1,10.4-6.3,15.7-9.2c7.5-4.1,9.9-14.3,5.6-21.5
						C573,371.9,563.4,369.7,555.9,373.8L555.9,373.8z"/>
				</g>
			</g>
			<g>
				<g>
					<path class="st3" d="M570.2,426c-1.3,0-2.7-0.2-4.1-0.5c-1.9-0.4-3.8-0.8-5.7-1.1c-5.1-0.9-10.5-1.8-15.1-4.7
						c-3.8-2.4-6.7-5.8-8.4-9.5l0,0l0-0.1c-0.2-0.3-0.5-0.9-1-2c-0.5-1.1-0.8-1.8-1-2.3c-0.2-0.4-0.5-0.8-0.8-1.1
						c-2.2-2.9-2.9-6.6-2.1-10.6c1-4.8,4-9.2,7.9-11.5c1.5-0.9,3.1-1.8,4.6-2.7c3.6-2.2,7.3-4.4,11.1-6.5l0,0
						c8-4.3,17.7-1.8,22.1,5.8c2.2,3.7,2.7,8.3,1.5,12.7c-0.3,1.3-0.8,2.4-1.4,3.5c2.5,1.3,4.7,3.3,6.2,5.9
						c2.4,3.9,3.1,8.6,1.9,12.8C584,421.4,577.6,426,570.2,426z M537.8,409.8c1.5,3.6,4.4,6.8,8.1,9.2c4.5,2.9,9.7,3.8,14.7,4.6
						c1.9,0.3,3.8,0.6,5.7,1.1c8.5,1.9,16.6-2.7,18.8-10.7c1.1-4,0.4-8.4-1.8-12.2c-1.5-2.5-3.5-4.4-5.9-5.6c-1.4,2.2-3.2,4-5.5,5.2
						c-3.7,2-7.3,4.2-10.9,6.3c-1.6,1-3.2,1.9-4.8,2.9l-0.9,0.5l0.3-1c1.2-4.7,2.5-9.5,3.7-14.2l2.1-8.2l0.5,0.7
						c1,1.3,1.7,2.6,2.3,4c0.9,0.2,1.9,0.4,2.8,0.5c2.4,0.4,5,0.8,7.5,1.4c0.8,0.2,1.6,0.4,2.4,0.8c0.6-1,1-2.2,1.4-3.4
						c1.1-4.1,0.6-8.5-1.4-12c-4.2-7.2-13.4-9.6-21-5.5l0,0c-3.8,2-7.5,4.3-11.1,6.4c-1.5,0.9-3,1.8-4.6,2.7
						c-3.7,2.2-6.6,6.5-7.5,11c-0.7,3.7,0,7.3,2,9.9c0.1,0.2,0.3,0.4,0.4,0.6c0.2,0,0.5,0.5,1.3,2.2l-0.1,0.1
						C537,408.2,537.6,409.4,537.8,409.8L537.8,409.8z M561.1,392.6l-0.9,3.5c-1.2,4.4-2.3,8.8-3.5,13.2c1.3-0.8,2.6-1.5,3.9-2.3
						c3.5-2.1,7.2-4.3,10.9-6.3c2.1-1.1,3.8-2.8,5.1-4.8c-0.7-0.3-1.4-0.5-2.2-0.7c-2.5-0.6-5-1-7.4-1.4c-0.8-0.1-1.5-0.2-2.3-0.4
						c0.3,0.6,0.5,1.3,0.8,2c0,0,0,0.1,0.1,0.1l0,0l0.2,0.4c0.3,0.9,0.5,1.3,0.1,1.5c-0.4,0.2-0.6-0.2-1-0.9
						c-0.4-0.8-0.6-1.2-0.6-1.5c-0.6-0.8-1.3-1.4-2.2-1.9C561.7,392.9,561.4,392.7,561.1,392.6z M563.7,393.1c0,0,0.1,0.1,0.1,0.1
						c0,0,0-0.1,0-0.1C563.7,393.1,563.7,393.1,563.7,393.1z M561.4,391.6c0.3,0.1,0.9,0.2,1.7,0.5c0.1,0,0.1,0,0.2,0.1
						c-0.4-0.9-0.9-1.7-1.4-2.5L561.4,391.6z"/>
				</g>
			</g>
		</g>
	</g>
</g>
<g>
	<g>
		<g>
			<g>
				<g>
					<path class="st3" d="M587.4,358.1c-2.1-3.8,0.9,2.9-0.4-0.6c-0.5-1.3-0.9-2.6-1.4-3.9c-1.7-4.5-3.7-7.8-7-11.5
						c-2.5-2.8-6-4.9-9.4-6.4c2.4,1-9-3.8-3.3-1.3c-0.7-0.3-1.4-0.6-2-1c1.1,0.7,1.9,1.6,2.4,2.7c-5.1-6.9-13.5-10.4-21.5-5.6
						c-6.8,4-10.8,14.6-5.6,21.5c2.9,3.8,5.6,6.8,9.9,9.1c1.8,1,4.1,1.8,5.9,2.5c1.6,0.7,1.5,0.6-0.5-0.2c0.7,0.3,1.4,0.7,2.1,1.1
						c-3.2-1.8,1.5,1.9-1.1-1.4c0.4,0.6,0.7,1.2,1,1.8c-0.9-2.2-1.1-2.5-0.5-0.9c1.2,3.5,2.5,6.9,4.3,10.2
						c4.1,7.5,14.3,9.9,21.5,5.6C589.3,375.2,591.5,365.6,587.4,358.1L587.4,358.1z"/>
				</g>
			</g>
			<g>
				<g>
					<path class="st3" d="M573.9,382.2c-1.5,0-3.1-0.2-4.6-0.6c-4.2-1.2-7.5-3.8-9.5-7.3c-1.7-3-2.9-6.3-4-9.4
						c-0.3-0.1-0.5-0.3-0.6-0.4c-0.2-0.2-0.3-0.3-0.3-0.4c-0.1,0-0.2-0.1-0.2-0.1c-0.4-0.2-0.8-0.3-1.2-0.5
						c-1.5-0.6-3.2-1.3-4.7-2.1c-4.3-2.3-7.1-5.4-10-9.2c-2.2-2.9-2.9-6.7-2.1-10.7c1-4.8,4-9.2,7.9-11.5c6.6-3.9,14-2.6,19.7,3.1
						c0.4,0.2,0.9,0.5,1.3,0.7c0.2,0.1,0.4,0.2,0.7,0.3c1.1,0.5,2.5,1,3.1,1.3l0,0c2.7,1.2,6.6,3.3,9.6,6.5
						c3.2,3.6,5.3,6.9,7.1,11.6c0.3,0.7,0.5,1.4,0.7,2.1c0.2,0.5,0.3,1,0.5,1.5c0.1,0.2,0.3,0.5,0.5,0.9v0c4.3,8,1.8,17.7-5.8,22.1
						C579.6,381.4,576.8,382.2,573.9,382.2z M556.7,364.7c1.1,3,2.3,6.2,3.9,9.1c1.8,3.4,5,5.8,9,6.9c4.1,1.1,8.5,0.6,12-1.4
						c7-4.1,9.5-12.9,5.8-20.3c-0.3,0.1-0.5-0.3-0.7-0.8c-0.4-0.8-0.5-1.3-0.4-1.5c-0.1-0.3-0.2-0.6-0.3-0.9
						c-0.2-0.7-0.5-1.4-0.7-2.1c-1.7-4.6-3.7-7.8-6.9-11.3c-2.7-3-6.3-5-9-6.2l0,0c0,0,0,0,0,0c-0.1,0-0.2-0.1-0.3-0.1c0,0,0,0,0,0
						l0,0c-0.5-0.2-1.4-0.6-2.9-1.2c0.2,0.3,0.4,0.6,0.6,1l-0.7,0.4c-0.7-0.9-1.4-1.8-2.3-2.6c0,0,0,0-0.1,0l0,0
						c-4.5-4.4-11.4-7.2-18.7-2.9c-3.7,2.2-6.5,6.3-7.5,10.9c-0.8,3.8-0.1,7.3,1.9,10c2.9,3.9,5.6,6.8,9.7,9c1.4,0.7,3.1,1.4,4.6,2
						c0.3,0.1,0.5,0.2,0.8,0.3l0,0c0.2,0.1,0.4,0.2,0.5,0.2l0.1-0.1c-0.1-0.4-0.1-0.5,0.2-0.7c0.4-0.1,0.4-0.2,1.1,1.5
						c0,0,0.1,0.1,0.1,0.1l-0.1,0.1c0.1,0.1,0.1,0.3,0.2,0.5L556.7,364.7z"/>
				</g>
			</g>
		</g>
	</g>
</g>
<g>
	<g>
		<g>
			<g>
				<g>
					<path class="st3" d="M601,351c1.9-10.5,2.4-22.1-6.7-29.7c-6.6-5.5-15.8-6.5-22.3,0c-5.7,5.7-6.6,16.8,0,22.3
						c2.7,2.2-1.5-3,0-0.2c-0.3-0.7-0.6-1.4-1-2.1c-0.2-2.7-0.3-3.2-0.2-1.4c0,1-0.4,4.4,0.2-0.3c-0.1,1-0.3,2-0.5,3
						c-1.6,8.4,2.2,16.9,11,19.4C589.4,364.2,599.4,359.5,601,351L601,351z"/>
				</g>
			</g>
			<g>
				<g>
					<path class="st0" d="M585.5,362.9c-1.4,0-2.7-0.2-4-0.5c-8.4-2.3-13-10.5-11.3-19.9l0-0.2c-1.9-2.3-3-5.3-3.2-8.6
						c-0.2-4.7,1.6-9.6,4.7-12.7c6.1-6.1,15.5-6.1,22.8,0c9.5,7.9,8.6,20.2,6.8,30.1l0,0c-0.7,3.7-3,6.9-6.5,9.2
						C592.1,362,588.7,362.9,585.5,362.9z M571,343.2c-1.4,8.7,3,16.2,10.8,18.4c4,1.1,8.9,0.3,12.7-2.1c3.3-2.1,5.5-5.1,6.1-8.6
						l0,0c1.8-9.6,2.6-21.6-6.5-29.3c-7-5.8-15.9-5.8-21.7,0c-3,3-4.7,7.6-4.5,12.1c0.1,2.9,1,5.5,2.5,7.5c0-0.5,0.1-1.1,0.1-1.4
						c-0.1-1.2-0.1-1.4,0.4-1.5c0.4,0,0.4,0,0.6,1.2l0.2,0l0,0l0,0c0,0.3-0.1,0.5-0.1,0.7c0,0.2,0,0.5,0.1,0.8l0.5,1
						c0.2,0.1,0.4,0.3,0.6,0.5c1.1,1.3,0.8,1.6,0.7,1.8c-0.4,0.4-0.9-0.1-1.5-0.5C571.5,343.7,571.2,343.5,571,343.2z"/>
				</g>
			</g>
		</g>
	</g>
</g>
<g>
	<g>
		<g>
			<g>
				<g>
					<path class="st3" d="M570.9,362.3c11.3,1.1,21.9-2.3,29.6-11c5.6-6.4,6.4-15.9,0-22.3c-5.8-5.8-16.6-6.4-22.3,0
						c-1,1.1-2,2.1-3.1,3.1c1.9-1.4,2.2-1.7,0.9-0.8c-2.8,1.7,3.6-1.2,0.5-0.2c-1.6,0.4-1.1,0.3,1.6-0.1c-0.6,0.1-1.2,0.1-1.9,0.1
						c-1.8,0.1-3.5-0.1-5.3-0.3c-8.6-0.9-15.7,7.8-15.7,15.7C555.2,355.7,562.4,361.4,570.9,362.3L570.9,362.3z"/>
				</g>
			</g>
			<g>
				<g>
					<path class="st3" d="M575.1,362.9c-1.4,0-2.8-0.1-4.2-0.2l0,0c-8-0.8-16.1-6.1-16.1-16.2c0-4.5,2.2-9.2,5.8-12.5
						c3.1-2.8,6.8-4.1,10.4-3.7c1.7,0.2,3.5,0.4,5.1,0.3c0.6-0.6,1.2-1.2,1.8-1.9c2.6-2.9,6.3-4.6,10.5-4.7
						c4.6-0.1,9.3,1.6,12.4,4.7c6.2,6.2,6.2,15.8,0,22.9C594.3,359,585.3,362.9,575.1,362.9z M569.8,331.2c-3.1,0-6.1,1.2-8.7,3.6
						c-3.4,3.1-5.5,7.6-5.5,11.8c0,9.5,7.7,14.5,15.3,15.3l0,0c11.7,1.2,22-2.7,29.2-10.8c5.9-6.7,5.9-15.8,0-21.7
						c-2.9-2.9-7.3-4.6-11.7-4.5c-4,0.1-7.5,1.7-9.9,4.4c-0.3,0.4-0.7,0.8-1,1.1c0.1,0,0.1,0.1,0.2,0.1c0.1,0,0.2,0,0.3,0l0.1,0.9
						c-0.4,0.1-0.7,0.1-1,0.2c-0.2,0.1-0.4,0.2-0.7,0.3c-0.2,0.1-0.4,0.2-0.6,0.2c-0.1,0.1-0.3,0.2-0.5,0.4l-0.2-0.2
						c-0.1,0-0.2-0.1-0.3-0.2c-0.1-0.2-0.1-0.3,0-0.5c-1.3,0-2.7-0.2-4-0.3C570.6,331.2,570.2,331.2,569.8,331.2z"/>
				</g>
			</g>
		</g>
	</g>
</g>
<g>
	<g>
		<g>
			<g>
				<g>
					<path class="st3" d="M582.6,395.4c2-3.1,3.4-6.6,5.4-9.7c-2.1,3.3,1-1.2,1.5-1.8c1.4-1.6,2.8-3.3,4.1-5
						c-8.8-5.1-17.5-10.2-26.3-15.3c0.3-0.6,0.6-1.2,0.9-1.9c-3.7,7.7-2.2,17,5.6,21.5c7,4.1,17.8,2.1,21.5-5.6
						c0.9-1.8,1.8-3.6,2.2-5.6c1.3-7-0.8-14-7.2-17.8c-5.6-3.3-14.8-3-19.1,2.5c-3.2,4.1-6.7,7.9-9.8,12.1
						c-2.5,3.3-3.9,7.3-6.1,10.7c-4.7,7.2-1.5,17.4,5.6,21.5C568.7,405.6,577.9,402.6,582.6,395.4L582.6,395.4z"/>
				</g>
			</g>
			<g>
				<g>
					<path class="st3" d="M568.9,403.6c-2.7,0-5.5-0.7-8-2.2c-3.7-2.2-6.6-6.1-7.6-10.6c-1-4.2-0.3-8.3,1.8-11.6
						c1-1.5,1.8-3.2,2.6-4.8c1-2,2.1-4.1,3.5-6c1.9-2.5,3.9-5,5.9-7.3c1.3-1.6,2.6-3.2,3.9-4.8c4.5-5.7,13.9-5.9,19.6-2.6
						c6.2,3.6,8.9,10.4,7.4,18.2c-0.4,1.9-1.2,3.6-2,5.2l-0.3,0.5c-1.2,2.4-3.1,4.4-5.5,5.8c-0.2,0.2-0.3,0.4-0.5,0.6
						c-0.2,0.2-0.6,0.8-1,1.4c-0.6,0.9-1,1.3-1.2,1.6c-0.7,1.2-1.3,2.4-1.9,3.5c-0.8,1.7-1.7,3.4-2.8,5l0,0
						C579.6,400.8,574.3,403.6,568.9,403.6z M567.8,361.7C567.8,361.8,567.8,361.8,567.8,361.7c-2,2.4-4,4.8-5.9,7.3
						c-1.3,1.8-2.4,3.9-3.4,5.9c-0.8,1.6-1.7,3.3-2.7,4.8c-2,3.1-2.6,7-1.7,10.9c1,4.2,3.7,7.9,7.2,10c7.1,4.2,16.2,1.8,20.9-5.5
						c1-1.6,1.9-3.3,2.7-4.9c0.6-1.2,1.2-2.4,1.9-3.6c0.1-0.2,0.3-0.6,0.7-1.2c0,0,0,0,0,0l0.1,0.1c0.1-0.2,0.2-0.3,0.4-0.5
						c0.1-0.2,0.3-0.4,0.4-0.6c-0.5,0.2-1,0.4-1.5,0.5c-4.5,1.4-9.5,0.9-13.3-1.4c-6.9-4-9.5-11.9-6.8-19.8l-0.2-0.1l0.2-0.4
						C567.2,362.9,567.5,362.3,567.8,361.7z M567.6,364.4c-2.5,7.4,0,14.8,6.5,18.6c3.6,2.1,8.3,2.6,12.7,1.3c1.1-0.3,2.1-0.8,3-1.3
						c1.1-1.3,2.1-2.6,3.2-3.9l-7-4.1C579.9,371.5,573.8,367.9,567.6,364.4z M567.9,363.5c6.2,3.6,12.3,7.2,18.5,10.7l7.9,4.6
						l-0.3,0.4c-0.4,0.5-0.7,0.9-1.1,1.4c0.9-0.9,1.6-2,2.2-3.1l0.3-0.5c0.8-1.6,1.6-3.3,1.9-5c1.4-7.4-1.2-13.9-7-17.3
						c-5.4-3.2-14.3-3-18.5,2.4c-1.2,1.6-2.5,3.1-3.8,4.6l0.7,0.4C568.4,362.5,568.1,363,567.9,363.5z"/>
				</g>
			</g>
		</g>
	</g>
</g>
<g>
	<g>
		<g>
			<g>
				<path class="st1" d="M507.4,423.8c-23-18.3-24.7-53-11.6-78.2c11.9,8.4,17.2,20.6,15.1,35c13.3-6.1,23.5-3.9,36.8-1.7"/>
			</g>
		</g>
		<g>
			<g>
				<path class="st0" d="M506.8,424.6c-24.5-19.5-24.4-55.5-11.8-79.5l0.6-1.1l1,0.7c11.8,8.3,17.2,20.1,15.8,34.1
					c12.1-5,21.7-3.4,33.7-1.3l1.9,0.3l-0.3,2.1l-2-0.3c-12.2-2.1-21.9-3.7-34.2,1.9l-1.7,0.8l0.3-1.9c1.9-13.6-2.8-25.1-13.7-33.2
					c-11.6,23.2-11.4,57.2,11.8,75.8L506.8,424.6z"/>
			</g>
		</g>
	</g>
	<g>
		<g>
			<g>
				<path class="st1" d="M507.4,423.8c20.7,21,55.3,19,78.9,3.3c-9.6-10.9-22.3-14.9-36.4-11.4c4.6-13.8,1.4-23.8-2.2-36.7"/>
			</g>
		</g>
		<g>
			<g>
				<path class="st0" d="M546.3,440.2c-14.4,0-28.7-4.6-39.7-15.7l1.5-1.5c15.6,15.9,47.7,22.4,76.6,3.8
					c-9.3-10-21.2-13.5-34.5-10.1l-1.9,0.5l0.6-1.8c4.3-12.8,1.6-22.3-1.7-34.2l-0.5-1.9l2-0.6l0.5,1.9c3.3,11.7,5.9,21.1,2.2,33.7
					c13.8-2.9,26.1,1.3,35.6,12.1l0.8,0.9l-1,0.7C575.6,435.5,560.9,440.2,546.3,440.2z"/>
			</g>
		</g>
	</g>
	<g>
		<g>
			<g>
				<path class="st1" d="M502.8,350.5c10-14.2,23.8-25.1,40.5-30c5.3,18,2.4,39.4-3.5,57.1"/>
			</g>
		</g>
		<g>
			<g>
				<path class="st0" d="M540.9,378l-2.1-0.7c6.6-19.9,8-40,3.8-55.3c-15.3,4.8-28.7,14.9-38.8,29.2l-1.9-1.3
					c10.6-15.1,24.8-25.6,41.1-30.4l1.1-0.3l0.3,1.1C547.1,329.6,550.3,349.5,540.9,378z"/>
			</g>
		</g>
	</g>
	<g>
		<g>
			<g>
				<path class="st1" d="M581.5,421.3c13.1-11.4,22.4-26.3,25.5-43.4c-18.4-3.4-39.4,1.8-56.4,9.5"/>
			</g>
		</g>
		<g>
			<g>
				<path class="st0" d="M582.3,422.2l-1.5-1.7c13.2-11.5,21.8-25.9,25-41.6c-15.7-2.5-35.5,0.9-54.6,9.6l-0.9-2.1
					c27.3-12.4,47.5-11.3,57.1-9.6l1.1,0.2l-0.2,1.1C605.1,394.8,596.2,410,582.3,422.2z"/>
			</g>
		</g>
	</g>
	<g>
		<g>
			<g>
				<path class="st1" d="M545.8,330.6c6.9-9.6,16.8-18.3,27.9-21.9c3.1,11.8,2.7,19.9-1.5,31.8"/>
			</g>
		</g>
		<g>
			<g>
				<path class="st0" d="M572.9,340.7l-1.4-0.5c4.1-11.5,4.6-19.3,1.7-30.6c-9.8,3.4-19.5,11.1-26.8,21.3l-1.2-0.9
					c7.6-10.7,17.9-18.8,28.3-22.1l0.7-0.2l0.2,0.8C577.5,320.4,577.1,328.8,572.9,340.7z"/>
			</g>
		</g>
	</g>
	<g>
		<g>
			<g>
				<path class="st1" d="M596.5,376.2c8.8-7.8,16.2-18.8,18.6-30.2c-12.1-1.9-20.2-0.6-31.5,4.9"/>
			</g>
		</g>
		<g>
			<g>
				<path class="st0" d="M597,376.8l-1-1.1c9.2-8.2,15.8-18.7,18.2-29c-11.5-1.7-19.2-0.4-30.3,4.9l-0.6-1.3
					c11.5-5.5,19.8-6.8,31.9-4.9l0.8,0.1l-0.2,0.8C613.6,357.1,606.7,368.2,597,376.8z"/>
			</g>
		</g>
	</g>
	<g>
		<g>
			<g>
				<path class="st1" d="M575.3,378.4c6.4-9.9,9.5-28.2,8.8-39.8c-12.1,1.4-29,4.8-38.5,13"/>
			</g>
		</g>
		<g>
			<g>
				<path class="st0" d="M575.9,378.8l-1.2-0.8c6.2-9.5,9.2-26.8,8.7-38.6c-12.2,1.5-28.3,4.9-37.3,12.8l-1-1.1
					c9.5-8.3,26.4-11.8,38.9-13.2l0.8-0.1l0,0.8C585.5,350.5,582.4,368.9,575.9,378.8z"/>
			</g>
		</g>
	</g>
	<g>
		<g>
			<g>
				<path class="st1" d="M604,345.3c6.4-9.9,7.5-24.7,6.8-36.3c-12.1,1.4-25.7,2.1-35.2,10.4"/>
			</g>
		</g>
		<g>
			<g>
				<path class="st0" d="M604.6,345.7l-1.2-0.8c6.8-10.5,7.2-26.2,6.7-35.1c-0.9,0.1-1.8,0.2-2.7,0.3c-11.2,1.2-22.9,2.5-31.3,9.9
					l-1-1.1c8.8-7.6,20.6-8.9,32.1-10.2c1.2-0.1,2.3-0.3,3.5-0.4l0.8-0.1l0,0.8C612,317.9,611.9,334.5,604.6,345.7z"/>
			</g>
		</g>
	</g>
</g>
<g>
	<g>
		<g>
			<g>
				<path class="st1" d="M280.9,394.4c-1.5-4-3.6-7.4-6.2-10.2c-2.6-2.8-5.8-4.9-9.4-6.4c-3.6-1.5-7.6-2.3-11.9-2.3
					c-4.3,0-8.2,0.8-11.8,2.3c-3.6,1.5-6.7,3.7-9.4,6.4c-2.6,2.8-4.7,6.2-6.2,10.2c-1.5,4-2.2,8.5-2.2,13.5c0,4.8,0.7,9.2,2.2,13.1
					c1.5,3.9,3.5,7.2,6.2,10c2.6,2.8,5.8,4.9,9.4,6.4c3.6,1.5,7.5,2.3,11.8,2.3c3.9,0,7.7-0.8,11.3-2.3c3.6-1.5,6.8-3.6,9.5-6.4
					c2.7-2.7,4.9-6.1,6.5-10c1.6-3.9,2.4-8.3,2.4-13.1C283.1,402.9,282.4,398.4,280.9,394.4z M265.2,416.2c-0.6,2.2-1.6,4-2.7,5.4
					c-1.2,1.4-2.5,2.3-4.1,2.9c-1.6,0.6-3.2,0.9-5,0.9s-3.4-0.3-5-0.9c-1.5-0.6-2.9-1.6-4-2.9c-1.1-1.4-2-3.2-2.6-5.4
					c-0.6-2.2-0.9-5-0.9-8.3c0-3.4,0.3-6.3,0.9-8.6c0.6-2.3,1.5-4.2,2.6-5.6c1.1-1.4,2.5-2.4,4-3.1c1.5-0.6,3.2-0.9,5-0.9
					s3.4,0.3,5,0.9c1.6,0.6,2.9,1.6,4.1,3.1c1.2,1.4,2.1,3.3,2.7,5.6c0.7,2.3,1,5.2,1,8.6C266.2,411.2,265.9,414,265.2,416.2z
					 M260.4,309.7c-1.9,0-3.4,0.4-4.4,1.1c-1,0.7-1.9,1.5-2.7,2.4L158.1,438h16.3c1.5,0,2.8-0.3,3.9-0.9c1.1-0.6,2-1.4,2.8-2.4
					l95.3-125.1H260.4z M208.4,327.3c-0.8-2.1-1.7-4-2.8-5.7c-1-1.6-2.2-3.2-3.5-4.5c-2.7-2.8-5.8-4.9-9.4-6.4
					c-3.6-1.5-7.6-2.3-11.9-2.3c-4.3,0-8.2,0.7-11.8,2.3c-3.6,1.5-6.7,3.7-9.4,6.4c-2.6,2.8-4.7,6.2-6.2,10.2
					c-1.5,4-2.2,8.5-2.2,13.5c0,4.8,0.7,9.2,2.2,13.1c0.6,1.5,1.2,2.9,1.9,4.2c1.2,2.2,2.6,4.1,4.2,5.8c2.6,2.8,5.8,4.9,9.4,6.3
					c3.6,1.5,7.5,2.2,11.8,2.2c3.9,0,7.7-0.7,11.3-2.2c3.6-1.5,6.8-3.6,9.5-6.3c0.2-0.2,0.5-0.5,0.7-0.8c1.2-1.3,2.2-2.6,3.2-4.1
					c1-1.6,1.9-3.3,2.6-5.1c1.6-3.9,2.4-8.3,2.4-13.1C210.6,335.8,209.9,331.3,208.4,327.3z M192.7,349.1c-0.7,2.2-1.6,4-2.8,5.4
					c-1.2,1.4-2.5,2.3-4.1,2.9s-3.2,0.9-5,0.9s-3.4-0.3-5-0.9c-1.5-0.6-2.9-1.6-3.9-2.9c-1.1-1.4-2-3.2-2.6-5.4
					c-0.1-0.3-0.2-0.6-0.2-0.9c-0.5-2.1-0.7-4.5-0.7-7.4c0-3.4,0.3-6.3,1-8.6c0.6-2.3,1.5-4.2,2.6-5.6c1.1-1.4,2.4-2.4,3.9-3.1
					c1.5-0.6,3.2-0.9,5-0.9s3.4,0.3,5,0.9c1.6,0.6,2.9,1.6,4.1,3.1c1,1.2,1.8,2.8,2.4,4.6c0.1,0.3,0.2,0.6,0.3,1
					c0.7,2.3,1,5.2,1,8.6C193.7,344.1,193.4,346.8,192.7,349.1z"/>
			</g>
		</g>
	</g>
</g>
<g>
	<g>
		<g>
			<g>
				<path class="st1" d="M404.2,438.4h-38.1c-5.5,0-9.6-4.2-10.1-10.1l-5.2-54.8c0-0.1,0-0.1,0-0.2l-5-52.6
					c-0.4-3.8,2.2-7.2,5.9-7.9c5.4-1.1,11-1.9,16.5-2.4c5.7-0.5,11.4-0.8,17-0.8c11.2,0,22.5,1.1,33.5,3.2c3.7,0.7,6.3,4.1,5.9,7.9
					l-10.3,107.6C413.9,434.2,409.7,438.4,404.2,438.4z M355.1,372.6c0,0.1,0,0.1,0,0.2l5.3,55c0.2,2.9,1.9,6.1,5.7,6.1h38.1
					c3.9,0,5.5-3.3,5.7-6.1l10.3-107.7c0,0,0,0,0,0c0.1-1.5-0.9-2.9-2.4-3.2c-10.7-2.1-21.7-3.2-32.7-3.2c-5.5,0-11.1,0.3-16.6,0.8
					c-5.4,0.5-10.8,1.3-16.1,2.4c-1.5,0.3-2.5,1.7-2.4,3.2L355.1,372.6z"/>
			</g>
		</g>
	</g>
	<g>
		<g>
			<g>
				<g>
					<path class="st1" d="M421.1,336.5l-0.6,6.4l-1.9,20.3l-0.9,9.3l0,0.4c-0.1,0-0.2,0.1-0.3,0.1c-8.9,3.2-20.1,5.1-32.2,5.1
						c-4.2,0-8.4-0.2-12.3-0.7c-7.4-0.8-14.1-2.3-19.9-4.4c0,0,0,0,0,0c-0.1,0-0.2-0.1-0.3-0.1l0-0.4l-0.9-9.3l-1.9-20.3l-0.6-6.4
						c0.1,0,0.2-0.1,0.2-0.1c5.7-2.4,12.6-4.3,20.2-5.3c4.9-0.7,10.1-1.1,15.5-1.1c13.8,0,26.4,2.4,35.7,6.4
						C421,336.5,421.1,336.5,421.1,336.5z"/>
				</g>
			</g>
		</g>
		<g>
			<g>
				<g>
					<path class="st1" d="M418.6,360.5l-0.9,9.3l-0.3,3.2l-5.3,55c-0.4,4.6-3.3,8.1-7.9,8.1h-38.1c-4.6,0-7.6-3.5-7.9-8.1l-5.3-55
						l-0.3-3.2l-0.9-9.3H418.6z"/>
				</g>
			</g>
		</g>
	</g>
</g>
<g class="st5">
	<g>
		<g>
			<path class="st6" d="M377,436.2h-10.8c-4.6,0-7.6-3.5-7.9-8.1l-5.3-55c-0.1,0-0.2-0.1-0.3-0.1l0-0.4l-0.9-9.3l-1.9-20.3l-0.6-6.4
				c0.1,0,0.2-0.1,0.2-0.1l-0.2-2.6l-1.3-13.5c-0.2-2.6,1.5-5,4.1-5.5c5.4-1.1,10.9-1.9,16.3-2.4l1.3,18.6l2,29.4l1.2,16.9
				L377,436.2z"/>
		</g>
	</g>
	<g>
		<g>
			<path d="M377.4,436.6h-11.3c-4.6,0-8-3.4-8.4-8.5l-5.2-54.8c0,0,0,0,0,0l-0.2-0.1l-0.1-0.7l-3.5-36.3l0.2-0.1l-1.5-15.7
				c-0.3-2.9,1.7-5.4,4.5-6c5.4-1.1,10.9-1.9,16.4-2.4l0.4,0L377.4,436.6z M353.1,372.6l0.3,0.1l5.3,55.3c0.4,4.6,3.4,7.7,7.5,7.7
				h10.4L368,313c-5.3,0.5-10.6,1.3-15.8,2.3c-2.4,0.5-4,2.6-3.8,5.1l1.6,16.3l-0.2,0.1L353.1,372.6z"/>
		</g>
	</g>
</g>
<g class="st5">
	<g>
		<g>
			<path class="st6" d="M205.5,359c-0.9,1.5-2,2.9-3.2,4.1L205.5,359z"/>
		</g>
	</g>
	<g>
		<g>
			<path d="M202.7,363.4l-0.7-0.6l3.2-4.1l0.7,0.5C204.9,360.7,203.8,362.2,202.7,363.4z"/>
		</g>
	</g>
</g>
<g class="st5">
	<g>
		<g>
			<path class="st6" d="M267.2,309.7L168.8,438h-10.7l95.2-124.9c0.8-0.9,1.7-1.7,2.7-2.4c1-0.7,2.5-1.1,4.4-1.1H267.2z"/>
		</g>
	</g>
	<g>
		<g>
			<path d="M169,438.5h-11.8l0.5-0.7L253,312.9c0.8-0.9,1.7-1.8,2.8-2.5c1.1-0.8,2.7-1.1,4.6-1.1h7.7L169,438.5z M158.9,437.6h9.7
				l97.7-127.5h-5.9c-1.8,0-3.2,0.3-4.1,1c-1,0.7-1.9,1.5-2.6,2.3L158.9,437.6z"/>
		</g>
	</g>
</g>
<g class="st5">
	<g>
		<g>
			<g>
				<path d="M192.7,310.6c-3.6-1.5-7.6-2.3-11.9-2.3c-4.3,0-8.2,0.7-11.8,2.3c-3.6,1.5-6.7,3.7-9.4,6.4c-2.6,2.8-4.7,6.2-6.2,10.2
					c-1.5,4-2.2,8.5-2.2,13.5c0,4.8,0.7,9.2,2.2,13.1c0.6,1.5,1.2,2.9,1.9,4.2c1.2,2.2,2.6,4.1,4.2,5.8c0.5,0.5,1.1,1.1,1.6,1.5
					l9.5-12.7c-0.6-1.1-1.1-2.3-1.5-3.7c-0.1-0.3-0.2-0.6-0.2-0.9c-0.5-2.1-0.7-4.5-0.7-7.4c0-3.4,0.3-6.3,1-8.6
					c0.6-2.3,1.5-4.2,2.6-5.6c1.1-1.4,2.4-2.4,3.9-3.1c1.5-0.6,3.2-0.9,5-0.9s3.4,0.3,5,0.9c1.6,0.6,2.9,1.6,4.1,3.1
					c0.1,0.1,0.2,0.3,0.3,0.4l9.3-12.3C197.5,313,195.2,311.7,192.7,310.6z"/>
			</g>
		</g>
	</g>
</g>
<g class="st5">
	<g>
		<g>
			<g>
				<path d="M265.3,377.8c-3.6-1.5-7.6-2.3-11.9-2.3c-4.3,0-8.2,0.7-11.8,2.3c-3.6,1.5-6.7,3.7-9.4,6.4c-2.6,2.8-4.7,6.2-6.2,10.2
					c-1.5,4-2.2,8.5-2.2,13.5c0,4.8,0.7,9.2,2.2,13.1c0.6,1.5,1.2,2.9,1.9,4.2c1.2,2.2,2.6,4.1,4.2,5.8c0.5,0.5,1.1,1.1,1.6,1.5
					l9.5-12.7c-0.6-1.1-1.1-2.3-1.5-3.7c-0.1-0.3-0.2-0.6-0.2-0.9c-0.5-2.1-0.7-4.5-0.7-7.4c0-3.4,0.3-6.3,1-8.6
					c0.6-2.3,1.5-4.2,2.6-5.6c1.1-1.4,2.4-2.4,3.9-3.1c1.5-0.6,3.2-0.9,5-0.9s3.4,0.3,5,0.9c1.6,0.6,2.9,1.6,4.1,3.1
					c0.1,0.1,0.2,0.3,0.3,0.4l9.3-12.3C270,380.2,267.7,378.8,265.3,377.8z"/>
			</g>
		</g>
	</g>
</g>
<g>
	<g>
		<g>
			<path class="st1" d="M304.8,378.7v-6.1h9.6V363h6.2v9.6h9.6v6.1h-9.6v9.7h-6.2v-9.7H304.8z"/>
		</g>
	</g>
</g>
<g>
	<g>
		<g>
			<path class="st1" d="M444.8,378.7v-6.1h9.6V363h6.2v9.6h9.6v6.1h-9.6v9.7h-6.2v-9.7H444.8z"/>
		</g>
	</g>
</g>
<g>
	<g>
		<g>
			<path class="st1" d="M628.8,378.7v-6.1h9.6V363h6.2v9.6h9.6v6.1h-9.6v9.7h-6.2v-9.7H628.8z"/>
		</g>
	</g>
</g>
</svg>
