<?xml version="1.0" encoding="utf-8"?>
<!-- Generator: Adobe Illustrator 21.0.0, SVG Export Plug-In . SVG Version: 6.00 Build 0)  -->
<svg version="1.0" id="Layer_1" xmlns="http://www.w3.org/2000/svg" xmlns:xlink="http://www.w3.org/1999/xlink" x="0px" y="0px"
	 viewBox="0 0 829.4 153.5" style="enable-background:new 0 0 829.4 153.5;" xml:space="preserve">
<style type="text/css">
	.st0{fill:#2D2D2D;}
	.st1{opacity:0.12;fill:none;stroke:#000000;stroke-width:7.7761;stroke-miterlimit:10;enable-background:new    ;}
	.st2{fill:#FFFFFF;}
	.st3{stroke:#FFFFFF;stroke-miterlimit:10;}
	.st4{fill:#161616;stroke:#161616;stroke-miterlimit:10;}
	.st5{fill:#161616;stroke:#FFFFFF;stroke-miterlimit:10;}
	.st6{fill:#2D2D2D;stroke:#FFFFFF;stroke-width:2.4362;stroke-miterlimit:10;}
	.st7{fill:#2D2D2D;stroke:#FFFFFF;stroke-width:2.6234;stroke-miterlimit:10;}
	.st8{fill:#2D2D2D;stroke:#FFFFFF;stroke-width:1.7323;stroke-miterlimit:10;}
	.st9{fill:none;stroke:#2D2D2D;stroke-width:5.0736;stroke-linecap:round;stroke-linejoin:round;stroke-miterlimit:10;}
	.st10{fill:none;stroke:#2D2D2D;stroke-width:5.0736;stroke-miterlimit:10;}
	.st11{opacity:0.12;fill:#020202;stroke:#000000;stroke-miterlimit:10;}
	.st12{opacity:0.12;}
</style>
<path class="st0" d="M782.4,147c0,0-67.4,20.1-105.2-28.3C639.5,70.4,649.9,38,656.9,6.3l0.5-0.5c32.2-3.3,65.6-10,109.4,33
	c43.7,43,16.2,107.8,16.2,107.8L782.4,147z"/>
<path class="st1" d="M776.3,143.7c0,0-59.6,15.8-94.2-28.1c-34.6-44-24.4-70.7-21.1-101.1"/>
<path class="st2" d="M693.8,27.7c9.4-3,35.9,13.3,35.3,2.7C728.2,13.3,680.5,7.9,693.8,27.7z"/>
<g>
	<g>
		<path class="st3" d="M515.8,86.2c0.6-0.4,1.3-0.8,1.9-1.2c-1.5-1.9-2.9-3.8-4.4-5.7c-7.9,6.4-15.7,12.9-25.5,16
			c0.9,2.2,1.9,4.5,2.8,6.7c16-7.3,34.5-8.4,50-16.4c2.3-1.2,2.4-5.1,0-6.3c-12.6-6.1-25.3,2.1-37.2,6.4c1.4,1.8,2.7,3.6,4.1,5.4
			c9.3-13.3,24.3-20.3,37.6-28.8c2.8-1.8,2-7.2-1.8-6.8c-20.4,2.3-37.4,22.6-51,36.2c-3.4,3.4,1.6,8,5.2,5.2
			c15.6-12.4,39.2-11.8,53.7-25.5c2.3-2.2,0.6-6.4-2.6-6.2c-12.5,0.5-20.6,11.7-30.7,17.6c1.7,1.7,3.3,3.3,5,5
			c7.7-12.9,22.6-24.3,34.3-33.5c-1.7-1.7-3.4-3.4-5.2-5.2c-9.1,7.3-16,16.7-24.8,24.4c-3.6,3.1,1.6,8.3,5.2,5.2
			c8.8-7.7,15.7-17.1,24.8-24.4c3.7-3-1.5-8-5.2-5.2c-12.3,9.7-27.3,21.3-35.4,34.9c-1.9,3.2,1.8,6.8,5,5c8.4-4.8,16.7-16.2,27-16.6
			c-0.9-2.1-1.7-4.2-2.6-6.2c-14.1,13.3-38.1,13.1-53.7,25.5c1.7,1.7,3.4,3.4,5.2,5.2c11.8-11.8,28.2-32.1,45.8-34.1
			c-0.6-2.3-1.2-4.5-1.8-6.8c-14.6,9.3-30.1,16.9-40.3,31.4c-1.8,2.6,1.2,6.4,4.1,5.4c8.9-3.2,21.9-11.8,31.5-7.1c0-2.1,0-4.2,0-6.3
			c-15.4,8-34.1,9.2-50,16.4c-3.8,1.7-1.1,7.9,2.8,6.7c11.1-3.5,19.9-10.7,28.8-17.9c3.3-2.6-1-7.9-4.4-5.7
			c-0.6,0.4-1.3,0.8-1.9,1.2C508.2,82.4,511.8,88.7,515.8,86.2L515.8,86.2z"/>
	</g>
</g>
<g>
	<g>
		<path class="st4" d="M498.6,45.1c-2.9,4.1-5.8,7.9-9.3,11.6c-1.4,1.5-2.7,2.9-4.1,4.4c4.5-0.4,5.2-0.8,2.3-1
			c-7.3-1.2-11.1-4.7-16.3-10.1c-16.1-17.2-41.9,8.7-25.8,25.8C458.1,89.3,471,95,489.1,96.9c17.9,1.9,32.5-21,41-33.3
			C543.6,44.1,511.9,25.9,498.6,45.1L498.6,45.1z"/>
	</g>
</g>
<g>
	<g>
		<path class="st4" d="M507.4,77.1c-6.2,3.4-12.1,7.1-18.2,10.7c-7.8,4.6-12.6,17-6.6,25c0.8,1,1.4,2,2,3.2c-3.6-7.1,2,4.7,1.3,3.1
			c2,4.5,5.5,8.2,9.6,10.9c7.2,4.7,15.8,4.8,23.9,6.7c9.7,2.2,19.7-2.8,22.5-12.8c2.6-9.3-3-20.3-12.8-22.5
			c-2.9-0.6-5.7-1.1-8.6-1.6c-1.2-0.2-2.4-0.4-3.5-0.6c-0.7-0.1-6-2-2-0.1c1.4,0.9,2.5,2,3.4,3.4c-2.1-3.2,1.6,4.1,0.1,0.4
			c-1.2-3-2.3-6-4.3-8.6c-2.2,8.3-4.4,16.7-6.6,25c6.1-3.6,12-7.3,18.2-10.7c8.7-4.7,11.5-16.6,6.6-25
			C527.3,74.8,516.2,72.3,507.4,77.1L507.4,77.1z"/>
	</g>
</g>
<g>
	<g>
		<path class="st4" d="M544.1,58.9c-2.4-4.4,1.1,3.4-0.5-0.8c-0.6-1.5-1-3-1.6-4.5c-2-5.2-4.3-9.1-8.1-13.3
			C531,37,527,34.6,523,32.8c2.7,1.2-10.5-4.4-3.8-1.6c-0.8-0.3-1.6-0.7-2.4-1.2c1.2,0.8,2.2,1.8,2.8,3.1c-5.9-8-15.7-12-25-6.6
			c-7.9,4.6-12.5,17-6.6,25c3.3,4.4,6.5,7.9,11.5,10.6c2.1,1.1,4.7,2.1,6.8,2.9c1.9,0.8,1.7,0.7-0.6-0.3c0.8,0.4,1.6,0.8,2.4,1.3
			c-3.7-2.1,1.7,2.3-1.3-1.7c0.5,0.7,0.9,1.4,1.2,2.1c-1.1-2.6-1.3-3-0.6-1.1c1.4,4,2.9,8,4.9,11.8c4.8,8.7,16.6,11.5,25,6.6
			C546.3,78.7,548.8,67.6,544.1,58.9L544.1,58.9z"/>
	</g>
</g>
<g>
	<g>
		<path class="st5" d="M559.8,50.6c2.2-12.2,2.8-25.6-7.7-34.4c-7.6-6.4-18.3-7.5-25.8,0c-6.6,6.6-7.7,19.5,0,25.8
			c3.1,2.6-1.8-3.5,0.1-0.3c-0.4-0.8-0.7-1.6-1.1-2.4c-0.3-3.1-0.4-3.7-0.3-1.7c0.1,1.2-0.5,5.1,0.3-0.3c-0.2,1.2-0.4,2.4-0.6,3.5
			c-1.8,9.8,2.6,19.7,12.8,22.5C546.3,65.9,558,60.4,559.8,50.6L559.8,50.6z"/>
	</g>
</g>
<g>
	<g>
		<path class="st4" d="M524.9,63.7c13.1,1.3,25.5-2.7,34.3-12.7c6.6-7.5,7.4-18.5,0-25.8c-6.7-6.7-19.3-7.5-25.8,0
			c-1.1,1.3-2.3,2.5-3.6,3.6c2.2-1.7,2.6-2,1-1c-3.2,2,4.1-1.4,0.6-0.3c-1.9,0.4-1.3,0.4,1.8-0.1c-0.7,0.1-1.4,0.1-2.2,0.1
			c-2,0.1-4.1-0.1-6.1-0.3c-9.9-1-18.3,9.1-18.3,18.3C506.7,56.1,515,62.7,524.9,63.7L524.9,63.7z"/>
	</g>
</g>
<g>
	<g>
		<path class="st4" d="M538.5,102.2c2.4-3.6,3.9-7.7,6.3-11.3c-2.4,3.8,1.2-1.4,1.8-2.1c1.6-1.9,3.2-3.8,4.7-5.8
			c-10.2-5.9-20.4-11.9-30.5-17.8c0.4-0.7,0.7-1.4,1.1-2.2c-4.3,9-2.5,19.7,6.6,25c8.1,4.7,20.7,2.4,25-6.6c1-2.1,2.1-4.2,2.6-6.6
			c1.6-8.1-0.9-16.2-8.4-20.6c-6.5-3.8-17.1-3.5-22.1,2.9c-3.7,4.7-7.8,9.2-11.4,14.1c-2.9,3.9-4.5,8.4-7.1,12.5
			c-5.4,8.4-1.7,20.2,6.6,25C522.4,114,533.1,110.5,538.5,102.2L538.5,102.2z"/>
	</g>
</g>
<g>
	<path class="st6" d="M451.2,135.1c-26.7-21.3-28.7-61.6-13.4-90.7c13.8,9.7,19.9,23.9,17.6,40.6c15.4-7,27.3-4.5,42.7-1.9"/>
	<path class="st6" d="M451.2,135.1c24,24.3,64.2,22.1,91.6,3.8c-11.1-12.7-25.9-17.3-42.2-13.2c5.4-16.1,1.6-27.6-2.6-42.7"/>
	<path class="st7" d="M445.9,50c11.6-16.5,27.6-29.1,47-34.8c6.1,20.9,2.8,45.7-4,66.3"/>
	<path class="st7" d="M537.2,132.2c15.2-13.2,26-30.5,29.7-50.4c-21.4-3.9-45.8,2.1-65.5,11"/>
	<path class="st8" d="M495.7,26.9c8-11.2,19.5-21.2,32.4-25.4c3.6,13.7,3.2,23.2-1.7,36.9"/>
	<path class="st8" d="M554.7,79.9c10.3-9.1,18.8-21.8,21.6-35.1c-14-2.2-23.4-0.7-36.6,5.7"/>
	<path class="st8" d="M530,82.4c7.5-11.5,11-32.7,10.2-46.2c-14.1,1.6-33.7,5.5-44.7,15.1"/>
	<path class="st8" d="M563.3,44c7.5-11.5,8.7-28.6,7.9-42.1c-14.1,1.6-29.8,2.5-40.8,12.1"/>
</g>
<g>
	<path class="st0" d="M188.2,101c-1.8-4.7-4.2-8.6-7.2-11.9c-3.1-3.2-6.7-5.7-10.9-7.5c-4.2-1.8-8.8-2.6-13.8-2.6s-9.5,0.9-13.7,2.6
		s-7.8,4.2-10.9,7.5c-3.1,3.2-5.4,7.2-7.2,11.9c-1.7,4.7-2.6,9.9-2.6,15.7c0,5.6,0.9,10.7,2.6,15.2c1.7,4.5,4.1,8.4,7.2,11.6
		c3.1,3.2,6.7,5.7,10.9,7.4s8.8,2.6,13.7,2.6c4.5,0,8.9-0.9,13.1-2.6c4.2-1.8,7.9-4.2,11-7.4c3.2-3.2,5.7-7.1,7.6-11.6
		c1.9-4.5,2.8-9.6,2.8-15.2C190.8,110.8,189.9,105.6,188.2,101z M170,126.3c-0.8,2.6-1.8,4.7-3.1,6.3c-1.3,1.6-2.9,2.7-4.7,3.4
		c-1.8,0.7-3.8,1-5.8,1s-4-0.3-5.8-1c-1.8-0.7-3.3-1.8-4.6-3.4c-1.3-1.6-2.3-3.7-3-6.3c-0.7-2.6-1.1-5.8-1.1-9.7c0-4,0.4-7.3,1.1-10
		c0.7-2.7,1.7-4.8,3-6.5c1.3-1.7,2.8-2.8,4.6-3.5c1.8-0.7,3.7-1.1,5.8-1.1s4,0.4,5.8,1.1c1.8,0.7,3.4,1.9,4.7,3.5
		c1.3,1.7,2.4,3.8,3.1,6.5c0.8,2.7,1.1,6,1.1,10C171.1,120.5,170.8,123.7,170,126.3z M164.4,2.6c-2.2,0-3.9,0.4-5.1,1.2
		c-1.2,0.8-2.2,1.7-3.1,2.8l-110.6,145h19c1.8,0,3.3-0.4,4.5-1.1c1.2-0.7,2.3-1.6,3.2-2.7L183,2.6H164.4z M104.1,23.1
		c-0.9-2.4-2-4.6-3.2-6.6c-1.2-1.9-2.5-3.7-4-5.2c-3.1-3.2-6.8-5.7-11-7.5C81.6,2,77.1,1.1,72.1,1.1c-4.9,0-9.5,0.9-13.7,2.6
		c-4.2,1.7-7.8,4.2-10.9,7.5c-3.1,3.2-5.4,7.2-7.2,11.8c-1.7,4.7-2.6,9.9-2.6,15.7c0,5.6,0.9,10.7,2.6,15.2c0.7,1.7,1.4,3.3,2.2,4.9
		c1.4,2.5,3,4.7,4.9,6.7c3.1,3.2,6.7,5.7,10.9,7.4c4.2,1.7,8.8,2.6,13.7,2.6c4.5,0,8.9-0.9,13.1-2.6c4.2-1.7,7.9-4.2,11-7.4
		c0.3-0.3,0.6-0.6,0.8-0.9c1.4-1.5,2.6-3.1,3.7-4.8c1.2-1.8,2.2-3.8,3.1-5.9c1.9-4.5,2.8-9.6,2.8-15.2
		C106.6,32.9,105.8,27.7,104.1,23.1z M85.9,48.3c-0.8,2.6-1.9,4.7-3.2,6.2c-1.3,1.6-2.9,2.7-4.7,3.4s-3.8,1-5.8,1s-4-0.3-5.8-1
		c-1.8-0.7-3.3-1.8-4.6-3.4c-1.3-1.6-2.3-3.7-3-6.2c-0.1-0.3-0.2-0.7-0.3-1c-0.6-2.4-0.9-5.2-0.9-8.6c0-4,0.4-7.3,1.1-10
		c0.8-2.7,1.8-4.8,3-6.5c1.3-1.6,2.8-2.8,4.6-3.5c1.8-0.7,3.7-1.1,5.8-1.1s4,0.4,5.8,1.1c1.8,0.7,3.4,1.9,4.7,3.5
		c1.2,1.4,2.1,3.2,2.8,5.4c0.1,0.4,0.2,0.7,0.4,1.1c0.8,2.7,1.2,6,1.2,10C87.1,42.6,86.7,45.8,85.9,48.3z"/>
</g>
<g>
	<path class="st9" d="M352.5,15.1L351,30.7l-0.3,3l-0.4,4.5l-2.2,23.5l-1,10.8l-0.3,3.7l-6.1,63.9c-0.4,5.3-3.9,9.4-9.2,9.4h-44.2
		c-5.3,0-8.8-4.1-9.2-9.4l-6.1-63.9c0,0,0,0,0,0l-0.3-3.7l-1-10.8l-2.2-23.5l-0.4-4.4l-0.3-3L266,15.1c-0.3-3.1,1.8-5.8,4.8-6.4
		c6.3-1.2,12.6-2.1,19-2.8c6.5-0.6,13-0.9,19.5-0.9c12.9,0,25.8,1.2,38.4,3.7C350.7,9.3,352.8,12,352.5,15.1z"/>
	<g>
		<path class="st0" d="M351,33.8l-0.7,7.4l-2.2,23.5l-1,10.8l0,0.5c-0.1,0-0.2,0.1-0.3,0.1c-10.3,3.7-23.3,5.9-37.4,5.9
			c-4.9,0-9.7-0.3-14.3-0.8c-8.5-0.9-16.4-2.7-23.1-5.1c0,0,0,0,0,0c-0.1,0-0.2-0.1-0.3-0.1l0-0.5l-1-10.8l-2.2-23.5l-0.7-7.4
			c0.1,0,0.2-0.1,0.3-0.1c6.6-2.8,14.6-5,23.5-6.2c5.7-0.8,11.7-1.2,18-1.2c16,0,30.6,2.8,41.5,7.4C350.8,33.7,350.9,33.8,351,33.8z
			"/>
		<path class="st0" d="M348.1,61.7l-1,10.8l-0.3,3.7l-6.1,63.9c-0.4,5.3-3.9,9.4-9.2,9.4h-44.2c-5.3,0-8.8-4.1-9.2-9.4l-6.1-63.9
			l-0.3-3.7l-1-10.8H348.1z"/>
	</g>
</g>
<path class="st11" d="M299.7,149.5h-12.6c-5.3,0-8.8-4.1-9.2-9.4l-6.1-63.9c-0.1,0-0.2-0.1-0.3-0.1l0-0.5l-1-10.8l-2.2-23.5
	l-0.7-7.4c0.1,0,0.2-0.1,0.3-0.1l-0.3-3L266,15.1c-0.3-3.1,1.8-5.8,4.8-6.4c6.3-1.2,12.6-2.1,19-2.8l1.5,21.6l2.4,34.1l1.4,19.6
	L299.7,149.5z"/>
<path class="st11" d="M100.7,59.9c-1.1,1.7-2.3,3.3-3.7,4.8L100.7,59.9z"/>
<path class="st11" d="M172.3,2.6l-114.2,149H45.6l110.6-145c0.9-1,1.9-2,3.1-2.8c1.2-0.8,2.9-1.2,5.1-1.2H172.3z"/>
<g class="st12">
	<path d="M85.9,3.7C81.6,2,77.1,1.1,72.1,1.1c-4.9,0-9.5,0.9-13.7,2.6c-4.2,1.7-7.8,4.2-10.9,7.5c-3.1,3.2-5.4,7.2-7.2,11.8
		c-1.7,4.7-2.6,9.9-2.6,15.7c0,5.6,0.9,10.7,2.6,15.2c0.7,1.7,1.4,3.3,2.2,4.9c1.4,2.5,3,4.7,4.9,6.7c0.6,0.6,1.2,1.2,1.9,1.8
		l11-14.7c-0.7-1.2-1.3-2.7-1.7-4.3c-0.1-0.3-0.2-0.7-0.3-1c-0.6-2.4-0.9-5.2-0.9-8.6c0-4,0.4-7.3,1.1-10c0.8-2.7,1.8-4.8,3-6.5
		c1.3-1.6,2.8-2.8,4.6-3.5c1.8-0.7,3.7-1.1,5.8-1.1s4,0.4,5.8,1.1c1.8,0.7,3.4,1.9,4.7,3.5c0.1,0.2,0.2,0.3,0.4,0.5L93.8,8.4
		C91.4,6.5,88.8,4.9,85.9,3.7z"/>
</g>
<g class="st12">
	<path d="M170.1,81.7c-4.2-1.8-8.8-2.6-13.8-2.6c-4.9,0-9.5,0.9-13.7,2.6c-4.2,1.8-7.8,4.2-10.9,7.5c-3.1,3.2-5.4,7.2-7.2,11.8
		c-1.7,4.7-2.6,9.9-2.6,15.7c0,5.6,0.9,10.7,2.6,15.2c0.7,1.7,1.4,3.3,2.2,4.9c1.4,2.5,3,4.7,4.9,6.7c0.6,0.6,1.2,1.2,1.9,1.8
		l11-14.7c-0.7-1.2-1.3-2.7-1.7-4.3c-0.1-0.3-0.2-0.7-0.3-1c-0.6-2.4-0.9-5.2-0.9-8.6c0-4,0.4-7.3,1.1-10c0.8-2.7,1.8-4.8,3-6.5
		c1.3-1.6,2.8-2.8,4.6-3.5c1.8-0.7,3.7-1.1,5.8-1.1s4,0.4,5.8,1.1c1.8,0.7,3.4,1.9,4.7,3.5c0.1,0.2,0.2,0.3,0.4,0.5L178,86.4
		C175.6,84.5,173,82.9,170.1,81.7z"/>
</g>
</svg>
